# Created by Kenney (www.kenney.nl)

mtllib object_058.mtl

g object_058

v -0.2053264 0.04129151 0.9416
v -0.5008736 0.04129151 0.9416
v -0.2053264 0.2659915 0.9416
v -0.5008736 0.2659915 0.9416
v -0.0535 0.3485656 0.9416
v -0.6527 0.3485656 0.9416
v -0.5008736 0.2659915 0.0642
v -0.6527 0.3485656 0.0642
v -0.5691243 0 0.0242
v -0.1370757 0 0.0242
v -0.5436736 0.04129151 0.0242
v -0.1625264 0.04129151 0.0242
v -0.0535 0.3485656 0.0642
v -0.2053264 0.2659915 0.0642
v -0.5008736 0.04129151 0.0642
v -0.2053264 0.04129151 0.0642
v -0.1625264 0.04129151 0.9815999
v -0.5436736 0.04129151 0.9815999
v 0 0.4066 0.03402729
v 0 0.4066 0.9717727
v -0.03402729 0.4066 0
v -0.03402729 0.4066 1.0058
v -0.6721727 0.4066 0
v -0.6721727 0.4066 1.0058
v -0.7062 0.4066 0.03402729
v -0.7062 0.4066 0.9717727
v -0.1370757 0 0.9815999
v -0.5691243 0 0.9815999
v 0 0.3485656 0.9717727
v 0 0.3485656 0.03402729
v -0.03402729 0.3485656 1.0058
v -0.03402729 0.3485656 0
v -0.6721727 0.3485656 1.0058
v -0.6721727 0.3485656 0
v -0.7062 0.3485656 0.9717727
v -0.7062 0.3485656 0.03402729

vn 0 0 1
vn -0.4777802 -0.8784794 0
vn 0 0 -1
vn 0.4777802 -0.8784794 0
vn 0 1 0
vn 0.8512852 0.5247033 0
vn 0 -1 0
vn -1 0 0
vn 1 0 0
vn -0.8512852 0.5247033 0
vn -0.7071068 0 0.7071068
vn 0.7071068 0 0.7071068
vn -0.7071068 0 -0.7071068
vn 0.7071068 0 -0.7071068

vt -8.083716 1.62565
vt -19.71943 1.62565
vt -8.083716 10.47211
vt -19.71943 10.47211
vt -2.106299 13.72305
vt -25.69685 13.72305
vt 37.07087 22.32648
vt 2.527559 22.32648
vt 37.07087 29.13076
vt 2.527559 29.13076
vt 22.40647 0
vt 5.396681 0
vt 21.40447 1.62565
vt 6.398677 1.62565
vt -37.07087 4.706263
vt -2.527559 4.706263
vt -37.07087 -2.098014
vt -2.527559 -2.098014
vt 19.71943 1.62565
vt 8.083716 1.62565
vt 19.71943 10.47211
vt 8.083716 10.47211
vt 25.69685 13.72305
vt 2.106299 13.72305
vt 6.398677 38.64567
vt 8.083716 2.527559
vt 6.398677 0.9527559
vt 21.40447 0.9527559
vt 19.71943 2.527559
vt 19.71943 37.07087
vt 8.083716 37.07087
vt 21.40447 38.64567
vt 0 1.339657
vt 0 38.25877
vt 1.339657 0
vt 1.339657 39.59843
vt 26.46349 0
vt 26.46349 39.59843
vt 27.80315 1.339657
vt 27.80315 38.25877
vt -5.396681 0
vt -22.40647 0
vt -6.398677 1.62565
vt -21.40447 1.62565
vt -0.9527559 4.741299
vt -0.9527559 2.831656
vt -38.64567 4.741299
vt -38.64567 2.831656
vt -5.396681 38.64567
vt -5.396681 0.9527559
vt -22.40647 38.64567
vt -22.40647 0.9527559
vt 2.527559 1.62565
vt 2.527559 10.47211
vt 37.07087 1.62565
vt 37.07087 10.47211
vt -2.527559 10.47211
vt -2.527559 1.62565
vt -37.07087 10.47211
vt -37.07087 1.62565
vt 4.796785E-16 38.25877
vt 4.796785E-16 1.339657
vt -1.339657 39.59843
vt -1.339657 3.367535E-16
vt -2.106299 37.07087
vt -26.46349 39.59843
vt -25.69685 37.07087
vt -25.69685 2.527559
vt -2.106299 2.527559
vt -26.46349 3.367535E-16
vt -27.80315 38.25877
vt -27.80315 1.339657
vt 0.9527559 -11.75675
vt 0.9527559 -9.847105
vt 38.64567 -11.75675
vt 38.64567 -9.847105
vt 7.393239 13.72305
vt 7.393239 16.00787
vt 9.2878 13.72305
vt 9.2878 16.00787
vt -1.339657 16.00787
vt -1.339657 13.72305
vt -38.25877 16.00787
vt -38.25877 13.72305
vt -26.46349 13.72305
vt -26.46349 16.00787
vt 1.339657 13.72305
vt 1.339657 16.00787
vt 38.25877 13.72305
vt 38.25877 16.00787
vt -27.05303 16.00787
vt -27.05303 13.72305
vt -28.9476 16.00787
vt -28.9476 13.72305
vt 18.71251 13.72305
vt 18.71251 16.00787
vt 20.60708 13.72305
vt 20.60708 16.00787
vt 26.46349 13.72305
vt 26.46349 16.00787
vt 0.9472806 16.00787
vt 0.9472806 13.72305
vt -0.9472806 16.00787
vt -0.9472806 13.72305

usemtl metalLight

f 3/3/1 2/2/1 1/1/1
f 2/2/1 3/3/1 4/4/1
f 4/4/1 3/3/1 5/5/1
f 4/4/1 5/5/1 6/6/1
f 6/9/2 7/8/2 4/7/2
f 7/8/2 6/9/2 8/10/2
f 11/13/3 10/12/3 9/11/3
f 10/12/3 11/13/3 12/14/3
f 3/17/4 13/16/4 5/15/4
f 13/16/4 3/17/4 14/18/4
f 7/21/3 16/20/3 15/19/3
f 16/20/3 7/21/3 14/22/3
f 14/22/3 7/21/3 8/23/3
f 14/22/3 8/23/3 13/24/3
f 12/27/5 16/26/5 17/25/5
f 16/26/5 12/27/5 11/28/5
f 16/26/5 11/28/5 15/29/5
f 15/29/5 11/28/5 2/30/5
f 1/31/5 17/25/5 16/26/5
f 17/25/5 1/31/5 18/32/5
f 18/32/5 1/31/5 2/30/5
f 18/32/5 2/30/5 11/28/5
f 21/35/5 20/34/5 19/33/5
f 20/34/5 21/35/5 22/36/5
f 22/36/5 21/35/5 23/37/5
f 22/36/5 23/37/5 24/38/5
f 24/38/5 23/37/5 25/39/5
f 24/38/5 25/39/5 26/40/5
f 17/43/1 28/42/1 27/41/1
f 28/42/1 17/43/1 18/44/1
f 17/47/6 10/46/6 12/45/6
f 10/46/6 17/47/6 27/48/6
f 28/51/7 10/50/7 27/49/7
f 10/50/7 28/51/7 9/52/7
f 2/55/8 7/54/8 15/53/8
f 7/54/8 2/55/8 4/56/8
f 3/59/9 16/58/9 14/57/9
f 16/58/9 3/59/9 1/60/9
f 31/63/7 30/62/7 29/61/7
f 30/62/7 31/63/7 32/64/7
f 32/64/7 31/63/7 5/65/7
f 5/65/7 31/63/7 33/66/7
f 5/65/7 33/66/7 6/67/7
f 6/67/7 33/66/7 8/68/7
f 13/69/7 32/64/7 5/65/7
f 32/64/7 13/69/7 34/70/7
f 34/70/7 13/69/7 8/68/7
f 34/70/7 8/68/7 33/66/7
f 34/70/7 33/66/7 35/71/7
f 34/70/7 35/71/7 36/72/7
f 28/75/10 11/74/10 9/73/10
f 11/74/10 28/75/10 18/76/10

usemtl metal

f 33/79/11 26/78/11 35/77/11
f 26/78/11 33/79/11 24/80/11
f 20/83/9 30/82/9 19/81/9
f 30/82/9 20/83/9 29/84/9
f 22/81/1 33/85/1 31/82/1
f 33/85/1 22/81/1 24/86/1
f 35/89/8 25/88/8 36/87/8
f 25/88/8 35/89/8 26/90/8
f 22/93/12 29/92/12 20/91/12
f 29/92/12 22/93/12 31/94/12
f 36/97/13 23/96/13 34/95/13
f 23/96/13 36/97/13 25/98/13
f 23/100/3 32/87/3 34/99/3
f 32/87/3 23/100/3 21/88/3
f 19/103/14 32/102/14 21/101/14
f 32/102/14 19/103/14 30/104/14

usemtl _defaultMat

f 15/87/5 1/100/5 16/88/5
f 1/87/5 15/100/5 2/88/5

