# Created by Kenney (www.kenney.nl)

mtllib object_003.mtl

g object_003

v 1.1875 0 -1.192093E-07
v 1.1875 0 0.2499999
v 1.1875 1 -1.192093E-07
v 1.1875 1 1.1875
v 1.1875 -2.255973E-17 1.1875
v 1 -2.255973E-17 1.1875
v 1 0 0.2499999
v 1 0.125 1.1875
v 1 0.125 0.2499999
v 2.980232E-08 0 0.1875
v 0 0 0
v 2.980232E-08 0.125 0.1875
v 1.490116E-08 0.125 0.125
v 0 1 0
v 1.490116E-08 0.75 0.125
v 2.980232E-08 0.875 0.25
v 2.980232E-08 1 0.25
v 0.9375002 0 -1.192093E-07
v 0.9375002 0 0.1874999
v 0.9375003 0.875 1.1875
v 0.9375002 0.875 0.2499999
v 0.9375003 1 1.1875
v 0.9375002 1 0.2499999
v 0.9375002 0.125 0.1874999
v 0.9375002 0.75 0.1249999
v 1.0625 0.75 0.2499999
v 1.0625 0.75 1.1875
v 1.0625 0.125 1.1875
v 0.9375002 0.125 0.1249999
v 1.0625 0.125 0.2499999

vn 1 0 -1.192093E-07
vn -1 0 1.192093E-07
vn -1.192093E-07 0 -1
vn 0 -1 0
vn 1.192093E-07 0 1
vn 5.960464E-08 -0.7071068 0.7071068
vn 0 1 0
vn -0.7071068 -0.7071068 5.960464E-08
vn -0.7071068 0 0.7071069
vn -0.5773503 -0.5773503 0.5773504

vt -6.487354E-12 4.811589E-13
vt -9.84252 4.811589E-13
vt -6.487354E-12 39.37008
vt -46.75197 39.37008
vt -46.75197 4.802707E-13
vt 46.75197 -8.881784E-16
vt 9.84252 7.276598E-28
vt 46.75197 4.92126
vt 9.84252 4.92126
vt 7.38189 8.407791E-45
vt 0 0
vt 7.38189 4.92126
vt 4.92126 4.92126
vt 0 39.37008
vt 4.92126 29.52756
vt 9.84252 34.44882
vt 9.84252 39.37008
vt -36.90945 -1.374649E-29
vt -46.75197 1.588346E-30
vt -9.84252 46.75197
vt -9.84252 39.37008
vt -46.75197 46.75197
vt -7.38189 36.90945
vt -5.684342E-14 36.90945
vt -7.38189 0
vt 0 46.75197
vt 46.75197 34.44882
vt 46.75197 39.37008
vt -4.786176E-15 -3.321077E-43
vt -4.786176E-15 4.92126
vt 36.90945 -3.321077E-43
vt 36.90945 4.92126
vt 36.90945 24.35899
vt -3.209176E-15 24.35899
vt 36.90945 31.31871
vt -6.418352E-15 31.31871
vt 9.84252 0
vt 9.84252 36.90945
vt 46.75197 46.75197
vt 46.75197 36.90945
vt -6.381568E-15 34.44882
vt -6.381568E-15 39.37008
vt 36.90945 34.44882
vt 36.90945 39.37008
vt 9.84252 -8.69964
vt 9.84252 -1.739928
vt 46.75197 -8.69964
vt 46.75197 -1.739928
vt 39.37008 -8.881784E-16
vt 39.37008 4.92126
vt 41.83071 4.92126
vt 41.83071 29.52756
vt 4.92126 5.65919E-18
vt 4.92126 36.90945
vt 7.38189 5.65919E-18
vt 7.38189 36.90945
vt 9.84252 41.83071
vt 46.75197 41.83071
vt 31.31871 -1.538847E-29
vt 31.31871 4.92126
vt 34.79856 -1.538847E-29
vt 34.79856 4.92126
vt 36.53849 11.05003
vt 29.57878 11.05003
vt 33.05864 17.07731
vt 46.75197 29.52756
vt 9.84252 29.52756
vt -3.190784E-15 4.92126
vt -3.190784E-15 29.52756
vt 36.90945 29.52756
vt 29.57878 4.92126
vt 29.57878 29.52756
vt 36.53849 4.92126
vt 36.53849 29.52756

usemtl metalLight

f 3/3/1 2/2/1 1/1/1
f 4/4/1 2/2/1 3/3/1
f 2/2/1 4/4/1 5/5/1
f 8/8/2 7/7/2 6/6/2
f 7/7/2 8/8/2 9/9/2
f 12/12/2 11/11/2 10/10/2
f 11/11/2 12/12/2 13/13/2
f 11/11/2 13/13/2 14/14/2
f 14/14/2 13/13/2 15/15/2
f 14/14/2 15/15/2 16/16/2
f 14/14/2 16/16/2 17/17/2
f 3/4/3 11/11/3 14/14/3
f 11/11/3 3/4/3 18/18/3
f 18/18/3 3/4/3 1/19/3
f 5/22/4 7/21/4 2/20/4
f 7/21/4 5/22/4 6/4/4
f 19/23/4 2/20/4 7/21/4
f 18/24/4 2/20/4 19/23/4
f 10/25/4 18/24/4 19/23/4
f 18/24/4 10/25/4 11/11/4
f 2/20/4 18/24/4 1/26/4
f 22/28/2 21/16/2 20/27/2
f 21/16/2 22/28/2 23/17/2
f 19/31/5 12/30/5 10/29/5
f 12/30/5 19/31/5 24/32/5
f 21/35/6 15/34/6 25/33/6
f 15/34/6 21/35/6 16/36/6
f 17/37/7 3/26/7 14/11/7
f 3/26/7 17/37/7 23/38/7
f 3/26/7 23/38/7 4/39/7
f 4/39/7 23/38/7 22/40/7
f 21/43/5 17/42/5 16/41/5
f 17/42/5 21/43/5 23/44/5
f 27/47/8 21/46/8 26/45/8
f 21/46/8 27/47/8 20/48/8
f 5/6/5 8/50/5 6/49/5
f 8/50/5 5/6/5 28/51/5
f 28/51/5 5/6/5 27/52/5
f 4/28/5 27/52/5 5/6/5
f 22/44/5 27/52/5 4/28/5
f 27/52/5 22/44/5 20/43/5
f 12/55/7 29/54/7 13/53/7
f 29/54/7 12/55/7 24/56/7
f 29/54/7 24/56/7 30/57/7
f 30/57/7 24/56/7 9/17/7
f 30/57/7 9/17/7 28/58/7
f 28/58/7 9/17/7 8/28/7
f 7/61/9 24/60/9 19/59/9
f 24/60/9 7/61/9 9/62/9
f 21/65/10 25/64/10 26/63/10

usemtl metal

f 27/66/2 30/9/2 28/8/2
f 30/9/2 27/66/2 26/67/2
f 29/32/5 15/69/5 13/68/5
f 15/69/5 29/32/5 25/70/5
f 30/73/9 25/72/9 29/71/9
f 25/72/9 30/73/9 26/74/9

