# Created by Kenney (www.kenney.nl)

mtllib object_067.mtl

g object_067

v -0.92875 0.02911488 0.0475
v -2.887646E-14 0.02911488 0.0475
v -0.92875 0.1746893 0.0475
v -2.887646E-14 0.1746893 0.0475
v -0.97625 0.02911488 0.095
v -0.97625 0.1746893 0.095
v -0.97625 0.02911488 1.02375
v -0.97625 0.1746893 1.02375
v -0.92875 0.2038042 0
v 0 0.2038042 5.735586E-13
v -0.92875 0.232919 0
v 0 0.232919 5.735586E-13
v -1 0 0.095
v -0.92875 0 0.02375
v -1 0.02911488 0.095
v -0.92875 0.02911488 0.02375
v -1.516014E-14 0.02911488 0.02375
v -1 0.02911488 1.02375
v -0.92875 0.232919 0.095
v -0.92875 0 0.095
v -0.92875 0.232919 1.02375
v -0.92875 0 1.02375
v -1.02375 0.2038042 0.095
v -1.02375 0.232919 0.095
v -1.516014E-14 0 0.02375
v -5.847482E-14 0 0.095
v -1 0 1.02375
v -1.02375 0.2038042 1.02375
v -1.02375 0.232919 1.02375
v -5.847482E-14 0.232919 0.095

vn 0 0 -1
vn -1 0 0
vn -0.7071068 0 -0.7071068
vn 0 1 0
vn 1 0 0
vn 0 -1 0
vn -0.5225878 -0.8525855 0
vn 0 0 1
vn -0.4631571 -0.7556261 -0.4631571
vn 0 -0.8525855 -0.5225878

vt 36.56496 1.146255
vt -1.547701E-14 1.146255
vt 36.56496 6.877531
vt -1.547701E-14 6.877531
vt 3.740157 1.146255
vt 3.740157 6.877531
vt 40.30512 1.146255
vt 40.30512 6.877531
vt 29.82237 1.146255
vt 27.17768 1.146255
vt 29.82237 6.877531
vt 27.17768 6.877531
vt 36.56496 8.023786
vt -1.391448E-23 8.023786
vt 36.56496 9.170041
vt -1.391448E-23 9.170041
vt 30.48354 0
vt 26.5165 0
vt 30.48354 1.146255
vt 26.5165 1.146255
vt 36.56496 0.9350393
vt 36.56496 1.870079
vt 39.37008 3.740157
vt 38.43504 3.740157
vt 1.136868E-12 1.870079
vt 5.968559E-13 0.9350393
vt 38.43504 40.30512
vt 39.37008 40.30512
vt -3.740157 9.170041
vt -3.740157 0
vt -40.30512 9.170041
vt -40.30512 0
vt 31.14471 8.023786
vt 25.85533 8.023786
vt 31.14471 9.170041
vt 25.85533 9.170041
vt -5.968559E-13 0.9350393
vt -36.56496 0.9350393
vt -2.302158E-12 3.740157
vt -36.56496 3.740157
vt -39.37008 3.740157
vt -36.56496 40.30512
vt -39.37008 40.30512
vt 36.56496 0
vt 2.06832E-14 0
vt 2.06832E-14 1.146255
vt 3.740157 8.023786
vt 3.740157 9.170041
vt 40.30512 8.023786
vt 40.30512 9.170041
vt 3.740157 36.36327
vt 3.740157 38.55669
vt 40.30512 36.36327
vt 40.30512 38.55669
vt -1.472727E-15 0
vt -36.56496 0
vt -1.472727E-15 9.170041
vt -36.56496 9.170041
vt 25.85533 24.79257
vt 31.14471 24.79257
vt 27.17768 23.04257
vt 29.82237 23.04257
vt 0 2.258105E-11
vt 2.302158E-12 3.740157
vt 36.56496 3.740157
vt 40.30512 3.740157
vt 36.56496 40.30512
vt 40.30512 40.30512
vt 3.740157 0
vt 40.30512 0
vt -2.258105E-11 9.170041
vt -2.258105E-11 8.023786
vt -1.870079 6.877531
vt -1.870079 1.146255
vt -0.9350393 0
vt -0.9350393 1.146255
vt -1.391448E-23 4.193133
vt 36.56496 4.193133
vt -1.547701E-14 1.999712
vt 36.56496 1.999712
vt -39.37008 0
vt -38.43504 1.146255
vt -38.43504 6.877531
vt -40.30512 8.023786
vt -39.37008 1.146255

usemtl metalRed

f 3/3/1 2/2/1 1/1/1
f 2/2/1 3/3/1 4/4/1
f 7/7/2 6/6/2 5/5/2
f 6/6/2 7/7/2 8/8/2
f 6/11/3 1/10/3 5/9/3
f 1/10/3 6/11/3 3/12/3

usemtl metalLight

f 11/15/1 10/14/1 9/13/1
f 10/14/1 11/15/1 12/16/1
f 15/19/3 14/18/3 13/17/3
f 14/18/3 15/19/3 16/20/3
f 15/23/4 1/22/4 16/21/4
f 1/22/4 15/23/4 5/24/4
f 2/25/4 16/21/4 1/22/4
f 16/21/4 2/25/4 17/26/4
f 15/23/4 7/27/4 5/24/4
f 7/27/4 15/23/4 18/28/4
f 21/31/5 20/30/5 19/29/5
f 20/30/5 21/31/5 22/32/5
f 24/35/3 9/34/3 23/33/3
f 9/34/3 24/35/3 11/36/3
f 26/39/6 14/38/6 25/37/6
f 14/38/6 26/39/6 20/40/6
f 14/38/6 20/40/6 13/41/6
f 13/41/6 20/40/6 22/42/6
f 13/41/6 22/42/6 27/43/6
f 16/1/1 25/45/1 14/44/1
f 25/45/1 16/1/1 17/46/1
f 28/49/2 24/48/2 23/47/2
f 24/48/2 28/49/2 29/50/2
f 8/53/7 23/52/7 6/51/7
f 23/52/7 8/53/7 28/54/7
f 30/57/8 20/56/8 26/55/8
f 20/56/8 30/57/8 19/58/8
f 3/61/9 23/60/9 9/59/9
f 23/60/9 3/61/9 6/62/9
f 11/44/4 30/64/4 12/63/4
f 30/64/4 11/44/4 19/65/4
f 19/65/4 11/44/4 24/66/4
f 19/65/4 24/66/4 21/67/4
f 21/67/4 24/66/4 29/68/4
f 27/70/2 15/5/2 13/69/2
f 15/5/2 27/70/2 18/7/2
f 30/29/5 10/72/5 12/71/5
f 10/72/5 30/29/5 4/73/5
f 4/73/5 30/29/5 2/74/5
f 26/30/5 2/74/5 30/29/5
f 25/75/5 2/74/5 26/30/5
f 2/74/5 25/75/5 17/76/5
f 4/79/10 9/78/10 10/77/10
f 9/78/10 4/79/10 3/80/10
f 22/56/8 7/82/8 27/81/8
f 7/82/8 22/56/8 21/58/8
f 7/82/8 21/58/8 8/83/8
f 8/83/8 21/58/8 28/84/8
f 28/84/8 21/58/8 29/31/8
f 18/85/8 27/81/8 7/82/8

