# Created by Kenney (www.kenney.nl)

mtllib object_048.mtl

g object_048

v -2.887646E-15 0 0.8675779
v -2.887646E-15 0 0
v -0.03125 5.188738E-16 0.8675779
v -0.0625 6.406454E-16 0
v -0.0625 1.023444E-15 0.8363279
v -0.03125 0.4925779 0.7113279
v -0.03125 0.4925779 0.125
v -0.0625 0.4925779 0.7113279
v -0.0625 0.4925779 0.125
v -0.03125 0.125 0.125
v -0.03125 0.125 0.7113279
v -0.0625 0.125 0.125
v -0.0625 0.125 0.7113279
v -2.887646E-15 0.6175779 0
v -0.0625 0.6175779 0
v -5.775291E-15 0.4925779 0.125
v -2.887646E-15 0.6175779 0.8675779
v 0 0.4925779 0.7113279
v -4.331469E-15 0.125 0.7113279
v -4.331469E-15 0.125 0.125
v -0.03125 0.6175779 0.8675779
v -0.0625 0.6175779 0.8363279

vn 0 -1 0
vn 0 1 0
vn 0 0 1
vn 0 0 -1
vn 1 0 0
vn -0.7071068 0 0.7071068
vn -1 0 0

vt -1.136868E-13 34.15661
vt -1.136868E-13 -3.377129E-43
vt -1.230315 34.15661
vt -2.46063 -1.708374E-30
vt -2.46063 32.9263
vt -1.230315 28.00504
vt -1.230315 4.92126
vt -2.46063 28.00504
vt -2.46063 4.92126
vt 1.230315 4.92126
vt 1.230315 28.00504
vt 2.46063 4.92126
vt 2.46063 28.00504
vt -1.230315 19.39283
vt -2.46063 19.39283
vt 1.230315 19.39283
vt 2.46063 19.39283
vt 1.136868E-13 0
vt 1.136868E-13 24.31409
vt 2.46063 2.522226E-14
vt 2.46063 24.31409
vt 0 0
vt -4.92126 19.39283
vt 0 24.31409
vt -34.15661 24.31409
vt -28.00504 19.39283
vt -28.00504 4.92126
vt -4.92126 4.92126
vt -34.15661 0
vt 4.288397E-13 6.709204E-15
vt 4.288397E-13 34.15661
vt 2.46063 6.709204E-15
vt 1.230315 34.15661
vt 2.46063 32.9263
vt 21.54248 -2.156439E-13
vt 21.54248 24.31409
vt 23.28241 -2.355089E-13
vt 23.28241 24.31409
vt 3.426144E-14 -7.486317E-15
vt -1.230315 1.294179E-14
vt 3.426144E-14 24.31409
vt -1.230315 24.31409
vt -1.274397E-14 24.31409
vt 4.92126 4.92126
vt -1.274397E-14 7.964288E-15
vt 32.9263 2.303511E-14
vt 28.00504 4.92126
vt 28.00504 19.39283
vt 4.92126 19.39283
vt 32.9263 24.31409

usemtl metalLight

f 3/3/1 2/2/1 1/1/1
f 2/2/1 3/3/1 4/4/1
f 4/4/1 3/3/1 5/5/1
f 8/8/1 7/7/1 6/6/1
f 7/7/1 8/8/1 9/9/1
f 12/12/2 11/11/2 10/10/2
f 11/11/2 12/12/2 13/13/2
f 7/14/3 12/9/3 10/7/3
f 12/9/3 7/14/3 9/15/3
f 13/12/4 6/16/4 11/10/4
f 6/16/4 13/12/4 8/17/4
f 4/20/4 14/19/4 2/18/4
f 14/19/4 4/20/4 15/21/4
f 14/24/5 16/23/5 2/22/5
f 16/23/5 14/24/5 17/25/5
f 16/23/5 17/25/5 18/26/5
f 18/26/5 17/25/5 19/27/5
f 20/28/5 2/22/5 16/23/5
f 2/22/5 20/28/5 1/29/5
f 1/29/5 20/28/5 19/27/5
f 1/29/5 19/27/5 17/25/5
f 15/32/2 17/31/2 14/30/2
f 17/31/2 15/32/2 21/33/2
f 21/33/2 15/32/2 22/34/2
f 3/37/6 22/36/6 5/35/6
f 22/36/6 3/37/6 21/38/6
f 17/41/3 3/40/3 1/39/3
f 3/40/3 17/41/3 21/42/3
f 4/45/7 12/44/7 15/43/7
f 12/44/7 4/45/7 5/46/7
f 12/44/7 5/46/7 13/47/7
f 13/47/7 5/46/7 8/48/7
f 9/49/7 15/43/7 12/44/7
f 15/43/7 9/49/7 22/50/7
f 22/50/7 9/49/7 8/48/7
f 22/50/7 8/48/7 5/46/7

usemtl metal

f 11/47/7 7/49/7 10/44/7
f 7/49/7 11/47/7 6/48/7
f 18/26/5 20/28/5 16/23/5
f 20/28/5 18/26/5 19/27/5

usemtl _defaultMat

f 10/49/2 19/47/2 20/48/2
f 19/49/2 10/47/2 11/48/2
f 16/49/3 10/47/3 20/48/3
f 10/49/3 16/47/3 7/48/3
f 6/49/1 16/47/1 18/48/1
f 16/49/1 6/47/1 7/48/1
f 11/49/4 18/47/4 19/48/4
f 18/49/4 11/47/4 6/48/4

