# Created by Kenney (www.kenney.nl)

mtllib object_032.mtl

g object_032

v -1.375 0.875 0.1324221
v -1.375 0.875 1.703711E-13
v -1.5 0.75 0.1324221
v -1.5 0.75 2.079105E-13
v -1.4675 0.465 0.1324221
v -1.5 0.465 0.1324221
v -1.4675 0.465 1.978037E-13
v -1.5 0.465 2.079105E-13
v -1.4675 0 1.978037E-13
v -1.4675 0 0.1324221
v -1.625 0 0.1324221
v -1.625 0 2.454499E-13
v -1.625 1 2.454499E-13
v -1.625 1 0.1324221
v 0 1 0
v 0 0 0
v 0 1 0.1324221
v 0 0 0.1324221
v -0.1575 0 0.1324221
v -0.125 0.465 0.1324221
v -0.125 0.75 0.1324221
v -0.25 0.875 0.1324221
v -0.1575 0.465 0.1324221
v -0.25 0.875 0
v -0.125 0.75 0
v -0.125 0.465 0
v -0.1575 0.465 0
v -0.1575 0 0

vn 0.7071068 -0.7071068 0
vn 0 1 0
vn 1 0 0
vn 0 -1 0
vn -1 0 0
vn 0 0 1
vn 0 0 -1
vn -0.7071068 -0.7071068 0

vt -5.213469 -13.91943
vt 9.676701E-12 -13.91943
vt -5.213469 -20.87914
vt 9.688248E-12 -20.87914
vt 57.77559 5.213469
vt 59.05512 5.213469
vt 57.77559 7.787548E-12
vt 59.05512 8.185452E-12
vt 9.698888E-12 18.30709
vt 9.698888E-12 0
vt -5.213469 18.30709
vt -5.213469 0
vt -57.77559 5.213469
vt -57.77559 7.787548E-12
vt -63.97638 5.213469
vt -63.97638 9.663381E-12
vt -9.699794E-12 0
vt -9.699794E-12 39.37008
vt 5.213469 0
vt 5.213469 39.37008
vt 0 39.37008
vt 0 0
vt -5.213469 39.37008
vt 0 5.213469
vt 63.97638 9.663381E-12
vt 63.97638 5.213469
vt -7.931595E-13 -2.057367E-13
vt -6.200788 -2.057367E-13
vt -7.931595E-13 39.37008
vt -4.92126 18.30709
vt -4.92126 29.52756
vt -9.84252 34.44882
vt -54.13386 34.44882
vt -63.97638 39.37008
vt -59.05512 29.52756
vt -59.05512 18.30709
vt -63.97638 -2.057367E-13
vt -57.77559 18.30709
vt -57.77559 -2.057367E-13
vt -6.200788 18.30709
vt 63.97638 1.706858E-28
vt 57.77559 3.6991E-26
vt 63.97638 39.37008
vt 59.05512 18.30709
vt 59.05512 29.52756
vt 54.13386 34.44882
vt 9.84252 34.44882
vt 4.92126 29.52756
vt 4.92126 18.30709
vt 6.200788 18.30709
vt 6.200788 3.67505E-26
vt 57.77559 18.30709
vt 4.92126 0
vt 4.92126 5.213469
vt 6.200788 0
vt 6.200788 5.213469
vt -9.84252 5.213469
vt -9.84252 0
vt -54.13386 5.213469
vt -54.13386 6.707523E-12
vt 5.213469 24.35899
vt 0 24.35899
vt 5.213469 31.31871
vt 0 31.31871
vt 0 18.30709
vt 5.213469 18.30709
vt -6.200788 5.213469
vt -6.200788 0
vt 9.688248E-12 29.52756
vt 9.688248E-12 18.30709
vt -5.213469 29.52756
vt 0 29.52756
vt 5.213469 29.52756

usemtl metalLight

f 3/3/1 2/2/1 1/1/1
f 2/2/1 3/3/1 4/4/1
f 7/7/2 6/6/2 5/5/2
f 6/6/2 7/7/2 8/8/2
f 5/11/3 9/10/3 7/9/3
f 9/10/3 5/11/3 10/12/3
f 11/15/4 9/14/4 10/13/4
f 9/14/4 11/15/4 12/16/4
f 11/19/5 13/18/5 12/17/5
f 13/18/5 11/19/5 14/20/5
f 17/23/3 16/22/3 15/21/3
f 16/22/3 17/23/3 18/12/3
f 13/25/2 17/24/2 15/22/2
f 17/24/2 13/25/2 14/26/2
f 17/29/6 19/28/6 18/27/6
f 19/28/6 17/29/6 20/30/6
f 20/30/6 17/29/6 21/31/6
f 21/31/6 17/29/6 22/32/6
f 22/32/6 17/29/6 1/33/6
f 14/34/6 1/33/6 17/29/6
f 14/34/6 3/35/6 1/33/6
f 14/34/6 6/36/6 3/35/6
f 11/37/6 6/36/6 14/34/6
f 11/37/6 5/38/6 6/36/6
f 5/38/6 11/37/6 10/39/6
f 23/40/6 19/28/6 20/30/6
f 13/43/7 9/42/7 12/41/7
f 9/42/7 13/43/7 8/44/7
f 8/44/7 13/43/7 4/45/7
f 4/45/7 13/43/7 2/46/7
f 2/46/7 13/43/7 24/47/7
f 15/21/7 24/47/7 13/43/7
f 15/21/7 25/48/7 24/47/7
f 15/21/7 26/49/7 25/48/7
f 16/22/7 26/49/7 15/21/7
f 16/22/7 27/50/7 26/49/7
f 27/50/7 16/22/7 28/51/7
f 7/52/7 9/42/7 8/44/7
f 27/55/2 20/54/2 26/53/2
f 20/54/2 27/55/2 23/56/2
f 1/59/4 24/58/4 22/57/4
f 24/58/4 1/59/4 2/60/4
f 22/63/8 25/62/8 21/61/8
f 25/62/8 22/63/8 24/64/8
f 19/19/5 27/65/5 28/22/5
f 27/65/5 19/19/5 23/66/5
f 19/67/4 16/22/4 18/24/4
f 16/22/4 19/67/4 28/68/4

usemtl metal

f 3/71/3 8/70/3 4/69/3
f 8/70/3 3/71/3 6/11/3
f 20/66/5 25/72/5 26/65/5
f 25/72/5 20/66/5 21/73/5

