# Created by Kenney (www.kenney.nl)

mtllib object_035.mtl

g object_035

v -0.11 0.782463 0.89
v -0.21 0.89 0.89
v -0.11 0.782463 1
v -0.21 0.89 1
v -0.89 0.782463 0.89
v -0.89 0.782463 1
v -0.79 0.89 0.89
v -0.79 0.89 1
v -0.89 0.782463 4.880121E-13
v -0.89 0.782463 0.11
v -0.79 0.89 5.168886E-13
v -0.79 0.89 0.11
v -0.11 0.782463 0
v -0.21 0.89 2.887646E-14
v -0.11 0.782463 0.11
v -0.21 0.89 0.11
v -1 0 6.295068E-13
v -0.89 0 6.295068E-13
v -1 1 6.295068E-13
v 0 1 6.295068E-13
v 0 0 6.295068E-13
v -0.11 0 6.295068E-13
v 0 1 1
v -0.11 1 0.11
v -0.89 1 0.11
v -0.89 1 0.89
v -0.11 1 0.89
v -1 1 1
v 0 0 1
v -0.11 0 1
v -1 0 1
v -0.89 0 1
v 0 0 0.89
v -0.11 0 0.89
v -0.11 0.89 0.21
v -0.11 0.89 0.79
v -0.11 0 0.11
v 6.020741E-13 0.89 0.79
v 5.486527E-14 0.89 0.21
v 6.410574E-13 0.782463 0.89
v -1 0.782463 0.89
v -0.89 0 0.89
v -1 0 0.89
v 7.363497E-14 0.782463 0.11
v 0 0 0.11
v -0.89 0.89 0.11
v -0.89 0 0.11
v -1 0 0.11
v -1 0.782463 0.11
v -0.89 0.89 0.79
v -0.89 0.89 0.21
v -1 0.89 0.79
v -1 0.89 0.21

vn -0.7323034 -0.6809784 0
vn 0.7323034 -0.6809784 0
vn 0 0 -1
vn 0 1 0
vn 0 0 1
vn 0 -1 0
vn -1 0 0
vn 1 0 0
vn 0 -0.6809784 -0.7323034
vn 0 -0.6809784 0.7323034

vt 35.03937 25.50819
vt 35.03937 31.28959
vt 39.37008 25.50819
vt 39.37008 31.28959
vt -35.03937 -1.301984
vt -39.37008 -1.301984
vt -35.03937 4.479415
vt -39.37008 4.479415
vt -2.956112E-11 -1.301984
vt -4.330709 -1.301984
vt -2.953529E-11 4.479415
vt -4.330709 4.479415
vt -1.278972E-12 25.50819
vt -1.304806E-12 31.28959
vt 4.330709 25.50819
vt 4.330709 31.28959
vt 39.37008 -3.971539E-24
vt 35.03937 -4.155859E-24
vt 39.37008 39.37008
vt 35.03937 30.80563
vt 31.10236 35.03937
vt 4.629313E-24 39.37008
vt 8.267716 35.03937
vt 4.330709 30.80563
vt 4.629313E-24 -5.64718E-24
vt 4.330709 -5.46286E-24
vt 5.287361E-12 39.37008
vt 4.330709 4.330709
vt 5.287361E-12 2.004064E-11
vt 39.37008 2.004064E-11
vt 35.03937 4.330709
vt 35.03937 35.03937
vt 4.330709 35.03937
vt -7.353874E-12 -7.213324E-12
vt -4.330709 -7.213324E-12
vt -7.353874E-12 39.37008
vt -4.330709 30.80563
vt -8.267716 35.03937
vt -31.10236 35.03937
vt -39.37008 39.37008
vt -35.03937 30.80563
vt -39.37008 -7.213324E-12
vt -35.03937 -7.213324E-12
vt 0 39.37008
vt 0 35.03937
vt -4.330709 39.37008
vt -4.330709 35.03937
vt 4.330709 39.37008
vt 35.03937 39.37008
vt 39.37008 30.80563
vt 35.03937 -1.798008E-13
vt 39.37008 -1.798008E-13
vt -1.278977E-12 30.80563
vt 2.350475E-11 -1.798008E-13
vt 4.330709 -1.798008E-13
vt 2.370371E-11 31.10236
vt 2.16005E-12 8.267716
vt -4.330709 31.10236
vt -4.330709 8.267716
vt 4.330709 -2.023721E-11
vt -5.656954E-11 -2.023721E-11
vt -8.180801E-11 30.80563
vt 35.03937 -5.62504E-12
vt 39.37008 -5.62504E-12
vt -2.478373E-11 -1.115553E-36
vt -2.478373E-11 39.37008
vt -35.03937 -1.577175E-24
vt -39.37008 -1.772107E-24
vt -4.330709 -1.949317E-25
vt 6.764367E-12 -2.133636E-12
vt -4.330709 -2.133636E-12
vt 9.663381E-12 30.80563
vt -35.03937 35.03937
vt -35.03937 39.37008
vt -35.03937 -6.792473E-13
vt -39.37008 -6.792473E-13
vt -39.37008 30.80563
vt 0 4.330709
vt 0 2.478373E-11
vt -4.330709 4.330709
vt -4.330709 2.478373E-11
vt -8.267716 4.330709
vt -8.267716 1.136868E-12
vt -31.10236 4.330709
vt -31.10236 2.034994E-11
vt -35.03937 31.10236
vt -35.03937 8.267716
vt -39.37008 31.10236
vt -39.37008 8.267716
vt -2.956116E-11 30.80563
vt -3.513182E-11 -1.48708E-12
vt -4.330709 -1.48708E-12
vt -35.03937 -1.48708E-12
vt -39.37008 -1.48708E-12
vt 1.636312E-11 -6.492758E-12
vt 1.636312E-11 39.37008
vt 4.330709 -6.492758E-12
vt 35.03937 -6.492758E-12
vt 39.37008 -6.492758E-12
vt -39.37008 35.03937
vt -35.03937 4.330709
vt -35.03937 2.478373E-11
vt -39.37008 4.330709
vt -39.37008 2.478373E-11
vt -8.267716 39.37008
vt -31.10236 39.37008
vt 35.03937 -1.301984
vt 35.03937 4.479415
vt 39.37008 -1.301984
vt 39.37008 4.479415
vt -35.03937 25.50819
vt -39.37008 25.50819
vt -35.03937 31.28959
vt -39.37008 31.28959
vt -4.330709 25.50819
vt -4.330709 31.28959
vt -5.308543E-12 25.50819
vt -1.350892E-11 31.28959
vt 4.330709 -1.301984
vt -1.947474E-10 -1.301984
vt 4.330709 4.479415
vt -1.741667E-10 4.479415

usemtl metalLight

f 3/3/1 2/2/1 1/1/1
f 2/2/1 3/3/1 4/4/1
f 7/7/2 6/6/2 5/5/2
f 6/6/2 7/7/2 8/8/2
f 11/11/2 10/10/2 9/9/2
f 10/10/2 11/11/2 12/12/2
f 15/15/1 14/14/1 13/13/1
f 14/14/1 15/15/1 16/16/1
f 19/19/3 18/18/3 17/17/3
f 18/18/3 19/19/3 9/20/3
f 9/20/3 19/19/3 11/21/3
f 20/22/3 11/21/3 19/19/3
f 20/22/3 14/23/3 11/21/3
f 20/22/3 13/24/3 14/23/3
f 21/25/3 13/24/3 20/22/3
f 13/24/3 21/25/3 22/26/3
f 20/29/4 24/28/4 23/27/4
f 24/28/4 20/29/4 19/30/4
f 24/28/4 19/30/4 25/31/4
f 25/31/4 19/30/4 26/32/4
f 27/33/4 23/27/4 24/28/4
f 23/27/4 27/33/4 28/19/4
f 28/19/4 27/33/4 26/32/4
f 28/19/4 26/32/4 19/30/4
f 23/36/5 30/35/5 29/34/5
f 30/35/5 23/36/5 3/37/5
f 3/37/5 23/36/5 4/38/5
f 4/38/5 23/36/5 8/39/5
f 28/40/5 8/39/5 23/36/5
f 28/40/5 6/41/5 8/39/5
f 31/42/5 6/41/5 28/40/5
f 6/41/5 31/42/5 32/43/5
f 30/46/6 33/45/6 29/44/6
f 33/45/6 30/46/6 34/47/6
f 35/23/7 24/48/7 15/24/7
f 24/48/7 35/23/7 27/49/7
f 27/49/7 35/23/7 36/21/7
f 27/49/7 36/21/7 1/20/7
f 34/51/7 3/50/7 1/20/7
f 3/50/7 34/51/7 30/52/7
f 22/54/7 15/24/7 13/53/7
f 15/24/7 22/54/7 37/55/7
f 36/58/6 39/57/6 38/56/6
f 39/57/6 36/58/6 35/59/6
f 1/24/3 33/61/3 34/60/3
f 33/61/3 1/24/3 40/62/3
f 2/23/3 27/48/3 1/24/3
f 27/48/3 2/23/3 7/21/3
f 27/48/3 7/21/3 26/49/3
f 26/49/3 7/21/3 5/20/3
f 42/63/3 41/50/3 5/20/3
f 41/50/3 42/63/3 43/64/3
f 20/66/8 44/37/8 21/65/8
f 44/37/8 20/66/8 39/38/8
f 39/38/8 20/66/8 23/40/8
f 39/38/8 23/40/8 38/39/8
f 38/39/8 23/40/8 40/41/8
f 40/41/8 23/40/8 33/67/8
f 33/67/8 23/40/8 29/68/8
f 45/69/8 21/65/8 44/37/8
f 44/72/5 37/71/5 45/70/5
f 37/71/5 44/72/5 15/37/5
f 24/46/5 16/38/5 15/37/5
f 16/38/5 24/46/5 12/39/5
f 12/39/5 24/46/5 46/73/5
f 46/73/5 24/46/5 25/74/5
f 46/73/5 10/41/5 12/39/5
f 10/41/5 48/76/5 47/75/5
f 48/76/5 10/41/5 49/77/5
f 37/80/6 21/79/6 45/78/6
f 21/79/6 37/80/6 22/81/6
f 12/84/6 14/83/6 16/82/6
f 14/83/6 12/84/6 11/85/6
f 52/88/6 51/87/6 50/86/6
f 51/87/6 52/88/6 53/89/6
f 10/37/8 18/91/8 9/90/8
f 18/91/8 10/37/8 47/92/8
f 25/46/8 10/37/8 46/47/8
f 10/37/8 25/46/8 51/38/8
f 51/38/8 25/46/8 26/74/8
f 51/38/8 26/74/8 50/39/8
f 50/39/8 26/74/8 5/41/8
f 6/77/8 42/93/8 5/41/8
f 42/93/8 6/77/8 32/94/8
f 48/97/7 19/96/7 17/95/7
f 19/96/7 48/97/7 49/24/7
f 53/23/7 19/96/7 49/24/7
f 19/96/7 53/23/7 28/19/7
f 28/19/7 53/23/7 52/21/7
f 28/19/7 52/21/7 41/20/7
f 28/19/7 41/20/7 43/98/7
f 28/19/7 43/98/7 31/99/7
f 31/40/6 42/73/6 32/74/6
f 42/73/6 31/40/6 43/100/6
f 48/103/6 18/102/6 47/101/6
f 18/102/6 48/103/6 17/104/6
f 8/106/6 2/38/6 4/105/6
f 2/38/6 8/106/6 7/39/6
f 41/109/9 50/108/9 5/107/9
f 50/108/9 41/109/9 52/110/9
f 51/113/10 49/112/10 10/111/10
f 49/112/10 51/113/10 53/114/10
f 44/117/10 35/116/10 15/115/10
f 35/116/10 44/117/10 39/118/10
f 36/121/9 40/120/9 1/119/9
f 40/120/9 36/121/9 38/122/9

