# Created by Kenney (www.kenney.nl)

mtllib object_057.mtl

g object_057

v -0.02487163 0 0.227217
v -0.02487163 0 0.028083
v -0.2604716 0 0.227217
v -0.2604716 0 0.028083
v -0.05790385 0.1057473 0.028083
v -0.05790385 0.1057473 0.227217
v -3.804266E-09 0.5348198 0
v -3.804266E-09 0.1474453 0
v 0 0.5348198 0.2553
v 0 0.1474453 0.2553
v -0.09012049 0.08254727 0.227217
v -0.1346637 0.1057473 0.227217
v -0.2034307 0.1057473 0.227217
v -0.1346637 0.1057473 0.028083
v -0.09012049 0.08254727 0.028083
v -0.2034307 0.1057473 0.028083
v -0.04730676 0.5348198 0.2553
v -0.04730677 0.5348198 7.049263E-10
v -0.2910731 0.187212 4.337327E-09
v -0.1161 0.2317288 1.730025E-09
v -0.2910731 0.2427121 4.337327E-09
v -0.09012049 0.08254727 1.342901E-09
v -0.09012049 0.08254727 0.2553
v -0.2910731 0.187212 0.2553
v -0.1161 0.2317288 0.2553
v -0.2910731 0.2427121 0.2553
v -0.1525887 0.2340193 0.2187395
v -0.1525887 0.2340193 0.03656048
v -0.2545844 0.2404216 0.03656048
v -0.2545844 0.2404216 0.2187395
v -0.05539916 0.4991662 0.03656048
v -0.1080076 0.2673825 0.03656048
v -0.1080076 0.2673825 0.2187395
v -0.05539915 0.4991662 0.2187395

vn 0 -1 0
vn 0.9545154 0.2981615 0
vn 1 0 0
vn 0 0 1
vn 0 0 -1
vn -0.8801232 0.4747453 0
vn 0 1 0
vn 0.5843714 -0.8114863 0
vn 0.06264757 0.9980357 0
vn -0.9751961 0.2213425 0
vn -0.4619412 -0.8869105 0
vn -1 0 0

vt -0.979198 8.945551
vt -0.9791981 1.10563
vt -10.25479 8.945551
vt -10.25479 1.10563
vt -1.10563 0.2919592
vt -8.945551 0.2919592
vt -1.10563 4.653626
vt -8.945551 4.653626
vt 2.23181E-15 21.0559
vt 2.23181E-15 5.804932
vt -10.05118 21.0559
vt -10.05118 5.804932
vt -2.279679 4.163279
vt -3.548051 3.249892
vt -5.301719 4.163279
vt -0.9791982 1.870378E-14
vt -10.25479 1.870378E-14
vt -8.009084 4.163279
vt 5.301719 4.163279
vt 3.548051 3.249892
vt 2.279679 4.163279
vt 8.009084 4.163279
vt 0.9791982 7.332735E-15
vt 10.25479 7.332735E-15
vt 1.10563 -0.1380769
vt 8.945551 -0.1380769
vt 1.10563 -4.868412
vt 8.945551 -4.868412
vt 2.279679 8.945551
vt 5.301719 8.945551
vt 2.279679 1.10563
vt 5.301719 1.10563
vt 8.009084 8.945551
vt 8.009084 1.10563
vt 0 10.05118
vt 1.862471 10.05118
vt 1.497743E-07 0
vt 1.862471 2.7753E-08
vt 11.45957 7.370553
vt 4.570867 9.123182
vt 11.45957 9.555593
vt 1.497743E-07 5.804932
vt 1.497743E-07 21.0559
vt 1.862471 21.0559
vt -11.45957 7.370553
vt -1.497743E-07 5.804932
vt -4.570867 9.123182
vt -1.497743E-07 21.0559
vt -1.862471 21.0559
vt -11.45957 9.555593
vt 2.23181E-15 3.392236
vt -8.945551 0.5829722
vt -10.05118 3.392236
vt -10.05118 -0.9800505
vt -8.945551 -0.9800505
vt -1.10563 0.5829722
vt -4.541794E-14 -0.9800505
vt -1.10563 -0.9800505
vt -8.611793 6.572822
vt -1.439389 6.572822
vt 6.918773E-15 5.133433
vt -2.333346E-14 12.0357
vt -1.439389 10.59631
vt -10.05118 12.0357
vt -10.05118 5.133433
vt -8.611793 10.59631
vt 1.439389 18.682
vt 1.439389 9.324554
vt -6.918773E-15 7.885166
vt 10.05118 7.885166
vt 8.611793 9.324554
vt 10.05118 20.12139
vt 2.137593E-14 20.12139
vt 8.611793 18.682
vt 10.05118 4.648063
vt 8.945551 4.648063
vt 10.05118 13.56838
vt 8.945551 6.62534
vt 1.10563 6.62534
vt 2.331363E-14 13.56838
vt 4.542518E-14 4.648063
vt 1.10563 4.648063
vt 2.333346E-14 7.370553
vt 2.333346E-14 9.555593
vt 10.05118 7.370553
vt 10.05118 9.555593

usemtl metalLight

f 3/3/1 2/2/1 1/1/1
f 2/2/1 3/3/1 4/4/1
f 5/7/2 1/6/2 2/5/2
f 1/6/2 5/7/2 6/8/2
f 9/11/3 8/10/3 7/9/3
f 8/10/3 9/11/3 10/12/3
f 12/15/4 11/14/4 6/13/4
f 11/14/4 1/16/4 6/13/4
f 1/16/4 11/14/4 3/17/4
f 11/14/4 13/18/4 3/17/4
f 13/18/4 11/14/4 12/15/4
f 5/21/5 15/20/5 14/19/5
f 15/20/5 16/22/5 14/19/5
f 2/23/5 16/22/5 15/20/5
f 5/21/5 2/23/5 15/20/5
f 16/22/5 2/23/5 4/24/5
f 4/27/6 13/26/6 16/25/6
f 13/26/6 4/27/6 3/28/6
f 5/31/7 12/30/7 6/29/7
f 12/30/7 5/31/7 14/32/7
f 14/32/7 13/33/7 12/30/7
f 13/33/7 14/32/7 16/34/7
f 7/37/7 17/36/7 9/35/7
f 17/36/7 7/37/7 18/38/7
f 21/41/5 20/40/5 19/39/5
f 8/42/5 19/39/5 20/40/5
f 19/39/5 8/42/5 22/20/5
f 8/42/5 20/40/5 7/43/5
f 7/43/5 20/40/5 18/44/5
f 10/46/4 24/45/4 23/14/4
f 24/45/4 10/46/4 25/47/4
f 25/47/4 10/46/4 9/48/4
f 25/47/4 9/48/4 17/49/4
f 26/50/4 24/45/4 25/47/4
f 10/53/8 6/52/8 8/51/8
f 6/52/8 10/53/8 23/54/8
f 6/52/8 23/54/8 11/55/8
f 5/56/8 8/51/8 6/52/8
f 11/55/8 5/56/8 6/52/8
f 8/51/8 5/56/8 22/57/8
f 22/57/8 5/56/8 15/58/8
f 5/56/8 11/55/8 15/58/8
f 20/61/9 28/60/9 27/59/9
f 28/60/9 20/61/9 21/62/9
f 28/60/9 21/62/9 29/63/9
f 29/63/9 21/62/9 26/64/9
f 25/65/9 27/59/9 26/64/9
f 27/59/9 25/65/9 20/61/9
f 26/64/9 27/59/9 30/66/9
f 26/64/9 30/66/9 29/63/9
f 20/69/10 32/68/10 31/67/10
f 32/68/10 20/69/10 25/70/10
f 32/68/10 25/70/10 33/71/10
f 33/71/10 25/70/10 17/72/10
f 18/73/10 31/67/10 17/72/10
f 31/67/10 18/73/10 20/69/10
f 17/72/10 31/67/10 34/74/10
f 17/72/10 34/74/10 33/71/10
f 24/77/11 11/76/11 23/75/11
f 11/76/11 24/77/11 12/78/11
f 12/78/11 24/77/11 14/79/11
f 19/80/11 14/79/11 24/77/11
f 22/81/11 14/79/11 19/80/11
f 14/79/11 22/81/11 15/82/11
f 12/78/11 15/82/11 11/76/11
f 15/82/11 12/78/11 14/79/11
f 24/85/12 21/84/12 19/83/12
f 21/84/12 24/85/12 26/86/12

usemtl metalRed

f 28/60/9 30/66/9 27/59/9
f 30/66/9 28/60/9 29/63/9
f 32/68/10 34/74/10 31/67/10
f 34/74/10 32/68/10 33/71/10

