# Created by Kenney (www.kenney.nl)

mtllib object_006.mtl

g object_006

v 0 0 0
v 0 0.6175779 0.1324221
v 0 1 0
v 0 1 1
v 0 0.6175779 0.8675779
v 0 0.2574221 0.8675779
v 0 0.2574221 0.1324221
v 0 0 1
v -0.1875 0 1
v -0.1875 0 0
v -0.25 1 0
v -0.25 1 1
v -0.125 0.125 1
v -0.125 0.75 1
v -0.25 0.875 1
v -0.1875 0.125 1
v -0.1875 0.125 0
v -0.125 0.125 0
v -0.125 0.75 0
v -0.25 0.875 0
v -0.15625 0.2574221 0.1324221
v -0.15625 0.2574221 0.8675779
v -0.15625 0.6175779 0.8675779
v -0.15625 0.6175779 0.1324221
v -0.15625 0.2099722 0.1324221
v -0.15625 0.2099722 0.8675779
v -0.15625 0.2574221 0.9150279
v -0.15625 0.6650278 0.8675779
v -0.15625 0.6175779 0.9150279
v -0.15625 0.6650278 0.1324221
v -0.15625 0.6175779 0.08497217
v -0.15625 0.2574221 0.08497217
v -0.125 0.6175779 0.08497217
v -0.125 0.6650278 0.1324221
v -0.125 0.2574221 0.08497217
v -0.125 0.2099722 0.1324221
v -0.125 0.2099722 0.8675779
v -0.125 0.2574221 0.9150279
v -0.125 0.6175779 0.9150279
v -0.125 0.6650278 0.8675779

vn 1 0 0
vn 0 -1 0
vn 0 1 0
vn 0 0 1
vn 0 0 -1
vn -0.7071068 -0.7071068 0
vn -1 0 0
vn 0 0.7071068 -0.7071068
vn 0 -0.7071068 -0.7071068
vn 0 -0.7071068 0.7071068
vn 0 0.7071068 0.7071068

vt 0 0
vt -5.213469 24.31409
vt 0 39.37008
vt -39.37008 39.37008
vt -34.15661 24.31409
vt -34.15661 10.13473
vt -5.213469 10.13473
vt -39.37008 0
vt -7.38189 39.37008
vt -7.38189 0
vt 9.84252 0
vt 9.84252 39.37008
vt -4.92126 4.92126
vt -4.92126 29.52756
vt -9.84252 34.44882
vt -9.84252 39.37008
vt -7.38189 4.92126
vt 7.38189 0
vt 7.38189 4.92126
vt 4.92126 4.92126
vt 4.92126 29.52756
vt 9.84252 34.44882
vt 39.37008 24.35899
vt 0 24.35899
vt 39.37008 31.31871
vt 0 31.31871
vt 4.92126 0
vt 4.92126 39.37008
vt 7.38189 39.37008
vt 0 4.92126
vt 39.37008 0
vt 39.37008 4.92126
vt 0 34.44882
vt 39.37008 34.44882
vt 39.37008 39.37008
vt 0 5.213469
vt 0 34.15661
vt 6.151575 5.213469
vt 6.151575 34.15661
vt 6.151575 10.13473
vt 0 10.13473
vt 6.151575 24.31409
vt 0 24.31409
vt -6.151575 34.15661
vt -6.151575 5.213469
vt -6.151575 10.13473
vt -6.151575 24.31409
vt 5.213469 8.266621
vt 5.213469 10.13473
vt 34.15661 8.266621
vt 34.15661 10.13473
vt 36.02472 10.13473
vt 34.15661 24.31409
vt 34.15661 26.1822
vt 36.02472 24.31409
vt 5.213469 26.1822
vt 3.345361 24.31409
vt 3.345361 10.13473
vt 5.213469 24.31409
vt 6.151575 19.55819
vt 4.92126 19.55819
vt 6.151575 22.20009
vt 4.92126 22.20009
vt 4.92126 10.13473
vt 4.92126 24.31409
vt 6.151575 2.158904
vt 4.92126 2.158904
vt 6.151575 4.800808
vt 4.92126 4.800808
vt -4.92126 34.15661
vt -4.92126 5.213469
vt -4.92126 32.63966
vt -4.92126 29.99775
vt -6.151575 32.63966
vt -6.151575 29.99775
vt -4.92126 10.13473
vt -4.92126 24.31409
vt -4.92126 -8.280664
vt -6.151575 -8.280664
vt -4.92126 -5.638761
vt -6.151575 -5.638761
vt 4.92126 5.213469
vt 4.92126 34.15661
vt 0 29.52756
vt 39.37008 29.52756

usemtl metalLight

f 3/3/1 2/2/1 1/1/1
f 2/2/1 3/3/1 4/4/1
f 2/2/1 4/4/1 5/5/1
f 5/5/1 4/4/1 6/6/1
f 7/7/1 1/1/1 2/2/1
f 1/1/1 7/7/1 8/8/1
f 8/8/1 7/7/1 6/6/1
f 8/8/1 6/6/1 4/4/1
f 9/9/2 1/1/2 8/3/2
f 1/1/2 9/9/2 10/10/2
f 11/11/3 4/3/3 3/1/3
f 4/3/3 11/11/3 12/12/3
f 8/1/4 13/13/4 9/10/4
f 13/13/4 8/1/4 4/3/4
f 13/13/4 4/3/4 14/14/4
f 14/14/4 4/3/4 15/15/4
f 15/15/4 4/3/4 12/16/4
f 16/17/4 9/10/4 13/13/4
f 17/19/5 1/1/5 10/18/5
f 1/1/5 17/19/5 18/20/5
f 1/1/5 18/20/5 3/3/5
f 3/3/5 18/20/5 19/21/5
f 3/3/5 19/21/5 20/22/5
f 3/3/5 20/22/5 11/12/5
f 15/25/6 19/24/6 14/23/6
f 19/24/6 15/25/6 20/26/6
f 17/18/3 13/28/3 18/27/3
f 13/28/3 17/18/3 16/29/3
f 9/31/7 17/30/7 10/1/7
f 17/30/7 9/31/7 16/32/7
f 15/34/7 11/3/7 20/33/7
f 11/3/7 15/34/7 12/35/7
f 21/38/3 6/37/3 7/36/3
f 6/37/3 21/38/3 22/39/3
f 23/42/5 6/41/5 22/40/5
f 6/41/5 23/42/5 5/43/5
f 23/44/2 2/36/2 5/37/2
f 2/36/2 23/44/2 24/45/2
f 2/43/4 21/46/4 7/41/4
f 21/46/4 2/43/4 24/47/4
f 26/50/7 21/49/7 25/48/7
f 21/49/7 26/50/7 22/51/7
f 22/51/7 26/50/7 27/52/7
f 22/51/7 27/52/7 23/53/7
f 23/53/7 27/52/7 28/54/7
f 28/54/7 27/52/7 29/55/7
f 30/56/7 25/48/7 21/49/7
f 30/56/7 23/53/7 28/54/7
f 31/57/7 25/48/7 30/56/7
f 25/48/7 31/57/7 32/58/7
f 30/56/7 21/49/7 24/59/7
f 30/56/7 24/59/7 23/53/7
f 30/62/8 33/61/8 31/60/8
f 33/61/8 30/62/8 34/63/8
f 31/42/5 35/64/5 32/40/5
f 35/64/5 31/42/5 33/65/5
f 32/68/9 36/67/9 25/66/9
f 36/67/9 32/68/9 35/69/9
f 26/44/2 36/71/2 37/70/2
f 36/71/2 26/44/2 25/45/2
f 27/74/10 37/73/10 38/72/10
f 37/73/10 27/74/10 26/75/10
f 39/77/4 27/46/4 38/76/4
f 27/46/4 39/77/4 29/47/4
f 40/80/11 29/79/11 39/78/11
f 29/79/11 40/80/11 28/81/11
f 30/38/3 40/83/3 34/82/3
f 40/83/3 30/38/3 28/39/3

usemtl metal

f 18/30/7 35/58/7 19/84/7
f 35/58/7 18/30/7 36/48/7
f 36/48/7 18/30/7 13/32/7
f 36/48/7 13/32/7 37/50/7
f 37/50/7 13/32/7 38/52/7
f 38/52/7 13/32/7 39/55/7
f 33/57/7 19/84/7 35/58/7
f 34/56/7 19/84/7 33/57/7
f 19/84/7 34/56/7 14/85/7
f 14/85/7 39/55/7 13/32/7
f 14/85/7 34/56/7 40/54/7
f 14/85/7 40/54/7 39/55/7

