# Created by Kenney (www.kenney.nl)

mtllib object_041.mtl

g object_041

v 0 1 0
v 0 1 1
v -0.25 1 0
v -0.25 1 1
v -0.1875 0 0
v 0 0 0
v -0.1875 0.125 0
v -0.125 0.125 0
v -0.125 0.28125 0
v -0.125 0.4375 0
v -0.125 0.75 0
v -0.25 0.875 0
v -0.125 0.75 1
v -0.25 0.875 1
v -0.1875 1.037748E-15 0.08497217
v -0.1875 0.125 0.08497217
v 1.443823E-15 0 0.1324221
v -0.15625 1.082867E-15 0.1324221
v 0 0.2099722 0.1324221
v -0.15625 0.125 0.1324221
v -0.15625 0.6175779 0.1324221
v 0 0.6175779 0.1324221
v -0.15625 0.6175779 0.08497217
v -0.125 0.6175779 0.08497217
v -0.15625 0.6650278 0.1324221
v -0.125 0.6650278 0.1324221
v -0.15625 0.125 0.08497217
v -0.125 0.125 0.08497217
v -0.125 0.28125 0.08497217
v -0.125 0.4375 0.08497217
v -0.15625 1.082867E-15 0.08497217
v -0.15625 0.6175779 1
v -0.15625 0.6650278 1
v -0.125 0.6650278 1
v 0 0.6175779 1

vn 0 1 0
vn 0 0 -1
vn -0.7071068 -0.7071068 0
vn -1 0 0
vn 0 0 1
vn 0 0.7071068 -0.7071068
vn 0 -1 0
vn -0.8351508 0 0.5500209
vn 1 0 0

vt 0 0
vt 0 39.37008
vt 9.84252 0
vt 9.84252 39.37008
vt 7.38189 0
vt 7.38189 4.92126
vt 4.92126 4.92126
vt 4.92126 11.07283
vt 4.92126 17.22441
vt 4.92126 29.52756
vt 9.84252 34.44882
vt 39.37008 24.35899
vt 0 24.35899
vt 39.37008 31.31871
vt 0 31.31871
vt 0 4.92126
vt 3.345361 4.085621E-14
vt 3.345361 4.92126
vt 0 34.44882
vt 39.37008 34.44882
vt 39.37008 39.37008
vt 5.684342E-14 0
vt -6.151575 4.263256E-14
vt 0 8.266621
vt -6.151575 4.92126
vt -6.151575 24.31409
vt 0 24.31409
vt 6.151575 19.55819
vt 4.92126 19.55819
vt 6.151575 22.20009
vt 4.92126 22.20009
vt 6.151575 4.92126
vt 6.151575 24.31409
vt 4.92126 24.31409
vt 4.92126 2.76261E-15
vt 4.92126 3.345361
vt 7.38189 2.76261E-15
vt 6.151575 3.345361
vt 6.151575 5.213469
vt 7.38189 3.345361
vt 5.684342E-14 5.213469
vt -6.151575 5.213469
vt -6.151575 3.345361
vt -7.38189 -1.531728E-28
vt -7.38189 3.345361
vt -1.266313 4.082488E-14
vt -1.266313 4.92126
vt 0.9705381 4.260124E-14
vt 0.9705381 4.92126
vt 3.345361 4.263256E-14
vt 5.213469 4.263256E-14
vt 5.213469 4.92126
vt 3.345361 24.31409
vt 5.213469 26.1822
vt 5.213469 24.31409
vt 39.37008 24.31409
vt 39.37008 26.1822
vt 4.92126 5.213469
vt 4.92126 39.37008
vt 6.151575 39.37008
vt 0 5.213469
vt -6.151575 39.37008
vt -4.92126 26.1822
vt -4.92126 29.52756
vt -9.84252 34.44882
vt -9.84252 39.37008
vt -6.151575 26.1822
vt -5.213469 24.31409
vt -39.37008 39.37008
vt -39.37008 24.31409
vt -5.213469 -3.695515E-29
vt -5.213469 8.266621
vt 0 17.22441
vt 0 29.52756
vt 3.345361 17.22441
vt 39.37008 29.52756
vt 0 11.07283
vt 3.345361 11.07283

usemtl metalLight

f 3/3/1 2/2/1 1/1/1
f 2/2/1 3/3/1 4/4/1
f 7/6/2 6/1/2 5/5/2
f 6/1/2 7/6/2 8/7/2
f 6/1/2 8/7/2 1/2/2
f 1/2/2 8/7/2 9/8/2
f 1/2/2 9/8/2 10/9/2
f 1/2/2 10/9/2 11/10/2
f 1/2/2 11/10/2 12/11/2
f 1/2/2 12/11/2 3/4/2
f 14/14/3 11/13/3 13/12/3
f 11/13/3 14/14/3 12/15/3
f 15/17/4 7/16/4 5/1/4
f 7/16/4 15/17/4 16/18/4
f 14/20/4 3/2/4 12/19/4
f 3/2/4 14/20/4 4/21/4
f 19/24/5 18/23/5 17/22/5
f 18/23/5 19/24/5 20/25/5
f 20/25/5 19/24/5 21/26/5
f 21/26/5 19/24/5 22/27/5
f 25/30/6 24/29/6 23/28/6
f 24/29/6 25/30/6 26/31/6
f 23/33/2 28/7/2 27/32/2
f 28/7/2 23/33/2 29/8/2
f 29/8/2 23/33/2 30/9/2
f 30/9/2 23/33/2 24/34/2
f 7/37/1 28/36/1 8/35/1
f 28/36/1 7/37/1 27/38/1
f 27/38/1 7/37/1 20/39/1
f 20/39/1 7/37/1 16/40/1
f 18/42/7 6/1/7 17/41/7
f 6/1/7 18/42/7 31/43/7
f 6/1/7 31/43/7 5/44/7
f 5/44/7 31/43/7 15/45/7
f 15/45/7 31/43/7 18/42/7
f 18/48/8 16/47/8 15/46/8
f 16/47/8 18/48/8 20/49/8
f 18/51/4 27/18/4 31/50/4
f 27/18/4 18/51/4 20/52/4
f 20/52/4 23/53/4 27/18/4
f 23/53/4 20/52/4 25/54/4
f 25/54/4 20/52/4 21/55/4
f 25/54/4 21/55/4 32/56/4
f 25/54/4 32/56/4 33/57/4
f 25/39/1 34/59/1 26/58/1
f 34/59/1 25/39/1 33/60/1
f 32/62/7 22/61/7 35/2/7
f 22/61/7 32/62/7 21/42/7
f 35/27/5 34/63/5 32/26/5
f 34/63/5 35/27/5 2/2/5
f 34/63/5 2/2/5 13/64/5
f 13/64/5 2/2/5 14/65/5
f 14/65/5 2/2/5 4/66/5
f 33/67/5 32/26/5 34/63/5
f 1/2/9 22/68/9 6/1/9
f 22/68/9 1/2/9 2/69/9
f 22/68/9 2/69/9 35/70/9
f 22/68/9 17/71/9 6/1/9
f 17/71/9 22/68/9 19/72/9

usemtl metal

f 30/75/4 11/74/4 10/73/4
f 11/74/4 30/75/4 24/53/4
f 11/74/4 24/53/4 26/54/4
f 11/74/4 26/54/4 13/76/4
f 13/76/4 26/54/4 34/57/4
f 28/18/4 9/77/4 8/16/4
f 9/77/4 28/18/4 29/78/4

usemtl metalRed

f 29/78/4 10/73/4 9/77/4
f 10/73/4 29/78/4 30/75/4

