# Created by Kenney (www.kenney.nl)

mtllib object_005.mtl

g object_005

v 0 0 0
v 0 0.6175779 0.1324221
v 0 1 0
v 0 1 1
v 0 0.6175779 0.8675779
v 0 0.2099722 0.8675779
v 0 -4.511946E-17 0.8675779
v 0 0 1
v 1.443823E-15 0 0.1324221
v 0 0.2099722 0.1324221
v -0.1875 0 1
v -0.15625 1.037748E-15 0.9150279
v -0.1875 1.037748E-15 0.9150279
v -0.15625 1.037748E-15 0.8675779
v -0.25 1 0
v -0.25 1 1
v -0.125 0.125 1
v -0.125 0.75 1
v -0.25 0.875 1
v -0.1875 0.125 1
v -0.1875 0 0
v -0.1875 0.125 0
v -0.125 0.125 0
v -0.125 0.75 0
v -0.25 0.875 0
v -0.1875 1.037748E-15 0.08497217
v -0.1875 0.125 0.08497217
v -0.15625 0.125 0.8675779
v -0.15625 0.6175779 0.8675779
v -0.15625 0.6175779 0.1324221
v -0.15625 1.082867E-15 0.1324221
v -0.15625 0.125 0.1324221
v -0.15625 0.6175779 0.08497217
v -0.125 0.6175779 0.08497217
v -0.15625 0.6650278 0.1324221
v -0.125 0.6650278 0.1324221
v -0.15625 0.125 0.08497217
v -0.125 0.125 0.08497217
v -0.125 0.125 0.9150279
v -0.15625 0.125 0.9150279
v -0.125 0.6175779 0.9150279
v -0.15625 0.6175779 0.9150279
v -0.125 0.6650278 0.8675779
v -0.15625 0.6650278 0.8675779
v -0.15625 1.082867E-15 0.08497217
v -0.1875 0.125 0.9150279

vn 1 0 0
vn 0 -1 0
vn 0 1 0
vn 0 0 1
vn 0 0 -1
vn -0.7071068 -0.7071068 0
vn -1 0 0
vn 0 0.7071068 -0.7071068
vn 0 0.7071068 0.7071068
vn -0.8351508 0 0.5500209
vn -0.8351508 0 -0.5500209

vt 0 0
vt -5.213469 24.31409
vt 0 39.37008
vt -39.37008 39.37008
vt -34.15661 24.31409
vt -34.15661 8.266621
vt -34.15661 -1.776357E-15
vt -39.37008 -4.019634E-30
vt -5.213469 -2.033292E-29
vt -5.213469 8.266621
vt 7.346523E-30 34.15661
vt -7.38189 39.37008
vt -6.151575 36.02472
vt -7.38189 36.02472
vt -6.151575 34.15661
vt 9.84252 0
vt 9.84252 39.37008
vt -7.38189 0
vt -4.92126 4.92126
vt -4.92126 29.52756
vt -9.84252 34.44882
vt -9.84252 39.37008
vt -7.38189 4.92126
vt 7.38189 0
vt 7.38189 4.92126
vt 4.92126 4.92126
vt 4.92126 29.52756
vt 9.84252 34.44882
vt 39.37008 24.35899
vt 0 24.35899
vt 39.37008 31.31871
vt 0 31.31871
vt 0 4.92126
vt 3.345361 4.085621E-14
vt 3.345361 4.92126
vt 0 34.44882
vt 39.37008 34.44882
vt 39.37008 39.37008
vt 0 -1.776357E-15
vt 0 8.266621
vt 6.151575 4.085621E-14
vt 6.151575 4.92126
vt 6.151575 24.31409
vt 0 24.31409
vt 0 34.15661
vt 0 5.213469
vt -6.151575 5.213469
vt 5.684342E-14 0
vt -6.151575 4.263256E-14
vt -6.151575 4.92126
vt -6.151575 24.31409
vt 6.151575 19.55819
vt 4.92126 19.55819
vt 6.151575 22.20009
vt 4.92126 22.20009
vt 4.92126 24.31409
vt -4.92126 24.31409
vt -4.92126 -8.280664
vt -6.151575 -8.280664
vt -4.92126 -5.638761
vt -6.151575 -5.638761
vt 4.92126 5.213469
vt 4.92126 34.15661
vt 6.151575 5.213469
vt 6.151575 34.15661
vt 34.15661 4.92126
vt 34.15661 24.31409
vt 36.02472 4.92126
vt 34.15661 26.1822
vt 36.02472 24.31409
vt 5.213469 26.1822
vt 5.213469 24.31409
vt 5.213469 4.92126
vt 3.345361 24.31409
vt 5.213469 4.263256E-14
vt 3.345361 4.263256E-14
vt 36.02472 4.085621E-14
vt 34.15661 4.085621E-14
vt 6.151575 36.02472
vt 7.38189 36.02472
vt 7.38189 39.37008
vt 4.92126 39.37008
vt 4.92126 36.02472
vt 4.92126 2.76261E-15
vt 4.92126 3.345361
vt 7.38189 2.76261E-15
vt 6.151575 3.345361
vt 7.38189 3.345361
vt 39.37008 0
vt 39.37008 4.92126
vt 5.684342E-14 5.213469
vt -6.151575 3.345361
vt -7.38189 -1.531728E-28
vt -7.38189 3.345361
vt -1.266313 4.082488E-14
vt -1.266313 4.92126
vt 0.9705381 4.260124E-14
vt 0.9705381 4.92126
vt 31.90942 4.085621E-14
vt 31.90942 4.92126
vt 34.14627 4.085621E-14
vt 34.14627 4.92126
vt 39.37008 29.52756
vt 0 29.52756

usemtl metalLight

f 3/3/1 2/2/1 1/1/1
f 2/2/1 3/3/1 4/4/1
f 2/2/1 4/4/1 5/5/1
f 5/5/1 4/4/1 6/6/1
f 6/6/1 4/4/1 7/7/1
f 7/7/1 4/4/1 8/8/1
f 2/2/1 9/9/1 1/1/1
f 9/9/1 2/2/1 10/10/1
f 11/12/2 7/11/2 8/3/2
f 7/11/2 11/12/2 12/13/2
f 12/13/2 11/12/2 13/14/2
f 14/15/2 7/11/2 12/13/2
f 13/14/2 14/15/2 12/13/2
f 15/16/3 4/3/3 3/1/3
f 4/3/3 15/16/3 16/17/3
f 8/1/4 17/19/4 11/18/4
f 17/19/4 8/1/4 4/3/4
f 17/19/4 4/3/4 18/20/4
f 18/20/4 4/3/4 19/21/4
f 19/21/4 4/3/4 16/22/4
f 20/23/4 11/18/4 17/19/4
f 22/25/5 1/1/5 21/24/5
f 1/1/5 22/25/5 23/26/5
f 1/1/5 23/26/5 3/3/5
f 3/3/5 23/26/5 24/27/5
f 3/3/5 24/27/5 25/28/5
f 3/3/5 25/28/5 15/17/5
f 19/31/6 24/30/6 18/29/6
f 24/30/6 19/31/6 25/32/6
f 26/34/7 22/33/7 21/1/7
f 22/33/7 26/34/7 27/35/7
f 19/37/7 15/3/7 25/36/7
f 15/3/7 19/37/7 16/38/7
f 14/41/5 6/40/5 7/39/5
f 6/40/5 14/41/5 28/42/5
f 6/40/5 28/42/5 29/43/5
f 6/40/5 29/43/5 5/44/5
f 29/15/2 2/46/2 5/45/2
f 2/46/2 29/15/2 30/47/2
f 10/40/4 31/49/4 9/48/4
f 31/49/4 10/40/4 32/50/4
f 32/50/4 10/40/4 30/51/4
f 30/51/4 10/40/4 2/44/4
f 35/54/8 34/53/8 33/52/8
f 34/53/8 35/54/8 36/55/8
f 33/43/5 38/26/5 37/42/5
f 38/26/5 33/43/5 34/56/5
f 41/57/4 40/50/4 39/19/4
f 40/50/4 41/57/4 42/51/4
f 43/60/9 42/59/9 41/58/9
f 42/59/9 43/60/9 44/61/9
f 35/64/3 43/63/3 36/62/3
f 43/63/3 35/64/3 44/65/3
f 40/68/7 29/67/7 28/66/7
f 29/67/7 40/68/7 44/69/7
f 44/69/7 40/68/7 42/70/7
f 35/71/7 29/67/7 44/69/7
f 35/71/7 30/72/7 29/67/7
f 35/71/7 32/73/7 30/72/7
f 33/74/7 32/73/7 35/71/7
f 32/73/7 33/74/7 37/35/7
f 37/35/7 31/75/7 32/73/7
f 31/75/7 37/35/7 45/76/7
f 28/66/7 12/77/7 40/68/7
f 12/77/7 28/66/7 14/78/7
f 46/80/3 40/79/3 28/65/3
f 20/81/3 40/79/3 46/80/3
f 17/82/3 40/79/3 20/81/3
f 40/79/3 17/82/3 39/83/3
f 22/86/3 38/85/3 23/84/3
f 38/85/3 22/86/3 37/87/3
f 37/87/3 22/86/3 32/64/3
f 32/64/3 22/86/3 27/88/3
f 11/89/7 46/68/7 13/77/7
f 46/68/7 11/89/7 20/90/7
f 31/47/2 1/1/2 9/91/2
f 1/1/2 31/47/2 45/92/2
f 1/1/2 45/92/2 21/93/2
f 21/93/2 45/92/2 26/94/2
f 26/94/2 45/92/2 31/47/2
f 31/97/10 27/96/10 26/95/10
f 27/96/10 31/97/10 32/98/10
f 13/101/11 28/100/11 14/99/11
f 28/100/11 13/101/11 46/102/11

usemtl metal

f 17/90/7 41/70/7 39/68/7
f 18/103/7 41/70/7 17/90/7
f 18/103/7 43/69/7 41/70/7
f 18/103/7 36/71/7 43/69/7
f 24/104/7 36/71/7 18/103/7
f 24/104/7 34/74/7 36/71/7
f 24/104/7 38/35/7 34/74/7
f 38/35/7 24/104/7 23/33/7

