# Created by Kenney (www.kenney.nl)

mtllib object_068.mtl

g object_068

v -0.12375 0.09375 0.05
v -0.12375 0.09375 0.53
v -0.165 0.09375 0.05
v -0.165 0.09375 0.53
v -0.14 0.1875 0.53
v -0.14 0.1875 0.58
v -0.28 0.09375 0.53
v -0.28 0.09375 0.58
v 0 0.1875 0
v 0 0.1875 0.05
v -0.14 0.1875 0
v -0.14 0.1875 0.05
v -0.28 0.09375 0
v -0.28 0.09375 0.05
v -0.04125 0.140625 0.05
v -0.04125 0.140625 0.53
v -0.0825 0.140625 0.05
v -0.0825 0.140625 0.53
v -0.20625 0.046875 0.05
v -0.20625 0.046875 0.53
v -0.2475 0.046875 0.05
v -0.2475 0.046875 0.53
v 0 0.1875 0.53
v 0 0.1875 0.58
v -0.0825 0.09375 0.53
v -0.0825 0.09375 0.05
v 0 0.140625 0.05
v 0 0.140625 0.53
v -0.165 0.046875 0.05
v -0.165 0.046875 0.53
v -0.28 0 0.05
v -0.2475 0 0.05
v 0 0 0
v -0.28 0 0
v -0.28 0 0.58
v 0 0 0.58
v 0 0 0.53
v 0 0 0.05
v -0.2475 0 0.53
v -0.28 0 0.53

vn 0 1 0
vn -0.556411 0.8309072 0
vn 0 -1 0
vn -1 0 0
vn 1 0 0
vn 0.556411 -0.8309072 0
vn 0 0 1
vn 0 0 -1

vt 4.872047 1.968504
vt 4.872047 20.86614
vt 6.496063 1.968504
vt 6.496063 20.86614
vt 20.86614 -0.4724382
vt 22.83465 -0.4724382
vt 20.86614 -7.105924
vt 22.83465 -7.105924
vt 0 0
vt 0 1.968504
vt 5.511811 0
vt 5.511811 1.968504
vt -5.812053E-28 -0.4724382
vt 1.968504 -0.4724382
vt -1.162411E-27 -7.105924
vt 1.968504 -7.105924
vt 1.624016 1.968504
vt 1.624016 20.86614
vt 3.248031 1.968504
vt 3.248031 20.86614
vt 8.120079 1.968504
vt 8.120079 20.86614
vt 9.744095 1.968504
vt 9.744095 20.86614
vt 0 20.86614
vt 0 22.83465
vt 5.511811 20.86614
vt 5.511811 22.83465
vt 1.968504 3.690945
vt 1.968504 5.536417
vt 20.86614 3.690945
vt 20.86614 5.536417
vt 1.968504 1.845472
vt 20.86614 1.845472
vt -6.496063 1.845472
vt -8.120079 1.845472
vt -6.496063 3.690945
vt -9.744095 1.845472
vt -11.02362 3.690945
vt -3.248031 5.536417
vt -4.872047 3.690945
vt -3.248031 3.690945
vt -5.511811 7.38189
vt 8.090896E-15 7.38189
vt -1.624016 5.536417
vt 8.090896E-15 5.536417
vt -11.02362 -1.340912E-14
vt -9.744095 -1.340912E-14
vt -11.02362 -5.583118E-31
vt 0 7.38189
vt 11.02362 0
vt 11.02362 3.690945
vt 5.511811 7.38189
vt -20.86614 7.38189
vt -20.86614 5.536417
vt -22.83465 7.38189
vt -20.86614 0
vt -22.83465 0
vt -1.968504 0
vt -1.968504 5.536417
vt -1.968504 7.38189
vt -9.744095 1.968504
vt -11.02362 0
vt -11.02362 1.968504
vt -9.744095 20.86614
vt -11.02362 22.83465
vt -11.02362 20.86614
vt 1.968504 0
vt 20.86614 0
vt 9.744095 0
vt 9.744095 1.845472
vt 8.120079 1.845472
vt 6.496063 1.845472
vt 6.496063 3.690945
vt 4.872047 3.690945
vt 3.248031 3.690945
vt 3.248031 5.536417
vt 1.624016 5.536417
vt 0 5.536417
vt 22.83465 0
vt 22.83465 3.690945
vt 0 3.690945

usemtl metalLight

f 3/3/1 2/2/1 1/1/1
f 2/2/1 3/3/1 4/4/1
f 7/7/2 6/6/2 5/5/2
f 6/6/2 7/7/2 8/8/2
f 11/11/1 10/10/1 9/9/1
f 10/10/1 11/11/1 12/12/1
f 13/15/2 12/14/2 11/13/2
f 12/14/2 13/15/2 14/16/2
f 17/19/1 16/18/1 15/17/1
f 16/18/1 17/19/1 18/20/1
f 21/23/1 20/22/1 19/21/1
f 20/22/1 21/23/1 22/24/1
f 5/27/1 24/26/1 23/25/1
f 24/26/1 5/27/1 6/28/1

usemtl metal

f 1/1/3 2/2/3 3/3/3
f 4/4/3 3/3/3 2/2/3
f 2/2/3 1/1/3 25/20/3
f 26/19/3 25/20/3 1/1/3
f 25/31/4 17/30/4 26/29/4
f 17/30/4 25/31/4 18/32/4
f 26/29/5 17/30/5 25/31/5
f 18/32/5 25/31/5 17/30/5
f 15/17/1 28/25/1 27/10/1
f 28/25/1 15/17/1 16/18/1
f 27/10/3 28/25/3 15/17/3
f 16/18/3 15/17/3 28/25/3
f 15/17/3 16/18/3 17/19/3
f 18/20/3 17/19/3 16/18/3
f 30/34/4 3/29/4 29/33/4
f 3/29/4 30/34/4 4/31/4
f 29/33/5 3/29/5 30/34/5
f 4/31/5 30/34/5 3/29/5
f 5/5/6 6/6/6 7/7/6
f 8/8/6 7/7/6 6/6/6
f 9/9/3 10/10/3 11/11/3
f 12/12/3 11/11/3 10/10/3
f 11/13/6 12/14/6 13/15/6
f 14/16/6 13/15/6 12/14/6
f 3/37/7 19/36/7 29/35/7
f 19/36/7 3/37/7 21/38/7
f 14/39/7 21/38/7 3/37/7
f 3/37/7 17/40/7 14/39/7
f 1/41/7 17/40/7 3/37/7
f 17/40/7 1/41/7 26/42/7
f 14/39/7 17/40/7 12/43/7
f 12/43/7 17/40/7 10/44/7
f 15/45/7 10/44/7 17/40/7
f 10/44/7 15/45/7 27/46/7
f 31/47/7 21/38/7 14/39/7
f 21/38/7 31/47/7 32/48/7
f 29/35/8 19/36/8 3/37/8
f 21/38/8 3/37/8 19/36/8
f 3/37/8 21/38/8 14/39/8
f 14/39/8 17/40/8 3/37/8
f 3/37/8 17/40/8 1/41/8
f 26/42/8 1/41/8 17/40/8
f 12/43/8 17/40/8 14/39/8
f 10/44/8 17/40/8 12/43/8
f 17/40/8 10/44/8 15/45/8
f 27/46/8 15/45/8 10/44/8
f 14/39/8 21/38/8 31/47/8
f 32/48/8 31/47/8 21/38/8
f 9/50/7 34/49/7 33/9/7
f 34/49/7 9/50/7 13/39/7
f 13/39/7 9/50/7 11/43/7
f 33/9/8 34/49/8 9/50/8
f 13/39/8 9/50/8 34/49/8
f 11/43/8 9/50/8 13/39/8
f 8/52/8 36/9/8 35/51/8
f 36/9/8 8/52/8 24/50/8
f 24/50/8 8/52/8 6/53/8
f 35/51/7 36/9/7 8/52/7
f 24/50/7 8/52/7 36/9/7
f 6/53/7 8/52/7 24/50/7
f 24/56/5 28/55/5 23/54/5
f 28/55/5 24/56/5 37/57/5
f 37/57/5 24/56/5 36/58/5
f 38/59/5 28/55/5 37/57/5
f 38/59/5 27/60/5 28/55/5
f 38/59/5 10/61/5 27/60/5
f 33/9/5 10/61/5 38/59/5
f 10/61/5 33/9/5 9/50/5
f 23/54/4 28/55/4 24/56/4
f 37/57/4 24/56/4 28/55/4
f 36/58/4 24/56/4 37/57/4
f 37/57/4 28/55/4 38/59/4
f 28/55/4 27/60/4 38/59/4
f 27/60/4 10/61/4 38/59/4
f 38/59/4 10/61/4 33/9/4
f 9/50/4 33/9/4 10/61/4
f 32/62/3 33/9/3 38/10/3
f 33/9/3 32/62/3 34/63/3
f 34/63/3 32/62/3 31/64/3
f 32/62/3 38/10/3 39/65/3
f 37/25/3 39/65/3 38/10/3
f 37/25/3 35/66/3 39/65/3
f 35/66/3 37/25/3 36/26/3
f 39/65/3 35/66/3 40/67/3
f 38/10/1 33/9/1 32/62/1
f 34/63/1 32/62/1 33/9/1
f 31/64/1 32/62/1 34/63/1
f 39/65/1 38/10/1 32/62/1
f 38/10/1 39/65/1 37/25/1
f 39/65/1 35/66/1 37/25/1
f 36/26/1 37/25/1 35/66/1
f 40/67/1 35/66/1 39/65/1
f 39/69/4 21/33/4 32/68/4
f 21/33/4 39/69/4 22/34/4
f 32/68/5 21/33/5 39/69/5
f 22/34/5 39/69/5 21/33/5
f 19/21/1 30/4/1 29/3/1
f 30/4/1 19/21/1 20/22/1
f 29/3/3 30/4/3 19/21/3
f 20/22/3 19/21/3 30/4/3
f 19/21/3 20/22/3 21/23/3
f 22/24/3 21/23/3 20/22/3
f 1/1/1 25/20/1 26/19/1
f 25/20/1 1/1/1 2/2/1
f 7/52/8 39/70/8 40/51/8
f 39/70/8 7/52/8 22/71/8
f 22/71/8 7/52/8 20/72/8
f 20/72/8 7/52/8 30/73/8
f 30/73/8 7/52/8 4/74/8
f 4/74/8 7/52/8 5/53/8
f 4/74/8 5/53/8 2/75/8
f 2/75/8 5/53/8 25/76/8
f 25/76/8 5/53/8 18/77/8
f 18/77/8 5/53/8 16/78/8
f 16/78/8 5/53/8 28/79/8
f 28/79/8 5/53/8 23/50/8
f 40/51/7 39/70/7 7/52/7
f 22/71/7 7/52/7 39/70/7
f 20/72/7 7/52/7 22/71/7
f 30/73/7 7/52/7 20/72/7
f 4/74/7 7/52/7 30/73/7
f 5/53/7 7/52/7 4/74/7
f 2/75/7 5/53/7 4/74/7
f 25/76/7 5/53/7 2/75/7
f 18/77/7 5/53/7 25/76/7
f 16/78/7 5/53/7 18/77/7
f 28/79/7 5/53/7 16/78/7
f 23/50/7 5/53/7 28/79/7
f 23/25/3 24/26/3 5/27/3
f 6/28/3 5/27/3 24/26/3
f 35/80/4 7/31/4 40/69/4
f 7/31/4 35/80/4 8/81/4
f 40/69/5 7/31/5 35/80/5
f 8/81/5 35/80/5 7/31/5
f 31/68/4 13/82/4 34/9/4
f 13/82/4 31/68/4 14/29/4
f 34/9/5 13/82/5 31/68/5
f 14/29/5 31/68/5 13/82/5

