# Created by Kenney (www.kenney.nl)

mtllib object_034.mtl

g object_034

v -1 0 6.295068E-13
v -0.89 0 6.295068E-13
v -1 1 6.295068E-13
v -0.89 0.89 5.168886E-13
v -0.11 0.89 0
v 0 1 6.295068E-13
v 0 0 6.295068E-13
v -0.11 0 6.295068E-13
v 0 1 1
v -0.11 1 0.11
v -0.89 1 0.11
v -0.89 1 0.89
v -0.11 1 0.89
v -1 1 1
v 0 0 1
v -0.11 0 1
v -0.11 0.89 1
v -0.89 0.89 1
v -1 0 1
v -0.89 0 1
v 0 0 0.89
v -0.11 0 0.89
v -0.11 0.89 0.11
v -0.11 0.89 0.89
v -0.11 0 0.11
v -2.887646E-15 0.89 0.89
v -2.887646E-15 0.89 0.11
v -0.89 0.89 0.11
v -1 0.89 0.11
v -0.89 0.89 0.89
v -1 0.89 0.89
v -0.89 0 0.89
v -1 0 0.89
v 0 0 0.11
v -0.89 0 0.11
v -1 0 0.11

vn 0 0 -1
vn 0 1 0
vn 0 0 1
vn 0 -1 0
vn -1 0 0
vn 1 0 0

vt 39.37008 -2.714779E-24
vt 35.03937 -2.807472E-24
vt 39.37008 39.37008
vt 35.03937 35.03937
vt 4.330709 35.03937
vt 3.695583E-24 39.37008
vt 3.695583E-24 -3.557442E-24
vt 4.330709 -3.464749E-24
vt 5.287361E-12 39.37008
vt 4.330709 4.330709
vt 5.287361E-12 2.004064E-11
vt 39.37008 2.004064E-11
vt 35.03937 4.330709
vt -6.919694E-12 -9.238492E-12
vt -4.330709 -9.238492E-12
vt -6.919694E-12 39.37008
vt -4.330709 35.03937
vt -39.37008 39.37008
vt -35.03937 35.03937
vt -39.37008 -9.238492E-12
vt -35.03937 -9.238492E-12
vt 0 39.37008
vt 0 35.03937
vt -4.330709 39.37008
vt 4.330709 39.37008
vt 35.03937 39.37008
vt 39.37008 35.03937
vt 35.03937 -1.791526E-13
vt 39.37008 -1.791526E-13
vt -1.449507E-12 35.03937
vt 2.333422E-11 -1.791526E-13
vt 4.330709 -1.791526E-13
vt -1.103495E-10 35.03937
vt -1.103495E-10 4.330709
vt -4.330709 4.330709
vt -4.330709 -3.616081E-11
vt -35.03937 4.330709
vt -35.03937 -1.581087E-11
vt -39.37008 4.330709
vt -39.37008 35.03937
vt -35.03937 39.37008
vt 4.330709 -1.460876E-11
vt -8.232477E-11 -1.460876E-11
vt -8.221109E-11 35.03937
vt 35.03937 -4.433787E-12
vt 39.37008 -4.433787E-12
vt -2.478373E-11 -6.473999E-42
vt -2.478373E-11 39.37008
vt -35.03937 -9.152562E-30
vt -39.37008 -1.028378E-29
vt -4.330709 -1.131215E-30
vt 1.023182E-11 -1.812602E-12
vt -4.330709 -1.812602E-12
vt 1.011813E-11 35.03937
vt -35.03937 -5.550217E-13
vt -39.37008 -5.550217E-13
vt 0 4.330709
vt 0 2.478373E-11
vt -4.330709 2.478373E-11
vt -8.737092E-12 35.03937
vt -1.317088E-11 -1.463718E-12
vt -4.330709 -1.463718E-12
vt -35.03937 -1.463718E-12
vt -39.37008 -1.463718E-12
vt 2.478373E-11 0
vt 2.478373E-11 39.37008
vt 4.330709 0
vt 35.03937 0
vt 39.37008 0
vt -35.03937 2.478373E-11
vt -39.37008 2.478373E-11

usemtl metalLight

f 3/3/1 2/2/1 1/1/1
f 2/2/1 3/3/1 4/4/1
f 4/4/1 3/3/1 5/5/1
f 6/6/1 5/5/1 3/3/1
f 7/7/1 5/5/1 6/6/1
f 5/5/1 7/7/1 8/8/1
f 6/11/2 10/10/2 9/9/2
f 10/10/2 6/11/2 3/12/2
f 10/10/2 3/12/2 11/13/2
f 11/13/2 3/12/2 12/4/2
f 13/5/2 9/9/2 10/10/2
f 9/9/2 13/5/2 14/3/2
f 14/3/2 13/5/2 12/4/2
f 14/3/2 12/4/2 3/12/2
f 9/16/3 16/15/3 15/14/3
f 16/15/3 9/16/3 17/17/3
f 14/18/3 17/17/3 9/16/3
f 14/18/3 18/19/3 17/17/3
f 19/20/3 18/19/3 14/18/3
f 18/19/3 19/20/3 20/21/3
f 16/24/4 21/23/4 15/22/4
f 21/23/4 16/24/4 22/17/4
f 24/4/5 10/25/5 23/5/5
f 10/25/5 24/4/5 13/26/5
f 22/28/5 17/27/5 24/4/5
f 17/27/5 22/28/5 16/29/5
f 8/31/5 23/5/5 5/30/5
f 23/5/5 8/31/5 25/32/5
f 24/17/4 27/34/4 26/33/4
f 27/34/4 24/17/4 23/35/4
f 28/37/4 5/36/4 23/35/4
f 5/36/4 28/37/4 4/38/4
f 30/19/4 29/39/4 28/37/4
f 29/39/4 30/19/4 31/40/4
f 24/17/4 18/41/4 30/19/4
f 18/41/4 24/17/4 17/24/4
f 24/5/1 21/43/1 22/42/1
f 21/43/1 24/5/1 26/44/1
f 12/26/1 24/5/1 30/4/1
f 24/5/1 12/26/1 13/25/1
f 32/45/1 31/27/1 30/4/1
f 31/27/1 32/45/1 33/46/1
f 6/48/6 27/17/6 7/47/6
f 27/17/6 6/48/6 9/18/6
f 27/17/6 9/18/6 26/19/6
f 26/19/6 9/18/6 21/49/6
f 21/49/6 9/18/6 15/50/6
f 34/51/6 7/47/6 27/17/6
f 27/54/3 25/53/3 34/52/3
f 25/53/3 27/54/3 23/17/3
f 23/17/3 11/41/3 28/19/3
f 11/41/3 23/17/3 10/24/3
f 28/19/3 36/56/3 35/55/3
f 36/56/3 28/19/3 29/40/3
f 25/35/4 7/58/4 34/57/4
f 7/58/4 25/35/4 8/59/4
f 28/17/6 2/61/6 4/60/6
f 2/61/6 28/17/6 35/62/6
f 11/24/6 30/19/6 28/17/6
f 30/19/6 11/24/6 12/41/6
f 18/40/6 32/63/6 30/19/6
f 32/63/6 18/40/6 20/64/6
f 36/67/5 3/66/5 1/65/5
f 3/66/5 36/67/5 29/5/5
f 29/5/5 14/3/5 3/66/5
f 14/3/5 29/5/5 31/4/5
f 14/3/5 31/4/5 33/68/5
f 14/3/5 33/68/5 19/69/5
f 19/18/4 32/19/4 20/41/4
f 32/19/4 19/18/4 33/40/4
f 36/39/4 2/70/4 35/37/4
f 2/70/4 36/39/4 1/71/4

