# Created by Kenney (www.kenney.nl)

mtllib object_059.mtl

g object_059

v -0.2053264 0.2659915 0.0642
v -0.2053264 0.04129151 0.0642
v -0.2053264 0.2659915 1.9474
v -0.2053264 0.04129151 1.9474
v -0.1625264 0.04129151 0.0242
v -0.1370757 0 0.0242
v -0.1625264 0.04129151 1.9874
v -0.1370757 0 1.9874
v -0.5691243 0 1.9874
v -0.5691243 0 0.0242
v -0.5436736 0.04129151 0.0242
v -0.5436736 0.04129151 1.9874
v 0 0.3485656 1.977573
v 0 0.3485656 0.03402729
v -0.03402729 0.3485656 2.0116
v -0.03402729 0.3485656 0
v -0.0535 0.3485656 1.9474
v -0.6721727 0.3485656 2.0116
v -0.6527 0.3485656 1.9474
v -0.6527 0.3485656 0.0642
v -0.0535 0.3485656 0.0642
v -0.6721727 0.3485656 0
v -0.7062 0.3485656 1.977573
v -0.7062 0.3485656 0.03402729
v -0.5008736 0.2659915 1.9474
v -0.5008736 0.2659915 0.0642
v 0 0.4066 0.03402729
v 0 0.4066 1.977573
v -0.03402729 0.4066 0
v -0.03402729 0.4066 2.0116
v -0.6721727 0.4066 0
v -0.6721727 0.4066 2.0116
v -0.7062 0.4066 0.03402729
v -0.7062 0.4066 1.977573
v -0.5008736 0.04129151 0.0642
v -0.5008736 0.04129151 1.9474

vn 1 0 0
vn 0.8512852 0.5247033 0
vn 0 -1 0
vn -0.8512852 0.5247033 0
vn -0.4777802 -0.8784794 0
vn 0 1 0
vn -1 0 0
vn 0 0 1
vn 0 0 -1
vn 0.4777802 -0.8784794 0
vn -0.7071068 0 -0.7071068
vn -0.7071068 0 0.7071068
vn 0.7071068 0 0.7071068
vn 0.7071068 0 -0.7071068

vt -2.527559 10.47211
vt -2.527559 1.62565
vt -76.66929 10.47211
vt -76.66929 1.62565
vt -0.9527559 4.741299
vt -0.9527559 2.831656
vt -78.24409 4.741299
vt -78.24409 2.831656
vt -5.396681 78.24409
vt -5.396681 0.9527559
vt -22.40647 78.24409
vt -22.40647 0.9527559
vt 0.9527559 -11.75675
vt 0.9527559 -9.847105
vt 78.24409 -11.75675
vt 78.24409 -9.847105
vt 0 77.85719
vt 0 1.339657
vt -1.339657 79.19685
vt -1.339657 0
vt -2.106299 76.66929
vt -26.46349 79.19685
vt -25.69685 76.66929
vt -25.69685 2.527559
vt -2.106299 2.527559
vt -26.46349 0
vt -27.80315 77.85719
vt -27.80315 1.339657
vt 76.66929 22.32648
vt 2.527559 22.32648
vt 76.66929 29.13076
vt 2.527559 29.13076
vt 1.339657 0
vt 1.339657 79.19685
vt 26.46349 0
vt 26.46349 79.19685
vt 27.80315 1.339657
vt 27.80315 77.85719
vt 2.527559 1.62565
vt 2.527559 10.47211
vt 76.66929 1.62565
vt 76.66929 10.47211
vt -5.396681 0
vt -22.40647 0
vt -6.398677 1.62565
vt -21.40447 1.62565
vt 22.40647 0
vt 5.396681 0
vt 21.40447 1.62565
vt 6.398677 1.62565
vt -8.083716 1.62565
vt -19.71943 1.62565
vt -8.083716 10.47211
vt -19.71943 10.47211
vt -2.106299 13.72305
vt -25.69685 13.72305
vt 6.398677 78.24409
vt 8.083716 2.527559
vt 6.398677 0.9527559
vt 21.40447 0.9527559
vt 19.71943 2.527559
vt 19.71943 76.66929
vt 8.083716 76.66929
vt 21.40447 78.24409
vt 19.71943 1.62565
vt 8.083716 1.62565
vt 19.71943 10.47211
vt 8.083716 10.47211
vt 25.69685 13.72305
vt 2.106299 13.72305
vt -76.66929 4.706263
vt -2.527559 4.706263
vt -76.66929 -2.098014
vt -2.527559 -2.098014
vt -1.339657 16.00787
vt -1.339657 13.72305
vt -77.85719 16.00787
vt -77.85719 13.72305
vt 18.71251 13.72305
vt 18.71251 16.00787
vt 20.60708 13.72305
vt 20.60708 16.00787
vt 35.39355 13.72305
vt 35.39355 16.00787
vt 37.28812 13.72305
vt 37.28812 16.00787
vt 1.339657 13.72305
vt 1.339657 16.00787
vt 77.85719 13.72305
vt 77.85719 16.00787
vt 26.46349 13.72305
vt 26.46349 16.00787
vt -55.05335 16.00787
vt -55.05335 13.72305
vt -56.94791 16.00787
vt -56.94791 13.72305
vt 0.9472806 16.00787
vt 0.9472806 13.72305
vt -0.9472806 16.00787
vt -0.9472806 13.72305
vt -26.46349 13.72305
vt -26.46349 16.00787

usemtl metalLight

f 3/3/1 2/2/1 1/1/1
f 2/2/1 3/3/1 4/4/1
f 7/7/2 6/6/2 5/5/2
f 6/6/2 7/7/2 8/8/2
f 9/11/3 6/10/3 8/9/3
f 6/10/3 9/11/3 10/12/3
f 9/15/4 11/14/4 10/13/4
f 11/14/4 9/15/4 12/16/4
f 15/19/3 14/18/3 13/17/3
f 14/18/3 15/19/3 16/20/3
f 16/20/3 15/19/3 17/21/3
f 17/21/3 15/19/3 18/22/3
f 17/21/3 18/22/3 19/23/3
f 19/23/3 18/22/3 20/24/3
f 21/25/3 16/20/3 17/21/3
f 16/20/3 21/25/3 22/26/3
f 22/26/3 21/25/3 20/24/3
f 22/26/3 20/24/3 18/22/3
f 22/26/3 18/22/3 23/27/3
f 22/26/3 23/27/3 24/28/3
f 19/31/5 26/30/5 25/29/5
f 26/30/5 19/31/5 20/32/5
f 29/33/6 28/17/6 27/18/6
f 28/17/6 29/33/6 30/34/6
f 30/34/6 29/33/6 31/35/6
f 30/34/6 31/35/6 32/36/6
f 32/36/6 31/35/6 33/37/6
f 32/36/6 33/37/6 34/38/6
f 36/41/7 26/40/7 35/39/7
f 26/40/7 36/41/7 25/42/7
f 7/45/8 9/44/8 8/43/8
f 9/44/8 7/45/8 12/46/8
f 11/49/9 6/48/9 10/47/9
f 6/48/9 11/49/9 5/50/9
f 3/53/8 36/52/8 4/51/8
f 36/52/8 3/53/8 25/54/8
f 25/54/8 3/53/8 17/55/8
f 25/54/8 17/55/8 19/56/8
f 5/59/6 2/58/6 7/57/6
f 2/58/6 5/59/6 11/60/6
f 2/58/6 11/60/6 35/61/6
f 35/61/6 11/60/6 36/62/6
f 4/63/6 7/57/6 2/58/6
f 7/57/6 4/63/6 12/64/6
f 12/64/6 4/63/6 36/62/6
f 12/64/6 36/62/6 11/60/6
f 26/67/9 2/66/9 35/65/9
f 2/66/9 26/67/9 1/68/9
f 1/68/9 26/67/9 20/69/9
f 1/68/9 20/69/9 21/70/9
f 3/73/10 21/72/10 17/71/10
f 21/72/10 3/73/10 1/74/10

usemtl metal

f 28/77/1 14/76/1 27/75/1
f 14/76/1 28/77/1 13/78/1
f 24/81/11 31/80/11 22/79/11
f 31/80/11 24/81/11 33/82/11
f 18/85/12 34/84/12 23/83/12
f 34/84/12 18/85/12 32/86/12
f 23/89/7 33/88/7 24/87/7
f 33/88/7 23/89/7 34/90/7
f 31/92/9 16/87/9 22/91/9
f 16/87/9 31/92/9 29/88/9
f 30/95/13 13/94/13 28/93/13
f 13/94/13 30/95/13 15/96/13
f 27/99/14 16/98/14 29/97/14
f 16/98/14 27/99/14 14/100/14
f 30/75/8 18/101/8 15/76/8
f 18/101/8 30/75/8 32/102/8

usemtl _defaultMat

f 35/44/6 4/45/6 2/46/6
f 4/44/6 35/45/6 36/46/6

