# Created by Kenney (www.kenney.nl)

mtllib object_022.mtl

g object_022

v 0 0.232919 0
v 0 0 0
v -6.301348E-13 0.232919 1
v -6.301348E-13 0 1
v -0.07125 0 1
v -0.07125 0 -4.417519E-14
v -0.095 0.2038042 -5.986281E-14
v -0.095 0.232919 -5.986281E-14
v -0.095 0.2038042 1
v -0.095 0.232919 1
v -0.0475 0.02911488 1
v -0.0475 0.1746893 1
v -0.07125 0.02911488 1
v -0.07125 0.02911488 -4.417519E-14
v -0.0475 0.02911488 -2.99314E-14
v -0.0475 0.1746893 -2.99314E-14

vn 0.38 0 2.394512E-13
vn 0 -0.232919 0
vn -0.38 0 -2.394512E-13
vn 0 0.232919 0
vn -6.301348E-13 0 1
vn 6.301348E-13 0 -1
vn -0.2687006 -0.1646986 -1.693176E-13

vt 0 39.37008
vt 0 0
vt -39.37008 39.37008
vt -39.37008 0
vt -7.38189 39.37008
vt -7.38189 2.842171E-14
vt -2.61537E-27 34.44882
vt -2.61537E-27 39.37008
vt 39.37008 34.44882
vt 39.37008 39.37008
vt 9.84252 0
vt 9.84252 39.37008
vt -7.38189 0
vt -4.92126 4.92126
vt -4.92126 29.52756
vt -9.84252 34.44882
vt -9.84252 39.37008
vt -7.38189 4.92126
vt 7.38189 0
vt 7.38189 4.92126
vt 4.92126 4.92126
vt 4.92126 29.52756
vt 9.84252 34.44882
vt -3.753488E-27 24.35899
vt -7.506977E-27 31.31871
vt 39.37008 24.35899
vt 39.37008 31.31871
vt 4.92126 0
vt 4.92126 39.37008
vt 7.38189 2.842171E-14
vt 7.38189 39.37008
vt 2.842171E-14 0
vt 2.842171E-14 4.92126
vt 39.37008 0
vt 39.37008 4.92126
vt -1.307685E-27 4.92126
vt -1.307685E-27 29.52756
vt 39.37008 29.52756

usemtl metalLight

f 3/3/1 2/2/1 1/1/1
f 2/2/1 3/3/1 4/4/1
f 5/5/2 2/2/2 4/1/2
f 2/2/2 5/5/2 6/6/2
f 9/9/3 8/8/3 7/7/3
f 8/8/3 9/9/3 10/10/3
f 8/11/4 3/1/4 1/2/4
f 3/1/4 8/11/4 10/12/4
f 4/2/5 11/14/5 5/13/5
f 11/14/5 4/2/5 3/1/5
f 11/14/5 3/1/5 12/15/5
f 12/15/5 3/1/5 9/16/5
f 9/16/5 3/1/5 10/17/5
f 13/18/5 5/13/5 11/14/5
f 14/20/6 2/2/6 6/19/6
f 2/2/6 14/20/6 15/21/6
f 2/2/6 15/21/6 1/1/6
f 1/1/6 15/21/6 16/22/6
f 1/1/6 16/22/6 7/23/6
f 1/1/6 7/23/6 8/12/6
f 12/26/7 7/25/7 16/24/7
f 7/25/7 12/26/7 9/27/7
f 14/30/4 11/29/4 15/28/4
f 11/29/4 14/30/4 13/31/4
f 5/34/3 14/33/3 6/32/3
f 14/33/3 5/34/3 13/35/3

usemtl metalRed

f 11/35/3 16/37/3 15/36/3
f 16/37/3 11/35/3 12/38/3

