# Created by Kenney (www.kenney.nl)

mtllib object_052.mtl

g object_052

v -0.2206 0.1389478 0.2324156
v -0.2206 0.1389478 2.28124E-13
v -0.298 0.1389478 0.2324156
v -0.298 0.1389478 3.089781E-13
v -0.1417863 0.5560653 0.02888888
v -0.2854267 0.2589283 0.02888888
v -0.298 0.232919 3.089781E-13
v -0.298 0.232919 0.2324156
v -0.2854267 0.2589283 0.2035267
v -0.129213 0.5820745 0.2324156
v -0.129213 0.5820745 1.342755E-13
v -0.1417863 0.5560653 0.2035267
v 0 0 0.2324156
v -2.440061E-13 0 0
v -0.2464 0 0.2324156
v -0.2464 0 2.555566E-13
v -0.06783503 0.5820745 7.074732E-14
v -0.06783503 0.5820745 0.2324156
v -0.1809781 0.2589283 0.2035267
v -0.2206 0.03574785 2.28124E-13
v -0.2335 0.03574785 2.411184E-13
v -0.2206 0.03574785 0.2324156
v -0.2335 0.03574785 0.2324156
v -0.1809781 0.2589283 0.02888888
v -0.1448814 0.5325995 0.05255789
v -0.177883 0.2823941 0.05255789
v -0.177883 0.2823941 0.1798577
v -0.1448814 0.5325995 0.1798577

vn 0 -1 0
vn -0.9003202 0.4352283 0
vn 0.9932776 0.1157567 0
vn 0 0 -1
vn 0 1 0
vn -0.9406291 0.3394362 0
vn -1 0 0
vn 0 0 1
vn -0.9914134 0.1307657 0

vt -8.68504 9.15022
vt -8.68504 8.98126E-12
vt -11.73228 9.15022
vt -11.73228 1.216449E-11
vt 1.137358 17.28061
vt 1.137358 4.287109
vt -1.455372E-14 3.149751
vt 9.15022 3.149751
vt 8.012862 4.287109
vt 9.15022 18.41796
vt 5.595187E-15 18.41796
vt 8.012862 17.28061
vt 0 9.15022
vt -9.606538E-12 0
vt -9.700788 9.15022
vt -9.700788 1.006129E-11
vt 9.773443E-24 1.112021E-12
vt -9.15022 1.077602E-12
vt -6.825654E-14 23.07141
vt -9.15022 23.07141
vt 11.23727 10.19403
vt 7.125123 10.19403
vt 5.582137 21.89233
vt 11.73228 5.470388
vt 8.68504 5.470388
vt 11.73228 9.170041
vt 2.67067 22.91632
vt 8.68504 1.407396
vt 9.606538E-12 1.918641E-39
vt 9.192913 1.407396
vt 9.700788 -2.862108E-30
vt 5.087126 22.91632
vt 2.67067 9.15022
vt 5.087126 9.15022
vt 2.67067 2.785328E-12
vt 5.087126 5.286438E-12
vt 8.68504 9.15022
vt 9.192913 9.15022
vt 8.68504 8.98126E-12
vt 9.192913 9.492851E-12
vt -2.509729E-14 -1.79657
vt 9.15022 -1.79657
vt 1.750592E-14 -3.292798
vt 9.15022 -3.292798
vt -1.088332E-14 1.407396
vt -1.088332E-14 5.470388
vt 9.15022 1.407396
vt 9.15022 5.470388
vt -7.125123 10.19403
vt -11.23727 10.19403
vt -5.582137 21.89233
vt 1.735309E-14 5.470388
vt 1.735309E-14 9.170041
vt 9.15022 9.170041
vt -9.700788 -1.894597E-14
vt -8.68504 1.407396
vt -9.411283E-12 -1.894597E-14
vt -2.67067 22.91632
vt -8.68504 5.470388
vt -11.73228 5.470388
vt -11.73228 9.170041
vt -5.087126 22.91632
vt -9.192913 1.407396
vt 2.069208 20.04255
vt 2.069208 10.10662
vt 1.137358 9.174772
vt 8.012862 9.174772
vt 7.081012 10.10662
vt 8.012862 20.9744
vt 1.137358 20.9744
vt 7.081012 20.04255
vt 7.125123 8.012862
vt 11.23727 8.012862
vt 7.125123 1.137358
vt 11.23727 1.137358

usemtl metalLight

f 3/3/1 2/2/1 1/1/1
f 2/2/1 3/3/1 4/4/1
f 7/7/2 6/6/2 5/5/2
f 6/6/2 7/7/2 8/8/2
f 6/6/2 8/8/2 9/9/2
f 9/9/2 8/8/2 10/10/2
f 11/11/2 5/5/2 10/10/2
f 5/5/2 11/11/2 7/7/2
f 10/10/2 5/5/2 12/12/2
f 10/10/2 12/12/2 9/9/2
f 15/15/1 14/14/1 13/13/1
f 14/14/1 15/15/1 16/16/1
f 17/19/3 13/18/3 14/17/3
f 13/18/3 17/19/3 18/20/3
f 12/23/4 19/22/4 9/21/4
f 7/26/4 2/25/4 4/24/4
f 17/27/4 2/25/4 7/26/4
f 17/27/4 20/28/4 2/25/4
f 14/29/4 20/28/4 17/27/4
f 14/29/4 21/30/4 20/28/4
f 21/30/4 14/29/4 16/31/4
f 17/27/4 7/26/4 11/32/4
f 17/35/5 10/34/5 18/33/5
f 10/34/5 17/35/5 11/36/5
f 20/39/5 23/38/5 22/37/5
f 23/38/5 20/39/5 21/40/5
f 16/43/6 23/42/6 21/41/6
f 23/42/6 16/43/6 15/44/6
f 22/47/7 2/46/7 20/45/7
f 2/46/7 22/47/7 1/48/7
f 5/51/8 6/50/8 24/49/8
f 3/48/7 7/53/7 4/52/7
f 7/53/7 3/48/7 8/54/7
f 13/57/8 22/56/8 15/55/8
f 22/56/8 13/57/8 18/58/8
f 22/56/8 18/58/8 1/59/8
f 1/59/8 18/58/8 3/60/8
f 3/60/8 18/58/8 8/61/8
f 8/61/8 18/58/8 10/62/8
f 23/63/8 15/55/8 22/56/8

usemtl metal

f 24/66/9 26/65/9 25/64/9
f 26/65/9 24/66/9 19/67/9
f 26/65/9 19/67/9 27/68/9
f 27/68/9 19/67/9 12/69/9
f 5/70/9 25/64/9 12/69/9
f 25/64/9 5/70/9 24/66/9
f 12/69/9 25/64/9 28/71/9
f 12/69/9 28/71/9 27/68/9
f 24/74/5 9/73/5 19/72/5
f 9/73/5 24/74/5 6/75/5

usemtl metalRed

f 26/65/9 28/71/9 25/64/9
f 28/71/9 26/65/9 27/68/9

