# Created by Kenney (www.kenney.nl)

mtllib object_054.mtl

g object_054

v -0.0387 0.3320745 0
v 0 0 0
v -0.0387 0.3320745 0.4648312
v 0 0 0.4648312
v -0.2464 0 0.4648312
v -0.2206 0.03574785 0.4648312
v -0.2206 0.1389478 0.4648312
v -0.298 0.1389478 0.4648312
v -0.298 0.232919 0.4648312
v -0.129213 0.3320745 0.4648312
v -0.2335 0.03574785 0.4648312
v -0.2206 0.03574785 0
v -0.2206 0.1389478 0
v -0.129213 0.3320745 0
v -0.298 0.1389478 0
v -0.298 0.232919 0
v -0.2335 0.03574785 0
v -0.2464 0 0
v -0.1506535 0.3194791 0.02357958
v -0.2765595 0.2455145 0.02357958
v -0.2765595 0.2455145 0.4412516
v -0.1506535 0.3194791 0.4412516
v -0.1506535 0.2455145 0.02357958
v -0.1506535 0.2455145 0.4412516

vn 0.9932776 0.1157567 0
vn 0 0 1
vn -1 0 0
vn 0 1 0
vn 0 0 -1
vn 0 -1 0
vn -0.9406291 0.3394362 0
vn -0.506523 0.8622264 0

vt 1.498988E-32 13.16228
vt 0 0
vt -18.30044 13.16228
vt -18.30044 2.084147E-32
vt -9.700788 -5.135623E-14
vt -8.68504 1.407396
vt 1.305751E-13 -5.135623E-14
vt -1.523622 13.0738
vt -8.68504 5.470388
vt -11.73228 5.470388
vt -11.73228 9.170041
vt -5.087126 13.0738
vt -9.192913 1.407396
vt 0 1.407396
vt 0 5.470388
vt 18.30044 1.407396
vt 18.30044 5.470388
vt 1.523622 0
vt 1.523622 18.30044
vt 5.087126 0
vt 5.087126 18.30044
vt 11.73228 5.470388
vt 8.68504 5.470388
vt 11.73228 9.170041
vt 1.523622 13.0738
vt 8.68504 1.407396
vt 9.192913 1.407396
vt 9.700788 0
vt 5.087126 13.0738
vt 8.68504 0
vt 8.68504 18.30044
vt 9.192913 0
vt 9.192913 18.30044
vt -8.68504 18.30044
vt -8.68504 0
vt -11.73228 18.30044
vt -11.73228 0
vt 1.464958E-17 -3.292798
vt 1.388262E-17 -1.79657
vt 18.30044 -3.292798
vt 18.30044 -1.79657
vt 0 18.30044
vt -9.700788 18.30044
vt -9.700788 0
vt 18.30044 2.235925
vt 0.9283299 1.25693
vt -5.396469E-17 2.235925
vt -1.244571E-16 -5.471049
vt 0.9283299 -4.492054
vt 17.37211 -4.492054
vt 17.37211 1.25693
vt 18.30044 -5.471049
vt 0 9.170041
vt 18.30044 9.170041
vt 5.931242 0.9283299
vt 5.931242 17.37211
vt 10.88817 0.9283299
vt 10.88817 17.37211

usemtl metalLight

f 3/3/1 2/2/1 1/1/1
f 2/2/1 3/3/1 4/4/1
f 4/7/2 6/6/2 5/5/2
f 6/6/2 4/7/2 3/8/2
f 6/6/2 3/8/2 7/9/2
f 7/9/2 3/8/2 8/10/2
f 8/10/2 3/8/2 9/11/2
f 9/11/2 3/8/2 10/12/2
f 11/13/2 5/5/2 6/6/2
f 6/16/3 13/15/3 12/14/3
f 13/15/3 6/16/3 7/17/3
f 14/20/4 3/19/4 1/18/4
f 3/19/4 14/20/4 10/21/4
f 16/24/5 13/23/5 15/22/5
f 1/25/5 13/23/5 16/24/5
f 1/25/5 12/26/5 13/23/5
f 2/2/5 12/26/5 1/25/5
f 2/2/5 17/27/5 12/26/5
f 17/27/5 2/2/5 18/28/5
f 1/25/5 16/24/5 14/29/5
f 17/32/4 6/31/4 12/30/4
f 6/31/4 17/32/4 11/33/4
f 8/36/6 13/35/6 7/34/6
f 13/35/6 8/36/6 15/37/6
f 5/40/7 17/39/7 18/38/7
f 17/39/7 5/40/7 11/41/7
f 5/43/6 2/2/6 4/42/6
f 2/2/6 5/43/6 18/44/6
f 14/47/8 19/46/8 10/45/8
f 19/46/8 14/47/8 16/48/8
f 19/46/8 16/48/8 20/49/8
f 20/49/8 16/48/8 21/50/8
f 22/51/8 10/45/8 19/46/8
f 10/45/8 22/51/8 9/52/8
f 9/52/8 22/51/8 21/50/8
f 9/52/8 21/50/8 16/48/8
f 8/17/3 16/53/3 15/15/3
f 16/53/3 8/17/3 9/54/3

usemtl _defaultMat

f 24/15/3 19/16/3 23/17/3
f 19/15/3 24/16/3 22/17/3
f 22/35/5 24/36/5 21/37/5
f 19/53/2 20/17/2 23/54/2

usemtl metal

f 20/57/4 24/56/4 23/55/4
f 24/56/4 20/57/4 21/58/4

