# Created by Kenney (www.kenney.nl)

mtllib object_042.mtl

g object_042

v 0 1 0
v 0 0 0
v 0 1 1
v 0 0 1
v -0.1875 0 1
v -0.1875 0 0
v -0.25 0.875 0
v -0.25 1 0
v -0.25 0.875 1
v -0.25 1 1
v -0.125 0.125 1
v -0.125 0.28125 1
v -0.125 0.4375 1
v -0.125 0.75 1
v -0.1875 0.125 1
v -0.1875 0.125 0
v -0.125 0.125 0
v -0.125 0.28125 0
v -0.125 0.4375 0
v -0.125 0.75 0

vn 1 0 0
vn 0 -1 0
vn -1 0 0
vn 0 1 0
vn 0 0 1
vn 0 0 -1
vn -0.7071068 -0.7071068 0

vt 0 39.37008
vt 0 0
vt -39.37008 39.37008
vt -39.37008 0
vt -7.38189 39.37008
vt -7.38189 0
vt 0 34.44882
vt 39.37008 34.44882
vt 39.37008 39.37008
vt 9.84252 0
vt 9.84252 39.37008
vt -4.92126 4.92126
vt -4.92126 11.07283
vt -4.92126 17.22441
vt -4.92126 29.52756
vt -9.84252 34.44882
vt -9.84252 39.37008
vt -7.38189 4.92126
vt 7.38189 0
vt 7.38189 4.92126
vt 4.92126 4.92126
vt 4.92126 11.07283
vt 4.92126 17.22441
vt 4.92126 29.52756
vt 9.84252 34.44882
vt 39.37008 24.35899
vt 0 24.35899
vt 39.37008 31.31871
vt 0 31.31871
vt 0 4.92126
vt 39.37008 0
vt 39.37008 4.92126
vt 4.92126 0
vt 4.92126 39.37008
vt 7.38189 39.37008
vt 0 17.22441
vt 0 29.52756
vt 39.37008 17.22441
vt 39.37008 29.52756
vt 0 11.07283
vt 39.37008 11.07283

usemtl metalLight

f 3/3/1 2/2/1 1/1/1
f 2/2/1 3/3/1 4/4/1
f 5/5/2 2/2/2 4/1/2
f 2/2/2 5/5/2 6/6/2
f 9/8/3 8/1/3 7/7/3
f 8/1/3 9/8/3 10/9/3
f 8/10/4 3/1/4 1/2/4
f 3/1/4 8/10/4 10/11/4
f 4/2/5 11/12/5 5/6/5
f 11/12/5 4/2/5 3/1/5
f 11/12/5 3/1/5 12/13/5
f 12/13/5 3/1/5 13/14/5
f 13/14/5 3/1/5 14/15/5
f 14/15/5 3/1/5 9/16/5
f 9/16/5 3/1/5 10/17/5
f 15/18/5 5/6/5 11/12/5
f 16/20/6 2/2/6 6/19/6
f 2/2/6 16/20/6 17/21/6
f 2/2/6 17/21/6 1/1/6
f 1/1/6 17/21/6 18/22/6
f 1/1/6 18/22/6 19/23/6
f 1/1/6 19/23/6 20/24/6
f 1/1/6 20/24/6 7/25/6
f 1/1/6 7/25/6 8/11/6
f 9/28/7 20/27/7 14/26/7
f 20/27/7 9/28/7 7/29/7
f 5/31/3 16/30/3 6/2/3
f 16/30/3 5/31/3 15/32/3
f 16/19/4 11/34/4 17/33/4
f 11/34/4 16/19/4 15/35/4

usemtl metal

f 13/38/3 20/37/3 19/36/3
f 20/37/3 13/38/3 14/39/3
f 11/32/3 18/40/3 17/30/3
f 18/40/3 11/32/3 12/41/3

usemtl metalRed

f 12/41/3 19/36/3 18/40/3
f 19/36/3 12/41/3 13/38/3

