# Created by Kenney (www.kenney.nl)

mtllib object_070.mtl

g object_070

v 0 0.140625 1.443823E-15
v -7.219114E-16 0.140625 0.58
v -0.04125 0.140625 1.443823E-15
v -0.04125 0.140625 0.58
v -0.0825 0.140625 1.443823E-15
v -0.0825 0.140625 0.58
v -0.2475 0.046875 1.443823E-15
v -0.20625 0.046875 0.58
v -0.20625 0.046875 1.443823E-15
v -0.2475 0.046875 0.58
v -0.165 0.046875 0.58
v -0.165 0.046875 1.443823E-15
v -0.2475 3.609557E-16 0.58
v -7.219114E-16 3.609557E-16 0.58
v -0.0825 0.09375 0.58
v -0.165 0.09375 0.58
v -0.12375 0.09375 0.58
v -0.0825 0.09375 1.443823E-15
v -0.12375 0.09375 1.443823E-15
v -0.165 0.09375 1.443823E-15
v -0.2475 0 1.443823E-15
v -0.2475 3.609557E-16 0.05
v -7.219114E-16 3.609557E-16 0
v -7.219114E-16 3.609557E-16 0.05
v -7.219114E-16 3.609557E-16 0.53

vn 0 1 0
vn 0 -1 0
vn 0 0 -1
vn 0 0 1
vn -1 0 0
vn 1 0 0

vt -9.933518E-15 5.884288E-14
vt 1.848819E-14 22.83465
vt 1.624016 5.884288E-14
vt 1.624016 22.83465
vt 3.248031 5.684342E-14
vt 3.248031 22.83465
vt 9.744095 5.684342E-14
vt 8.120079 22.83465
vt 8.120079 5.684342E-14
vt 9.744095 22.83465
vt 6.496063 22.83465
vt 6.496063 5.684342E-14
vt 9.744095 1.421085E-14
vt 2.842171E-14 1.421085E-14
vt 9.744095 1.845472
vt 6.496063 1.845472
vt 3.248031 3.690945
vt 2.842171E-14 5.536417
vt 8.120079 1.845472
vt 6.496063 3.690945
vt 4.872047 3.690945
vt 3.248031 5.536417
vt 1.624016 5.536417
vt 4.872047 5.684342E-14
vt 4.872047 22.83465
vt 6.622759E-14 -4.102675E-14
vt 6.622759E-14 1.845472
vt 1.968504 -2.68159E-14
vt 22.83465 1.845472
vt 22.83465 -2.68159E-14
vt 5.684342E-14 1.845472
vt 5.684342E-14 3.690945
vt 22.83465 3.690945
vt -9.744095 -9.775684E-29
vt -9.744095 1.845472
vt -2.842171E-14 1.421085E-14
vt -6.496063 1.845472
vt -8.120079 1.845472
vt 4.124195E-29 5.536417
vt -3.248031 5.536417
vt -3.248031 3.690945
vt -1.624016 5.536417
vt -6.496063 3.690945
vt -4.872047 3.690945
vt -2.842171E-14 1.968504
vt -2.842171E-14 5.129489E-29
vt -9.744095 1.968504
vt -9.744095 5.684342E-14
vt -9.744095 22.83465
vt -2.842171E-14 20.86614
vt -2.842171E-14 22.83465
vt -8.79341E-30 1.421085E-14
vt -1.968504 1.421085E-14
vt -5.684342E-14 5.536417
vt -22.83465 5.536417
vt -20.86614 1.421085E-14
vt -22.83465 1.421085E-14
vt 5.684342E-14 5.536417
vt 22.83465 5.536417

usemtl metal

f 3/3/1 2/2/1 1/1/1
f 2/2/1 3/3/1 4/4/1
f 1/1/2 2/2/2 3/3/2
f 4/4/2 3/3/2 2/2/2
f 3/3/2 4/4/2 5/5/2
f 6/6/2 5/5/2 4/4/2
f 9/9/2 8/8/2 7/7/2
f 10/10/2 7/7/2 8/8/2
f 8/8/2 9/9/2 11/11/2
f 12/12/2 11/11/2 9/9/2
f 10/15/3 14/14/3 13/13/3
f 14/14/3 10/15/3 11/16/3
f 14/14/3 11/16/3 15/17/3
f 14/14/3 15/17/3 2/18/3
f 11/16/3 10/15/3 8/19/3
f 15/17/3 11/16/3 16/20/3
f 15/17/3 16/20/3 17/21/3
f 2/18/3 15/17/3 6/22/3
f 2/18/3 6/22/3 4/23/3
f 13/13/4 14/14/4 10/15/4
f 11/16/4 10/15/4 14/14/4
f 15/17/4 11/16/4 14/14/4
f 2/18/4 15/17/4 14/14/4
f 8/19/4 10/15/4 11/16/4
f 16/20/4 11/16/4 15/17/4
f 17/21/4 16/20/4 15/17/4
f 6/22/4 15/17/4 2/18/4
f 4/23/4 6/22/4 2/18/4
f 19/24/1 15/6/1 18/5/1
f 15/6/1 19/24/1 17/25/1
f 18/5/2 15/6/2 19/24/2
f 17/25/2 19/24/2 15/6/2
f 19/24/2 17/25/2 20/12/2
f 16/11/2 20/12/2 17/25/2
f 22/28/5 7/27/5 21/26/5
f 7/27/5 22/28/5 10/29/5
f 10/29/5 22/28/5 13/30/5
f 21/26/6 7/27/6 22/28/6
f 10/29/6 22/28/6 7/27/6
f 13/30/6 22/28/6 10/29/6
f 11/29/5 20/32/5 12/31/5
f 20/32/5 11/29/5 16/33/5
f 12/31/6 20/32/6 11/29/6
f 16/33/6 11/29/6 20/32/6
f 23/36/4 7/35/4 21/34/4
f 7/35/4 23/36/4 12/37/4
f 7/35/4 12/37/4 9/38/4
f 1/39/4 12/37/4 23/36/4
f 18/41/4 1/39/4 5/40/4
f 5/40/4 1/39/4 3/42/4
f 18/41/4 20/43/4 12/37/4
f 20/43/4 18/41/4 19/44/4
f 21/34/3 7/35/3 23/36/3
f 12/37/3 23/36/3 7/35/3
f 9/38/3 12/37/3 7/35/3
f 23/36/3 12/37/3 1/39/3
f 5/40/3 1/39/3 18/41/3
f 3/42/3 1/39/3 5/40/3
f 12/37/3 20/43/3 18/41/3
f 19/44/3 18/41/3 20/43/3
f 12/37/4 1/39/4 18/41/4
f 18/41/3 1/39/3 12/37/3
f 22/47/2 23/46/2 24/45/2
f 23/46/2 22/47/2 21/48/2
f 24/45/2 13/49/2 22/47/2
f 25/50/2 13/49/2 24/45/2
f 13/49/2 25/50/2 14/51/2
f 24/45/1 23/46/1 22/47/1
f 21/48/1 22/47/1 23/46/1
f 22/47/1 13/49/1 24/45/1
f 24/45/1 13/49/1 25/50/1
f 14/51/1 25/50/1 13/49/1
f 1/54/6 24/53/6 23/52/6
f 24/53/6 1/54/6 2/55/6
f 24/53/6 2/55/6 25/56/6
f 25/56/6 2/55/6 14/57/6
f 23/52/5 24/53/5 1/54/5
f 2/55/5 1/54/5 24/53/5
f 25/56/5 2/55/5 24/53/5
f 14/57/5 2/55/5 25/56/5
f 9/9/1 11/11/1 12/12/1
f 11/11/1 9/9/1 8/8/1
f 15/33/5 5/58/5 18/32/5
f 5/58/5 15/33/5 6/59/5
f 18/32/6 5/58/6 15/33/6
f 6/59/6 15/33/6 5/58/6

usemtl metalLight

f 7/7/1 8/8/1 9/9/1
f 8/8/1 7/7/1 10/10/1
f 20/12/1 17/25/1 19/24/1
f 17/25/1 20/12/1 16/11/1
f 5/5/1 4/4/1 3/3/1
f 4/4/1 5/5/1 6/6/1

