# Created by Kenney (www.kenney.nl)

mtllib object_049.mtl

g object_049

v -0.016193 0.1389478 0.12
v -0.016193 0.1389478 0.06
v -0.298 0.1389478 0.12
v -0.2206 0.1389478 0.06
v -0.2206 0.1389478 2.887646E-15
v -0.298 0.1389478 2.887646E-15
v -0.0387 0.3320745 0.12
v -0.298 0.232919 0.12
v -0.129213 0.3320745 0.12
v -0.0387 0.3320745 2.887646E-15
v -0.129213 0.3320745 0
v -0.298 0.232919 0
v 0 0 0.06
v -0.2464 0 0.06
v -0.2206 0.03574785 0.06
v -0.2335 0.03574785 0.06
v 0 0 2.887646E-15
v -0.2464 0 2.887646E-15
v -0.2206 0.03574785 2.887646E-15
v -0.2335 0.03574785 2.887646E-15

vn 0 -1 0
vn 0 0 1
vn 0 1 0
vn -0.506523 0.8622264 0
vn -1 0 0
vn 0.9932776 0.1157567 0
vn -0.9406291 0.3394362 0
vn 0 0 -1

vt -0.6375196 4.72441
vt -0.6375196 2.362205
vt -11.73228 4.72441
vt -8.68504 2.362205
vt -8.68504 1.815488E-13
vt -11.73228 1.815488E-13
vt -0.6375196 5.470388
vt -11.73228 5.470388
vt -1.523622 13.0738
vt -11.73228 9.170041
vt -5.087126 13.0738
vt 1.523622 2.558199E-13
vt 1.523622 4.72441
vt 5.087126 1.421331E-13
vt 5.087126 4.72441
vt 1.257908E-13 2.235925
vt 4.72441 2.235925
vt 2.901075E-13 -5.471049
vt 4.72441 -5.471049
vt 7.298845E-14 9.170041
vt 4.72441 9.170041
vt 1.866753E-13 5.470388
vt 4.72441 5.470388
vt 0 0
vt -9.700788 0
vt -8.68504 1.407396
vt -8.68504 5.470388
vt -9.192913 1.407396
vt 0 2.362205
vt 0 1.136868E-13
vt -9.700788 2.362205
vt -9.700788 1.136868E-13
vt 8.68504 1.136868E-13
vt 8.68504 2.362205
vt 9.192913 1.136868E-13
vt 9.192913 2.362205
vt 1.136868E-13 1.407396
vt 1.136868E-13 5.470388
vt 2.362205 1.407396
vt 2.362205 5.470388
vt -1.119273E-13 13.16228
vt -1.136868E-13 1.519791E-29
vt -4.72441 13.16228
vt -2.362205 5.507411
vt -4.72441 5.507411
vt -2.362205 3.157848E-16
vt 1.136868E-13 -3.292798
vt 1.136868E-13 -1.79657
vt 2.362205 -3.292798
vt 2.362205 -1.79657
vt 11.73228 5.470388
vt 8.68504 5.470388
vt 11.73228 9.170041
vt 1.523622 13.0738
vt 8.68504 1.407396
vt -3.378833E-28 -7.065354E-28
vt 9.192913 1.407396
vt 9.700788 -8.857145E-28
vt 5.087126 13.0738

usemtl metalLight

f 3/3/1 2/2/1 1/1/1
f 2/2/1 3/3/1 4/4/1
f 4/4/1 3/3/1 5/5/1
f 5/5/1 3/3/1 6/6/1
f 7/9/2 3/8/2 1/7/2
f 3/8/2 7/9/2 8/10/2
f 8/10/2 7/9/2 9/11/2
f 11/14/3 7/13/3 10/12/3
f 7/13/3 11/14/3 9/15/3
f 12/18/4 9/17/4 11/16/4
f 9/17/4 12/18/4 8/19/4
f 6/22/5 8/21/5 12/20/5
f 8/21/5 6/22/5 3/23/5
f 2/7/2 14/25/2 13/24/2
f 14/25/2 2/7/2 15/26/2
f 15/26/2 2/7/2 4/27/2
f 16/28/2 14/25/2 15/26/2
f 14/31/1 17/30/1 13/29/1
f 17/30/1 14/31/1 18/32/1
f 20/35/3 15/34/3 19/33/3
f 15/34/3 20/35/3 16/36/3
f 15/39/5 5/38/5 19/37/5
f 5/38/5 15/39/5 4/40/5
f 7/43/6 17/42/6 10/41/6
f 17/42/6 7/43/6 2/44/6
f 2/44/6 7/43/6 1/45/6
f 13/46/6 17/42/6 2/44/6
f 14/49/7 20/48/7 18/47/7
f 20/48/7 14/49/7 16/50/7
f 12/53/8 5/52/8 6/51/8
f 10/54/8 5/52/8 12/53/8
f 10/54/8 19/55/8 5/52/8
f 17/56/8 19/55/8 10/54/8
f 17/56/8 20/57/8 19/55/8
f 20/57/8 17/56/8 18/58/8
f 10/54/8 12/53/8 11/59/8

