# Created by Kenney (www.kenney.nl)

mtllib object_016.mtl

g object_016

v 1 0 -1.192093E-07
v 0 0 0
v 1 0 0.9999999
v 1.192093E-07 0 1
v 0.25 0.0625 -2.980232E-08
v 0.25 0.03125 -2.980232E-08
v 0.3125 0.0625 -2.980232E-08
v 0.06250001 0.03125 -7.450581E-09
v 2.117582E-22 0.03125 1.443823E-15
v 0.5000001 0.0625 -5.960464E-08
v 0.5625001 0.09375 -5.960464E-08
v 0.5000001 0.09375 -5.960464E-08
v 0.7500001 0.09375 -1.192093E-07
v 0.8125001 0.125 -1.192093E-07
v 0.7500001 0.125 -1.192093E-07
v 1 0.125 -1.192093E-07
v 0.8125002 0.125 1
v 1 0.125 0.9999999
v 1.192093E-07 0.03125 1
v 0.06250013 0.03125 1
v 0.2500001 0.03125 1
v 0.2500001 0.0625 1
v 0.3125001 0.0625 1
v 0.5000002 0.0625 1
v 0.5000002 0.09375 1
v 0.5625002 0.09375 1
v 0.7500002 0.09375 1
v 0.7500002 0.125 1

vn 0 -2 0
vn -1.192093E-07 0 -1
vn 0 2 0
vn 1 0 -1.192093E-07
vn 1.192093E-07 0 1
vn -1 0 1.192093E-07

vt 0 39.37008
vt 0 0
vt -39.37008 39.37008
vt -39.37008 0
vt -9.84252 1.230315
vt -9.84252 0.6151575
vt -12.30315 1.230315
vt -39.37008 8.404155E-30
vt -2.46063 0.6151575
vt 6.565746E-30 0.6151575
vt -19.68504 1.230315
vt -22.14567 1.845472
vt -19.68504 1.845472
vt -29.52756 1.845472
vt -31.98819 2.46063
vt -29.52756 2.46063
vt -39.37008 2.46063
vt -2.614797E-12 31.98819
vt 39.37008 31.98819
vt 39.37008 39.37008
vt 0 2.46063
vt 0 0.6151575
vt 39.37008 0
vt 2.46063 0.6151575
vt 9.84252 0.6151575
vt 9.84252 1.230315
vt 12.30315 1.230315
vt 19.68504 1.230315
vt 19.68504 1.845472
vt 22.14567 1.845472
vt 29.52756 1.845472
vt 29.52756 2.46063
vt 31.98819 2.46063
vt 39.37008 2.46063
vt 5.684342E-14 2.46063
vt 5.684342E-14 9.84252
vt 39.37008 9.84252
vt 5.684342E-14 12.30315
vt 5.684342E-14 19.68504
vt 39.37008 12.30315
vt 39.37008 19.68504
vt 5.684342E-14 22.14567
vt 5.684342E-14 29.52756
vt 39.37008 22.14567
vt 39.37008 29.52756
vt 39.37008 0.6151575
vt 5.684342E-14 0.6151575
vt 39.37008 1.845472
vt 5.684342E-14 1.845472
vt 39.37008 1.230315
vt 5.684342E-14 1.230315
vt 5.684342E-14 0

usemtl metal

f 3/3/1 2/2/1 1/1/1
f 2/2/1 3/3/1 4/4/1
f 7/7/2 6/6/2 5/5/2
f 1/8/2 6/6/2 7/7/2
f 1/8/2 8/9/2 6/6/2
f 2/2/2 8/9/2 1/8/2
f 8/9/2 2/2/2 9/10/2
f 1/8/2 7/7/2 10/11/2
f 1/8/2 10/11/2 11/12/2
f 11/12/2 10/11/2 12/13/2
f 1/8/2 11/12/2 13/14/2
f 1/8/2 13/14/2 14/15/2
f 14/15/2 13/14/2 15/16/2
f 1/8/2 14/15/2 16/17/2
f 17/19/3 16/1/3 14/18/3
f 16/1/3 17/19/3 18/20/3
f 16/21/4 3/4/4 1/2/4
f 3/4/4 16/21/4 18/17/4
f 3/23/5 19/22/5 4/2/5
f 19/22/5 3/23/5 20/24/5
f 20/24/5 3/23/5 21/25/5
f 21/25/5 3/23/5 22/26/5
f 22/26/5 3/23/5 23/27/5
f 23/27/5 3/23/5 24/28/5
f 24/28/5 3/23/5 25/29/5
f 25/29/5 3/23/5 26/30/5
f 26/30/5 3/23/5 27/31/5
f 27/31/5 3/23/5 28/32/5
f 28/32/5 3/23/5 17/33/5
f 17/33/5 3/23/5 18/34/5
f 20/34/3 6/36/3 8/35/3
f 6/36/3 20/34/3 21/37/3
f 23/40/3 10/39/3 7/38/3
f 10/39/3 23/40/3 24/41/3
f 26/44/3 13/43/3 11/42/3
f 13/43/3 26/44/3 27/45/3

usemtl metalLight

f 19/46/6 2/2/6 4/23/6
f 2/2/6 19/46/6 9/47/6
f 28/34/6 13/49/6 27/48/6
f 13/49/6 28/34/6 15/35/6
f 22/50/6 6/47/6 21/46/6
f 6/47/6 22/50/6 5/51/6
f 25/48/6 10/51/6 24/50/6
f 10/51/6 25/48/6 12/49/6
f 19/23/3 8/35/3 9/52/3
f 8/35/3 19/23/3 20/34/3
f 25/41/3 11/42/3 12/39/3
f 11/42/3 25/41/3 26/44/3
f 15/43/3 17/19/3 14/18/3
f 17/19/3 15/43/3 28/45/3
f 22/37/3 7/38/3 5/36/3
f 7/38/3 22/37/3 23/40/3

