# Created by Kenney (www.kenney.nl)

mtllib object_069.mtl

g object_069

v -0.165 0.046875 0.05
v -0.165 0.09375 0.05
v -0.165 0.046875 0.58
v -0.165 0.09375 0.58
v -0.12375 0.09375 0.58
v -0.12375 0.09375 0.05
v -0.0825 0.09375 0.58
v -0.0825 0.09375 0.05
v -0.28 0 0
v -0.28 0.09375 0
v -0.28 0 0.05
v -0.28 0.09375 0.05
v -0.0825 0.140625 0.05
v -0.0825 0.140625 0.58
v -0.14 0.1875 0
v 0 0.1875 0.05
v 0 0.1875 0
v -0.14 0.1875 0.05
v 0 0 0
v 0 0 0.05
v 0 0.140625 0.05
v 0 0.140625 0.58
v 0 0 0.53
v 0 0 0.58
v -0.20625 0.046875 0.05
v -0.2475 0.046875 0.05
v -0.04125 0.140625 0.05
v -0.2475 0 0.05
v -0.2475 0 0.58
v -0.2475 0.046875 0.58
v -0.20625 0.046875 0.58
v -0.04125 0.140625 0.58

vn -1 0 0
vn 1 0 0
vn 0 -1 0
vn 0 0 1
vn 0 0 -1
vn 0 1 0
vn 0.556411 -0.8309072 0
vn -0.556411 0.8309072 0

vt 1.968504 1.845472
vt 1.968504 3.690945
vt 22.83465 1.845472
vt 22.83465 3.690945
vt 6.496063 1.968504
vt 4.872047 22.83465
vt 4.872047 1.968504
vt 6.496063 22.83465
vt 3.248031 22.83465
vt 3.248031 1.968504
vt 0 0
vt 0 3.690945
vt 1.968504 0
vt 1.968504 5.536417
vt 22.83465 5.536417
vt 5.511811 0
vt 0 1.968504
vt 5.511811 1.968504
vt 0 7.38189
vt -1.968504 7.38189
vt -1.968504 0
vt -1.968504 5.536417
vt -22.83465 5.536417
vt -20.86614 0
vt -22.83465 0
vt -6.496063 1.845472
vt -8.120079 1.845472
vt -6.496063 3.690945
vt -9.744095 1.845472
vt -11.02362 3.690945
vt -3.248031 5.536417
vt -4.872047 3.690945
vt -3.248031 3.690945
vt -5.511811 7.38189
vt 8.090896E-15 7.38189
vt -1.624016 5.536417
vt 8.090896E-15 5.536417
vt -11.02362 -1.340912E-14
vt -9.744095 -1.340912E-14
vt -9.744095 1.968504
vt -11.02362 0
vt -11.02362 1.968504
vt -9.744095 22.83465
vt 0 20.86614
vt 0 22.83465
vt 9.744095 5.423748E-14
vt 9.26766E-15 5.423748E-14
vt 9.744095 1.845472
vt 6.496063 1.845472
vt 3.248031 3.690945
vt 9.26766E-15 5.536417
vt 8.120079 1.845472
vt 6.496063 3.690945
vt 4.872047 3.690945
vt 3.248031 5.536417
vt 1.624016 5.536417
vt 22.83465 0
vt 9.744095 1.968504
vt 8.120079 22.83465
vt 8.120079 1.968504
vt 9.744095 22.83465
vt -1.162411E-27 -7.105924
vt 1.968504 -0.4724382
vt -5.812053E-28 -0.4724382
vt 1.968504 -7.105924
vt 1.624016 1.968504
vt 1.624016 22.83465
vt -11.02362 -5.583118E-31

usemtl metal

f 3/3/1 2/2/1 1/1/1
f 2/2/1 3/3/1 4/4/1
f 1/1/2 2/2/2 3/3/2
f 4/4/2 3/3/2 2/2/2
f 6/7/3 5/6/3 2/5/3
f 4/8/3 2/5/3 5/6/3
f 5/6/3 6/7/3 7/9/3
f 8/10/3 7/9/3 6/7/3
f 11/13/1 10/12/1 9/11/1
f 10/12/1 11/13/1 12/2/1
f 9/11/2 10/12/2 11/13/2
f 12/2/2 11/13/2 10/12/2
f 7/4/1 13/14/1 8/2/1
f 13/14/1 7/4/1 14/15/1
f 8/2/2 13/14/2 7/4/2
f 14/15/2 7/4/2 13/14/2
f 17/11/3 16/17/3 15/16/3
f 18/18/3 15/16/3 16/17/3
f 16/20/2 19/11/2 17/19/2
f 19/11/2 16/20/2 20/21/2
f 20/21/2 16/20/2 21/22/2
f 20/21/2 21/22/2 22/23/2
f 20/21/2 22/23/2 23/24/2
f 23/24/2 22/23/2 24/25/2
f 17/19/1 19/11/1 16/20/1
f 20/21/1 16/20/1 19/11/1
f 21/22/1 16/20/1 20/21/1
f 22/23/1 21/22/1 20/21/1
f 23/24/1 22/23/1 20/21/1
f 24/25/1 22/23/1 23/24/1
f 2/28/4 25/27/4 1/26/4
f 25/27/4 2/28/4 26/29/4
f 12/30/4 26/29/4 2/28/4
f 2/28/4 13/31/4 12/30/4
f 6/32/4 13/31/4 2/28/4
f 13/31/4 6/32/4 8/33/4
f 12/30/4 13/31/4 18/34/4
f 18/34/4 13/31/4 16/35/4
f 27/36/4 16/35/4 13/31/4
f 16/35/4 27/36/4 21/37/4
f 11/38/4 26/29/4 12/30/4
f 26/29/4 11/38/4 28/39/4
f 1/26/5 25/27/5 2/28/5
f 26/29/5 2/28/5 25/27/5
f 2/28/5 26/29/5 12/30/5
f 12/30/5 13/31/5 2/28/5
f 2/28/5 13/31/5 6/32/5
f 8/33/5 6/32/5 13/31/5
f 18/34/5 13/31/5 12/30/5
f 16/35/5 13/31/5 18/34/5
f 13/31/5 16/35/5 27/36/5
f 21/37/5 27/36/5 16/35/5
f 12/30/5 26/29/5 11/38/5
f 28/39/5 11/38/5 26/29/5
f 28/40/3 19/11/3 20/17/3
f 19/11/3 28/40/3 9/41/3
f 9/41/3 28/40/3 11/42/3
f 20/17/3 29/43/3 28/40/3
f 23/44/3 29/43/3 20/17/3
f 29/43/3 23/44/3 24/45/3
f 20/17/6 19/11/6 28/40/6
f 9/41/6 28/40/6 19/11/6
f 11/42/6 28/40/6 9/41/6
f 28/40/6 29/43/6 20/17/6
f 20/17/6 29/43/6 23/44/6
f 24/45/6 23/44/6 29/43/6
f 30/48/5 24/47/5 29/46/5
f 24/47/5 30/48/5 3/49/5
f 24/47/5 3/49/5 7/50/5
f 24/47/5 7/50/5 22/51/5
f 3/49/5 30/48/5 31/52/5
f 7/50/5 3/49/5 4/53/5
f 7/50/5 4/53/5 5/54/5
f 22/51/5 7/50/5 14/55/5
f 22/51/5 14/55/5 32/56/5
f 29/46/4 24/47/4 30/48/4
f 3/49/4 30/48/4 24/47/4
f 7/50/4 3/49/4 24/47/4
f 22/51/4 7/50/4 24/47/4
f 31/52/4 30/48/4 3/49/4
f 4/53/4 3/49/4 7/50/4
f 5/54/4 4/53/4 7/50/4
f 14/55/4 7/50/4 22/51/4
f 32/56/4 14/55/4 22/51/4
f 29/57/1 26/1/1 28/13/1
f 26/1/1 29/57/1 30/3/1
f 28/13/2 26/1/2 29/57/2
f 30/3/2 29/57/2 26/1/2
f 25/60/3 31/59/3 26/58/3
f 30/61/3 26/58/3 31/59/3
f 31/59/3 25/60/3 3/8/3
f 1/5/3 3/8/3 25/60/3
f 15/64/7 18/63/7 10/62/7
f 12/65/7 10/62/7 18/63/7
f 27/66/6 22/45/6 21/17/6
f 22/45/6 27/66/6 32/67/6
f 21/17/3 22/45/3 27/66/3
f 32/67/3 27/66/3 22/45/3
f 27/66/3 32/67/3 13/10/3
f 14/9/3 13/10/3 32/67/3
f 25/60/6 3/8/6 1/5/6
f 3/8/6 25/60/6 31/59/6
f 6/7/6 7/9/6 8/10/6
f 7/9/6 6/7/6 5/6/6
f 17/19/4 9/68/4 19/11/4
f 9/68/4 17/19/4 10/30/4
f 10/30/4 17/19/4 15/34/4
f 19/11/5 9/68/5 17/19/5
f 10/30/5 17/19/5 9/68/5
f 15/34/5 17/19/5 10/30/5

usemtl metalLight

f 2/5/6 5/6/6 6/7/6
f 5/6/6 2/5/6 4/8/6
f 15/16/6 16/17/6 17/11/6
f 16/17/6 15/16/6 18/18/6
f 26/58/6 31/59/6 25/60/6
f 31/59/6 26/58/6 30/61/6
f 10/62/8 18/63/8 15/64/8
f 18/63/8 10/62/8 12/65/8
f 13/10/6 32/67/6 27/66/6
f 32/67/6 13/10/6 14/9/6

