# Created by Kenney (www.kenney.nl)

mtllib object_001.mtl

g object_001

v 0 1 0
v 0 0 0
v 0 1 1
v 0 0 1
v -0.1875 0 1
v -0.1875 0 0
v -0.25 0.875 0
v -0.25 1 0
v -0.25 0.875 1
v -0.25 1 1
v -0.125 0.125 1
v -0.125 0.75 1
v -0.1875 0.125 1
v -0.1875 0.125 0
v -0.125 0.125 0
v -0.125 0.75 0
v -0.125 0.75 0.375
v -0.15625 0.78125 0.375
v -0.125 0.75 0.625
v -0.15625 0.78125 0.625
v -0.125 0.125 0.375
v -0.15625 0.125 0.375
v -0.15625 0.125 0.625
v -0.125 0.125 0.625

vn 1 0 0
vn 0 -1 0
vn -1 0 0
vn 0 1 0
vn 0 0 1
vn 0 0 -1
vn -0.7071068 -0.7071068 0

vt 0 39.37008
vt 0 0
vt -39.37008 39.37008
vt -39.37008 0
vt -7.38189 39.37008
vt -7.38189 0
vt 0 34.44882
vt 39.37008 34.44882
vt 39.37008 39.37008
vt 9.84252 0
vt 9.84252 39.37008
vt -4.92126 4.92126
vt -4.92126 29.52756
vt -9.84252 34.44882
vt -9.84252 39.37008
vt -7.38189 4.92126
vt 7.38189 0
vt 7.38189 4.92126
vt 4.92126 4.92126
vt 4.92126 29.52756
vt 9.84252 34.44882
vt 14.76378 24.35899
vt 14.76378 26.09892
vt 24.6063 24.35899
vt 24.6063 26.09892
vt 39.37008 24.35899
vt 0 31.31871
vt 0 24.35899
vt 39.37008 31.31871
vt 4.92126 0
vt 4.92126 14.76378
vt 6.151575 14.76378
vt 6.151575 24.6063
vt 7.38189 39.37008
vt 4.92126 39.37008
vt 4.92126 24.6063
vt 0 4.92126
vt 39.37008 0
vt 39.37008 4.92126
vt 6.151575 4.92126
vt 6.151575 30.75787
vt 14.76378 4.92126
vt 14.76378 30.75787
vt 24.6063 4.92126
vt 24.6063 30.75787
vt -6.151575 4.92126
vt -6.151575 30.75787
vt 24.6063 29.52756
vt 39.37008 29.52756
vt 0 29.52756
vt 14.76378 29.52756

usemtl metalLight

f 3/3/1 2/2/1 1/1/1
f 2/2/1 3/3/1 4/4/1
f 5/5/2 2/2/2 4/1/2
f 2/2/2 5/5/2 6/6/2
f 9/8/3 8/1/3 7/7/3
f 8/1/3 9/8/3 10/9/3
f 8/10/4 3/1/4 1/2/4
f 3/1/4 8/10/4 10/11/4
f 4/2/5 11/12/5 5/6/5
f 11/12/5 4/2/5 3/1/5
f 11/12/5 3/1/5 12/13/5
f 12/13/5 3/1/5 9/14/5
f 9/14/5 3/1/5 10/15/5
f 13/16/5 5/6/5 11/12/5
f 14/18/6 2/2/6 6/17/6
f 2/2/6 14/18/6 15/19/6
f 2/2/6 15/19/6 1/1/6
f 1/1/6 15/19/6 16/20/6
f 1/1/6 16/20/6 7/21/6
f 1/1/6 7/21/6 8/11/6
f 19/24/7 18/23/7 17/22/7
f 18/23/7 19/24/7 20/25/7
f 12/26/7 20/25/7 19/24/7
f 7/27/7 17/22/7 18/23/7
f 17/22/7 7/27/7 16/28/7
f 7/27/7 18/23/7 9/29/7
f 9/29/7 18/23/7 20/25/7
f 9/29/7 20/25/7 12/26/7
f 14/17/4 21/31/4 15/30/4
f 21/31/4 14/17/4 22/32/4
f 22/32/4 14/17/4 23/33/4
f 13/34/4 23/33/4 14/17/4
f 11/35/4 23/33/4 13/34/4
f 23/33/4 11/35/4 24/36/4
f 5/38/3 14/37/3 6/2/3
f 14/37/3 5/38/3 13/39/3
f 18/41/6 21/19/6 22/40/6
f 21/19/6 18/41/6 17/20/6
f 23/44/3 18/43/3 22/42/3
f 18/43/3 23/44/3 20/45/3
f 19/13/5 23/46/5 24/12/5
f 23/46/5 19/13/5 20/47/5

usemtl metal

f 11/39/3 19/48/3 24/44/3
f 19/48/3 11/39/3 12/49/3
f 21/42/3 16/50/3 15/37/3
f 16/50/3 21/42/3 17/51/3

