# Created by Kenney (www.kenney.nl)

mtllib object_027.mtl

g object_027

v 0 0 0
v 1.192093E-07 0 -1
v -1 0 -1.192093E-07
v -1 0 -1
v 0 0.0625 0
v -0.1252849 0.0625 -1.490116E-08
v -0.1627564 0.0425 -1.490116E-08
v -0.8372438 0.0425 -1.192093E-07
v -0.8747152 0.0625 -1.192093E-07
v -1 0.0625 -1.192093E-07
v -1 0.0625 -1
v 1.192093E-07 0.0625 -1
v -0.8747151 0.0625 -0.8747153
v -0.8372437 0.0425 -0.8372439
v -0.1627563 0.0425 -0.8372438
v -0.1252847 0.0625 -0.8747152

vn 0 -1 0
vn -1.192093E-07 0 1
vn -1 0 -1.192093E-07
vn 1 0 1.192093E-07
vn 0.4708667 0.8822044 5.960464E-08
vn -0.4708667 0.8822044 -5.960464E-08
vn 0 1 0
vn 1.192093E-07 0 -1
vn -5.960464E-08 0.8822044 0.4708667

vt 0 0
vt -39.37008 -1.421085E-14
vt -5.684342E-14 39.37008
vt -39.37008 39.37008
vt 0 2.46063
vt -4.932475 2.46063
vt -6.407731 1.673228
vt -39.37008 0
vt -32.96235 1.673228
vt -34.4376 2.46063
vt -39.37008 2.46063
vt -5.684342E-14 0
vt -5.684342E-14 2.46063
vt 39.37008 0
vt 39.37008 2.46063
vt -5.682024E-14 31.53963
vt 34.4376 31.53963
vt 5.68656E-14 29.8674
vt 32.96235 29.8674
vt 5.683587E-14 -4.865061
vt -32.96235 -4.865061
vt -5.684923E-14 -3.192822
vt -34.4376 -3.192822
vt 5.684342E-14 4.932475
vt 39.37008 -1.421085E-14
vt 34.4376 4.932475
vt 39.37008 39.37008
vt 34.4376 34.4376
vt 5.684342E-14 39.37008
vt -5.684342E-14 34.4376
vt -1.421085E-14 0
vt -1.421085E-14 2.46063
vt -6.407731 29.8674
vt -32.96235 29.8674
vt -4.932475 31.53963
vt -34.4376 31.53963
vt -5.684342E-14 6.407731
vt 5.684342E-14 32.96235
vt 32.96235 6.407731
vt 32.96235 32.96235

usemtl metal

f 3/3/1 2/2/1 1/1/1
f 2/2/1 3/3/1 4/4/1
f 6/6/2 1/1/2 5/5/2
f 1/1/2 6/6/2 7/7/2
f 1/1/2 7/7/2 3/8/2
f 3/8/2 7/7/2 8/9/2
f 3/8/2 8/9/2 9/10/2
f 3/8/2 9/10/2 10/11/2
f 10/13/3 4/8/3 3/12/3
f 4/8/3 10/13/3 11/11/3
f 12/15/4 1/1/4 2/14/4
f 1/1/4 12/15/4 5/5/4
f 8/18/5 13/17/5 9/16/5
f 13/17/5 8/18/5 14/19/5
f 6/22/6 15/21/6 7/20/6
f 15/21/6 6/22/6 16/23/6
f 12/25/7 6/24/7 5/1/7
f 6/24/7 12/25/7 16/26/7
f 11/27/7 16/26/7 12/25/7
f 11/27/7 13/28/7 16/26/7
f 10/29/7 13/28/7 11/27/7
f 13/28/7 10/29/7 9/30/7
f 4/14/8 12/32/8 2/31/8
f 12/32/8 4/14/8 11/15/8
f 16/35/9 14/34/9 15/33/9
f 14/34/9 16/35/9 13/36/9

usemtl metalLight

f 15/39/7 8/38/7 7/37/7
f 8/38/7 15/39/7 14/40/7

