# Created by Kenney (www.kenney.nl)

mtllib object_002.mtl

g object_002

v 0.8125002 2.255973E-17 0.8149999
v 1.192092E-07 2.255973E-17 0.8150001
v 0.8125002 2.255973E-17 1.0025
v 1.192092E-07 2.255973E-17 1.0025
v -0.1874999 0 0.8150001
v 0 0 0
v -0.1875 0 2.980232E-08
v 1.192092E-07 1 0.8150001
v 1.192092E-07 0.75 0.8150001
v 0.8125002 1 0.8149999
v 1.192092E-07 0.875 1.065
v 1.192092E-07 1 1.065
v 0.8125002 0.875 1.065
v 0.8125002 1 1.065
v -0.25 1 2.980232E-08
v 0 1 0
v -0.2499999 1 0.8150001
v 0.8125002 0.125 0.9399999
v 0.8125002 0.75 0.9399999
v 0.8125002 0.125 1.0025
v 1.192092E-07 0.75 0.9400001
v 1.192092E-07 0.125 1.0025
v -0.25 0.875 2.980232E-08
v -0.125 0.75 1.490116E-08
v -0.125 0.125 1.490116E-08
v -0.1875 0.125 2.980232E-08
v -0.2499999 0.875 0.8150001
v -0.1249999 0.75 0.8150001
v -0.1874999 0.125 0.8150001
v -0.1249999 0.125 0.8150001
v 1.192092E-07 0.125 0.9400001

vn 0 -1 0
vn -1.192093E-07 0 -1
vn 1.192093E-07 0 1
vn 0 1 0
vn 1 0 -1.192093E-07
vn 5.960464E-08 -0.7071068 0.7071068
vn -1 0 1.192093E-07
vn -0.7071068 -0.7071068 5.960464E-08
vn -0.5773503 -0.5773503 0.5773504
vn -0.7071068 0 0.7071069

vt -32.08661 31.98819
vt -32.08661 -2.33058E-12
vt -39.4685 31.98819
vt -39.4685 -2.387424E-12
vt -32.08661 -7.38189
vt 0 0
vt 5.684342E-13 -7.38189
vt 2.358967E-12 39.37008
vt 2.302124E-12 29.52756
vt -31.98819 39.37008
vt -31.98819 8.881784E-16
vt 2.358967E-12 8.881784E-16
vt -2.481361E-12 34.44882
vt -2.481361E-12 39.37008
vt 31.98819 34.44882
vt 31.98819 39.37008
vt -7.315452E-13 -9.84252
vt 7.419266E-15 -2.418813E-16
vt 32.08661 -9.84252
vt 32.08661 -2.330822E-12
vt 41.92913 -2.444509E-12
vt 32.08661 31.98819
vt 41.92913 31.98819
vt -39.4685 1.789436E-14
vt -37.00787 4.92126
vt -32.08661 1.789436E-14
vt -32.08661 39.37008
vt -37.00787 29.52756
vt -41.92913 34.44882
vt -41.92913 39.37008
vt -39.4685 4.92126
vt 31.98819 47.04766
vt -2.420035E-12 47.04766
vt 31.98819 54.00737
vt -2.481215E-12 54.00737
vt -2.422341E-12 8.881784E-16
vt -2.422341E-12 4.92126
vt 31.98819 8.881784E-16
vt 31.98819 4.92126
vt 9.84252 39.37008
vt 9.84252 34.44882
vt 0 39.37008
vt 4.92126 29.52756
vt 4.92126 4.92126
vt 7.38189 7.142437E-31
vt 7.38189 4.92126
vt -32.08661 8.881784E-16
vt -32.08661 29.52756
vt 32.08661 34.44882
vt -1.334841E-14 34.44882
vt 32.08661 39.37008
vt -1.334841E-14 39.37008
vt 32.08661 24.35899
vt -3.949305E-14 24.35899
vt 32.08661 31.31871
vt -2.214268E-14 31.31871
vt 32.08661 -1.790568E-12
vt -3.119266E-13 -1.790568E-12
vt 32.08661 4.92126
vt -3.119266E-13 4.92126
vt -5.687655E-13 -7.38189
vt -3.982352E-13 -4.92126
vt 32.08661 -7.38189
vt 32.08661 -4.92126
vt 39.4685 -2.386951E-12
vt 37.00787 -2.386951E-12
vt 37.00787 31.98819
vt 39.4685 31.98819
vt 32.08661 -2.422951E-12
vt 37.00787 -2.536638E-12
vt 26.16852 39.21755
vt 19.20881 39.21755
vt 29.64837 45.24484
vt 15.72895 45.24484
vt 29.64837 34.44882
vt 15.72895 34.44882
vt 29.64837 39.37008
vt 15.72895 39.37008
vt 17.46888 -4.332165E-12
vt 17.46888 4.92126
vt 27.90845 -4.331277E-12
vt 27.90845 4.92126
vt -2.420164E-12 4.92126
vt -2.420164E-12 29.52756
vt 31.98819 29.52756
vt -4.381423E-14 4.92126
vt 32.08661 29.52756
vt -4.381423E-14 29.52756
vt 19.20881 4.92126
vt 19.20881 29.52756
vt 26.16852 4.92126
vt 26.16852 29.52756

usemtl metalLight

f 3/3/1 2/2/1 1/1/1
f 2/2/1 3/3/1 4/4/1
f 4/4/1 5/5/1 2/2/1
f 5/5/1 6/6/1 2/2/1
f 6/6/1 5/5/1 7/7/1
f 10/10/2 9/9/2 8/8/2
f 1/11/2 9/9/2 10/10/2
f 9/9/2 1/11/2 2/12/2
f 13/15/3 12/14/3 11/13/3
f 12/14/3 13/15/3 14/16/3
f 17/19/4 16/18/4 15/17/4
f 16/18/4 17/19/4 8/20/4
f 8/20/4 17/19/4 12/21/4
f 8/20/4 12/21/4 10/22/4
f 10/22/4 12/21/4 14/23/4
f 1/26/5 18/25/5 3/24/5
f 18/25/5 1/26/5 10/27/5
f 18/25/5 10/27/5 19/28/5
f 19/28/5 10/27/5 13/29/5
f 13/29/5 10/27/5 14/30/5
f 20/31/5 3/24/5 18/25/5
f 13/34/6 21/33/6 19/32/6
f 21/33/6 13/34/6 11/35/6
f 3/38/3 22/37/3 4/36/3
f 22/37/3 3/38/3 20/39/3
f 16/42/2 23/41/2 15/40/2
f 23/41/2 16/42/2 24/43/2
f 24/43/2 16/42/2 25/44/2
f 6/6/2 25/44/2 16/42/2
f 7/45/2 25/44/2 6/6/2
f 25/44/2 7/45/2 26/46/2
f 16/42/5 2/47/5 6/6/5
f 2/47/5 16/42/5 9/48/5
f 9/48/5 16/42/5 8/27/5
f 17/51/7 23/50/7 27/49/7
f 23/50/7 17/51/7 15/52/7
f 27/55/8 24/54/8 28/53/8
f 24/54/8 27/55/8 23/56/8
f 29/59/7 7/58/7 5/57/7
f 7/58/7 29/59/7 26/60/7
f 29/63/4 25/62/4 26/61/4
f 25/62/4 29/63/4 30/64/4
f 30/64/4 29/63/4 22/65/4
f 30/64/4 22/65/4 31/66/4
f 31/66/4 22/65/4 18/67/4
f 18/67/4 22/65/4 20/68/4
f 21/70/4 9/69/4 28/64/4
f 11/73/9 28/72/9 21/71/9
f 28/72/9 11/73/9 27/74/9
f 12/77/10 27/76/10 11/75/10
f 27/76/10 12/77/10 17/78/10
f 4/81/10 29/80/10 5/79/10
f 29/80/10 4/81/10 22/82/10

usemtl metal

f 18/39/3 21/84/3 31/83/3
f 21/84/3 18/39/3 19/85/3
f 28/87/7 25/86/7 30/59/7
f 25/86/7 28/87/7 24/88/7
f 31/91/10 28/90/10 30/89/10
f 28/90/10 31/91/10 21/92/10

