# Created by Kenney (www.kenney.nl)

mtllib object_004.mtl

g object_004

v 0 0.75 0.25
v 0 0 0
v 0 -1.127987E-17 0.25
v 0 1 0
v 0 1 1
v 0 0.75 0.75
v 0 0 0.75
v 0 0 1
v -0.1875 0 1
v -0.125 0 0.75
v -0.1875 0 0.8125
v -0.25 0.875 0
v -0.25 1 0
v -0.25 0.875 1
v -0.25 1 1
v -0.125 0.125 1
v -0.125 0.75 1
v -0.1875 0.125 1
v -0.1875 0 0
v -0.1875 0.125 0
v -0.125 0.125 0
v -0.125 0.75 0
v -0.125 0.75 0.75
v -0.125 0.75 0.25
v -0.125 0.125 0.75
v -0.1875 0.125 0.8125
v -0.125 0.125 0.25
v -0.1875 0.125 0.1875
v -0.125 -1.127987E-17 0.25
v -0.1875 0 0.1875

vn 1 0 0
vn 0 -1 0
vn -1 0 0
vn 0 1 0
vn 0 0 1
vn 0 0 -1
vn -0.7071068 -0.7071068 0
vn -0.7071068 0 0.7071068
vn -0.7071068 0 -0.7071068

vt -9.84252 29.52756
vt 0 0
vt -9.84252 -4.440892E-16
vt 0 39.37008
vt -39.37008 39.37008
vt -29.52756 29.52756
vt -29.52756 0
vt -39.37008 0
vt 0 29.52756
vt -7.38189 39.37008
vt -4.92126 29.52756
vt -7.38189 31.98819
vt 0 34.44882
vt 39.37008 34.44882
vt 39.37008 39.37008
vt 9.84252 0
vt 9.84252 39.37008
vt -7.38189 0
vt -4.92126 4.92126
vt -9.84252 34.44882
vt -9.84252 39.37008
vt -7.38189 4.92126
vt 7.38189 0
vt 7.38189 4.92126
vt 4.92126 4.92126
vt 4.92126 29.52756
vt 9.84252 34.44882
vt 39.37008 24.35899
vt 29.52756 24.35899
vt 39.37008 31.31871
vt 9.84252 24.35899
vt 0 24.35899
vt 0 31.31871
vt 4.92126 39.37008
vt 7.38189 31.98819
vt 7.38189 39.37008
vt 4.92126 0
vt 4.92126 9.84252
vt 7.38189 7.38189
vt 0 9.84252
vt -4.92126 9.84252
vt 31.98819 0
vt 31.98819 4.92126
vt 39.37008 0
vt 39.37008 4.92126
vt 6.327495E-33 9.84252
vt -7.38189 4.495852E-33
vt -7.38189 7.38189
vt 0 4.92126
vt 4.440892E-15 1.353584E-16
vt 4.440892E-15 4.92126
vt 3.479856 -3.087308E-16
vt 3.479856 4.92126
vt 27.83885 0
vt 24.35899 0
vt 27.83885 4.92126
vt 24.35899 4.92126
vt 9.84252 4.92126
vt 9.84252 29.52756
vt 29.52756 4.92126
vt 29.52756 29.52756
vt 39.37008 29.52756
vt 4.92126 -3.675221E-15
vt 1.102566E-15 -3.675221E-15
vt 1.102566E-15 29.52756
vt 0 -4.440892E-16
vt -4.92126 -4.440892E-16

usemtl metalLight

f 3/3/1 2/2/1 1/1/1
f 4/4/1 1/1/1 2/2/1
f 1/1/1 4/4/1 5/5/1
f 1/1/1 5/5/1 6/6/1
f 6/6/1 5/5/1 7/7/1
f 7/7/1 5/5/1 8/8/1
f 9/10/2 7/9/2 8/4/2
f 7/9/2 9/10/2 10/11/2
f 10/11/2 9/10/2 11/12/2
f 14/14/3 13/4/3 12/13/3
f 13/4/3 14/14/3 15/15/3
f 13/16/4 5/4/4 4/2/4
f 5/4/4 13/16/4 15/17/4
f 8/2/5 16/19/5 9/18/5
f 16/19/5 8/2/5 5/4/5
f 16/19/5 5/4/5 17/11/5
f 17/11/5 5/4/5 14/20/5
f 14/20/5 5/4/5 15/21/5
f 18/22/5 9/18/5 16/19/5
f 20/24/6 2/2/6 19/23/6
f 2/2/6 20/24/6 21/25/6
f 2/2/6 21/25/6 4/4/6
f 4/4/6 21/25/6 22/26/6
f 4/4/6 22/26/6 12/27/6
f 4/4/6 12/27/6 13/17/6
f 14/30/7 23/29/7 17/28/7
f 23/29/7 14/30/7 24/31/7
f 24/31/7 14/30/7 22/32/7
f 22/32/7 14/30/7 12/33/7
f 26/35/4 16/34/4 25/26/4
f 16/34/4 26/35/4 18/36/4
f 20/23/4 27/38/4 21/37/4
f 27/38/4 20/23/4 28/39/4
f 23/11/2 1/40/2 6/9/2
f 1/40/2 23/11/2 24/41/2
f 9/44/3 26/43/3 11/42/3
f 26/43/3 9/44/3 18/45/3
f 29/41/2 2/2/2 3/46/2
f 2/2/2 29/41/2 19/47/2
f 19/47/2 29/41/2 30/48/2
f 30/23/3 20/49/3 19/2/3
f 20/49/3 30/23/3 28/24/3
f 29/52/8 28/51/8 30/50/8
f 28/51/8 29/52/8 27/53/8
f 26/56/9 10/55/9 11/54/9
f 10/55/9 26/56/9 25/57/9

usemtl metal

f 27/58/3 22/9/3 21/49/3
f 22/9/3 27/58/3 24/59/3
f 16/45/3 23/61/3 25/60/3
f 23/61/3 16/45/3 17/62/3
f 25/25/6 7/64/6 10/63/6
f 7/64/6 25/25/6 6/65/6
f 6/65/6 25/25/6 23/26/6
f 1/9/5 29/67/5 3/66/5
f 29/67/5 1/9/5 27/19/5
f 27/19/5 1/9/5 24/11/5

