# Created by Kenney (www.kenney.nl)

mtllib object_062.mtl

g object_062

v -0.04 0 0.0247
v -0.04 0.19 0.0247
v -0.04 0 0.1053
v -0.04 0.19 0.1053
v 0 0.19 0
v 0 0 0
v 0 0.19 0.13
v 0 0 0.13

vn -1 0 0
vn 1 0 0
vn -0.5254024 0 0.8508539
vn 0 1 0
vn -0.5254024 0 -0.8508539
vn 0 -1 0

vt 0.972441 0
vt 0.972441 7.480315
vt 4.145669 0
vt 4.145669 7.480315
vt 0 7.480315
vt 0 0
vt -5.11811 7.480315
vt -5.11811 0
vt 2.689067 0
vt 0.8382167 0
vt 2.689067 7.480315
vt 0.8382167 7.480315
vt 0 5.11811
vt 1.574803 0.972441
vt 1.574803 4.145669
vt 1.85085 -1.155558E-33
vt 1.85085 7.480315
vt -1.574803 4.145669
vt -1.574803 0.972441

usemtl metalLight

f 3/3/1 2/2/1 1/1/1
f 2/2/1 3/3/1 4/4/1
f 7/7/2 6/6/2 5/5/2
f 6/6/2 7/7/2 8/8/2
f 7/11/3 3/10/3 8/9/3
f 3/10/3 7/11/3 4/12/3
f 2/14/4 7/13/4 5/6/4
f 7/13/4 2/14/4 4/15/4
f 2/17/5 6/6/5 1/16/5
f 6/6/5 2/17/5 5/5/5
f 3/18/6 6/6/6 8/13/6
f 6/6/6 3/18/6 1/19/6

