# Created by Kenney (www.kenney.nl)

mtllib object.mtl

g object

v 0 1 0
v 0 0 0
v 0 1 1
v 0 0 1
v -0.1875 0 1
v -0.1875 0 0
v -0.25 0.875 0
v -0.25 1 0
v -0.25 0.875 1
v -0.25 1 1
v -0.125 0.125 1
v -0.125 0.75 1
v -0.1875 0.125 1
v -0.1875 0.125 0
v -0.125 0.125 0
v -0.125 0.75 0

vn 1 0 0
vn 0 -1 0
vn -1 0 0
vn 0 1 0
vn 0 0 1
vn 0 0 -1
vn -0.7071068 -0.7071068 0

vt 0 39.37008
vt 0 0
vt -39.37008 39.37008
vt -39.37008 0
vt -7.38189 39.37008
vt -7.38189 0
vt 0 34.44882
vt 39.37008 34.44882
vt 39.37008 39.37008
vt 9.84252 0
vt 9.84252 39.37008
vt -4.92126 4.92126
vt -4.92126 29.52756
vt -9.84252 34.44882
vt -9.84252 39.37008
vt -7.38189 4.92126
vt 7.38189 0
vt 7.38189 4.92126
vt 4.92126 4.92126
vt 4.92126 29.52756
vt 9.84252 34.44882
vt 39.37008 24.35899
vt 0 24.35899
vt 39.37008 31.31871
vt 0 31.31871
vt 0 4.92126
vt 39.37008 0
vt 39.37008 4.92126
vt 4.92126 0
vt 4.92126 39.37008
vt 7.38189 39.37008
vt 0 29.52756
vt 39.37008 29.52756

usemtl metalLight

f 3/3/1 2/2/1 1/1/1
f 2/2/1 3/3/1 4/4/1
f 5/5/2 2/2/2 4/1/2
f 2/2/2 5/5/2 6/6/2
f 9/8/3 8/1/3 7/7/3
f 8/1/3 9/8/3 10/9/3
f 8/10/4 3/1/4 1/2/4
f 3/1/4 8/10/4 10/11/4
f 4/2/5 11/12/5 5/6/5
f 11/12/5 4/2/5 3/1/5
f 11/12/5 3/1/5 12/13/5
f 12/13/5 3/1/5 9/14/5
f 9/14/5 3/1/5 10/15/5
f 13/16/5 5/6/5 11/12/5
f 14/18/6 2/2/6 6/17/6
f 2/2/6 14/18/6 15/19/6
f 2/2/6 15/19/6 1/1/6
f 1/1/6 15/19/6 16/20/6
f 1/1/6 16/20/6 7/21/6
f 1/1/6 7/21/6 8/11/6
f 9/24/7 16/23/7 12/22/7
f 16/23/7 9/24/7 7/25/7
f 5/27/3 14/26/3 6/2/3
f 14/26/3 5/27/3 13/28/3
f 14/17/4 11/30/4 15/29/4
f 11/30/4 14/17/4 13/31/4

usemtl metal

f 11/28/3 16/32/3 15/26/3
f 16/32/3 11/28/3 12/33/3

