# Created by Kenney (www.kenney.nl)

mtllib object_028.mtl

g object_028

v 0 0 0.5
v 0 0 0
v -0.0625 1.127987E-17 0.5
v -0.0625 0 0
v 0 0.75 0
v 0 0.75 0.5
v -0.0625 0.75 0
v -0.0625 0.75 0.5
v 0 0.625 0.125
v 0 0.625 0.375
v -3.609557E-16 0.125 0.375
v -3.609557E-16 0.125 0.125
v -0.0625 0.125 0.125
v -0.0625 0.125 0.375
v -0.0625 0.625 0.375
v -0.0625 0.625 0.125
v -0.0234375 0.25 0.125
v -0.046875 0.25 0.125
v -0.0234375 0.375 0.125
v -0.046875 0.375 0.125
v -0.046875 0.25 0.375
v -0.046875 0.375 0.375
v -0.0234375 0.375 0.375
v -0.0234375 0.25 0.375

vn 0 -1 0
vn 0 1 0
vn 1 0 0
vn 0 0 1
vn -1 0 0
vn 0 0 -1

vt 0 19.68504
vt 0 0
vt -2.46063 19.68504
vt -2.46063 -2.504633E-33
vt 2.664535E-15 3.330669E-16
vt 2.664535E-15 19.68504
vt 2.46063 3.330669E-16
vt 2.46063 19.68504
vt -4.92126 24.6063
vt 0 29.52756
vt -19.68504 29.52756
vt -14.76378 24.6063
vt -14.76378 4.92126
vt -4.92126 4.92126
vt -19.68504 0
vt -4.007413E-32 -2.220446E-16
vt -2.46063 2.220446E-16
vt -4.007413E-32 29.52756
vt -2.46063 29.52756
vt 5.009267E-33 29.52756
vt 4.92126 4.92126
vt 5.009267E-33 -2.220446E-16
vt 19.68504 2.220446E-16
vt 14.76378 4.92126
vt 14.76378 24.6063
vt 4.92126 24.6063
vt 19.68504 29.52756
vt 2.46063 0
vt 2.46063 29.52756
vt -1.110223E-15 14.76378
vt -1.110223E-15 4.92126
vt -2.46063 14.76378
vt -2.46063 4.92126
vt -0.9227362 9.84252
vt -1.421085E-14 4.92126
vt 0 24.6063
vt -1.845472 9.84252
vt -0.9227362 14.76378
vt -1.845472 14.76378
vt -2.46063 24.6063
vt 1.44329E-14 4.92126
vt 1.44329E-14 14.76378
vt 2.46063 4.92126
vt 2.46063 14.76378
vt 1.421085E-14 4.92126
vt 1.845472 9.84252
vt 2.46063 24.6063
vt 1.845472 14.76378
vt 0.9227362 14.76378
vt 0.9227362 9.84252
vt 0.9227362 4.92126
vt 1.845472 4.92126
vt 4.92126 9.84252
vt 4.92126 14.76378
vt 14.76378 9.84252
vt 14.76378 14.76378
vt -0.9227362 4.92126
vt -1.845472 4.92126
vt -4.92126 14.76378
vt -4.92126 9.84252
vt -14.76378 14.76378
vt -14.76378 9.84252

usemtl metalLight

f 3/3/1 2/2/1 1/1/1
f 2/2/1 3/3/1 4/4/1
f 7/7/2 6/6/2 5/5/2
f 6/6/2 7/7/2 8/8/2
f 5/10/3 9/9/3 2/2/3
f 9/9/3 5/10/3 6/11/3
f 9/9/3 6/11/3 10/12/3
f 10/12/3 6/11/3 11/13/3
f 12/14/3 2/2/3 9/9/3
f 2/2/3 12/14/3 1/15/3
f 1/15/3 12/14/3 11/13/3
f 1/15/3 11/13/3 6/11/3
f 6/18/4 3/17/4 1/16/4
f 3/17/4 6/18/4 8/19/4
f 4/22/5 13/21/5 7/20/5
f 13/21/5 4/22/5 3/23/5
f 13/21/5 3/23/5 14/24/5
f 14/24/5 3/23/5 15/25/5
f 16/26/5 7/20/5 13/21/5
f 7/20/5 16/26/5 8/27/5
f 8/27/5 16/26/5 15/25/5
f 8/27/5 15/25/5 3/23/5
f 7/29/6 2/2/6 4/28/6
f 2/2/6 7/29/6 5/10/6
f 15/32/1 9/31/1 10/30/1
f 9/31/1 15/32/1 16/33/1
f 12/35/4 17/34/4 13/33/4
f 17/34/4 12/35/4 9/36/4
f 13/33/4 17/34/4 18/37/4
f 17/34/4 9/36/4 19/38/4
f 19/38/4 9/36/4 20/39/4
f 18/37/4 16/40/4 13/33/4
f 16/40/4 18/37/4 20/39/4
f 16/40/4 20/39/4 9/36/4
f 13/43/2 11/42/2 12/41/2
f 11/42/2 13/43/2 14/44/2
f 14/43/6 21/46/6 11/45/6
f 21/46/6 14/43/6 15/47/6
f 21/46/6 15/47/6 22/48/6
f 22/48/6 15/47/6 23/49/6
f 24/50/6 11/45/6 21/46/6
f 11/45/6 24/50/6 10/36/6
f 10/36/6 24/50/6 23/49/6
f 10/36/6 23/49/6 15/47/6

usemtl metal

f 20/52/2 23/49/2 19/51/2
f 23/49/2 20/52/2 22/48/2
f 21/55/5 20/54/5 18/53/5
f 20/54/5 21/55/5 22/56/5
f 21/39/1 17/57/1 24/38/1
f 17/57/1 21/39/1 18/58/1
f 23/61/3 17/60/3 19/59/3
f 17/60/3 23/61/3 24/62/3

usemtl _defaultMat

f 22/57/6 24/39/6 21/58/6
f 24/57/6 22/39/6 23/58/6
f 17/57/4 20/39/4 18/58/4
f 20/57/4 17/39/4 19/58/4

