# Created by Kenney (www.kenney.nl)

mtllib object_047.mtl

g object_047

v -0.0234375 0.375 0.125
v -0.0234375 0.375 0.7113279
v -0.046875 0.375 0.125
v -0.046875 0.375 0.7113279
v -0.046875 0.25 0.125
v -0.046875 0.25 0.7113279
v -0.0234375 0.25 0.7113279
v -0.0234375 0.25 0.125
v -2.887646E-15 0 0.8675779
v -2.887646E-15 0 4.511946E-17
v -0.03125 5.188738E-16 0.8675779
v -0.0625 6.406454E-16 4.511946E-17
v -0.0625 1.023444E-15 0.8363279
v 0 0.4925779 0.7113279
v -5.775291E-15 0.4925779 0.125
v -0.0625 0.4925779 0.7113279
v -0.0625 0.4925779 0.125
v -4.331469E-15 0.125 0.125
v -4.331469E-15 0.125 0.7113279
v -0.0625 0.125 0.125
v -0.0625 0.125 0.7113279
v -2.887646E-15 0.6175779 0
v -0.0625 0.6175779 0
v -2.887646E-15 0.6175779 0.8675779
v -0.03125 0.6175779 0.8675779
v -0.0625 0.6175779 0.8363279

vn 0 1 0
vn -1 0 0
vn 0 -1 0
vn 1 0 0
vn 0 0 1
vn 0 0 -1
vn -0.7071068 0 0.7071068

vt 0.9227362 4.92126
vt 0.9227362 28.00504
vt 1.845472 4.92126
vt 1.845472 28.00504
vt 4.92126 9.84252
vt 4.92126 14.76378
vt 28.00504 9.84252
vt 28.00504 14.76378
vt -0.9227362 28.00504
vt -0.9227362 4.92126
vt -1.845472 28.00504
vt -1.845472 4.92126
vt -4.92126 14.76378
vt -4.92126 9.84252
vt -28.00504 14.76378
vt -28.00504 9.84252
vt -1.136868E-13 34.15661
vt -1.136868E-13 1.776357E-15
vt -1.230315 34.15661
vt -2.46063 1.776357E-15
vt -2.46063 32.9263
vt -7.617382E-14 28.00504
vt -3.035475E-13 4.92126
vt -2.46063 28.00504
vt -2.46063 4.92126
vt 1.898607E-13 4.92126
vt 1.898607E-13 28.00504
vt 2.46063 4.92126
vt 2.46063 28.00504
vt -0.9227362 9.84252
vt -1.947673E-13 4.92126
vt -2.516107E-13 19.39283
vt -1.845472 9.84252
vt -0.9227362 14.76378
vt -1.845472 14.76378
vt -2.46063 19.39283
vt 1.845472 9.84252
vt 2.46063 19.39283
vt 1.845472 14.76378
vt 0.9227362 14.76378
vt 0.9227362 9.84252
vt 3.084541E-13 4.92126
vt 1.379239E-13 19.39283
vt 1.136868E-13 -4.065315E-31
vt 1.136868E-13 24.31409
vt 2.46063 2.522226E-14
vt 2.46063 24.31409
vt -1.776357E-15 -2.442383E-28
vt -4.92126 19.39283
vt 0 24.31409
vt -34.15661 24.31409
vt -28.00504 19.39283
vt -28.00504 4.92126
vt -4.92126 4.92126
vt -34.15661 -2.442383E-28
vt 4.288397E-13 6.709204E-15
vt 4.288397E-13 34.15661
vt 2.46063 6.709204E-15
vt 1.230315 34.15661
vt 2.46063 32.9263
vt 21.54248 24.31409
vt 23.28241 24.31409
vt 21.54248 -2.156439E-13
vt 23.28241 -2.355089E-13
vt 3.426144E-14 -7.486317E-15
vt -1.230315 1.294179E-14
vt 3.426144E-14 24.31409
vt -1.230315 24.31409
vt 4.92126 19.39283
vt 4.92126 4.92126
vt -1.096762E-14 7.964288E-15
vt 32.9263 2.303511E-14
vt 28.00504 4.92126
vt 32.9263 24.31409
vt -1.274397E-14 24.31409
vt 28.00504 19.39283

usemtl metal

f 3/3/1 2/2/1 1/1/1
f 2/2/1 3/3/1 4/4/1
f 6/7/2 3/6/2 5/5/2
f 3/6/2 6/7/2 4/8/2
f 6/11/3 8/10/3 7/9/3
f 8/10/3 6/11/3 5/12/3
f 2/15/4 8/14/4 1/13/4
f 8/14/4 2/15/4 7/16/4

usemtl metalLight

f 11/19/3 10/18/3 9/17/3
f 10/18/3 11/19/3 12/20/3
f 12/20/3 11/19/3 13/21/3
f 16/24/3 15/23/3 14/22/3
f 15/23/3 16/24/3 17/25/3
f 20/28/1 19/27/1 18/26/1
f 19/27/1 20/28/1 21/29/1
f 18/31/5 8/30/5 20/25/5
f 8/30/5 18/31/5 15/32/5
f 20/25/5 8/30/5 5/33/5
f 8/30/5 15/32/5 1/34/5
f 1/34/5 15/32/5 3/35/5
f 8/30/5 3/35/5 5/33/5
f 3/35/5 8/30/5 1/34/5
f 5/33/5 17/36/5 20/25/5
f 17/36/5 5/33/5 3/35/5
f 17/36/5 3/35/5 15/32/5
f 16/38/6 6/37/6 21/28/6
f 6/37/6 16/38/6 4/39/6
f 4/39/6 16/38/6 2/40/6
f 7/41/6 21/28/6 6/37/6
f 4/39/6 7/41/6 6/37/6
f 7/41/6 4/39/6 2/40/6
f 7/41/6 19/42/6 21/28/6
f 19/42/6 7/41/6 14/43/6
f 14/43/6 7/41/6 2/40/6
f 14/43/6 2/40/6 16/38/6
f 12/46/6 22/45/6 10/44/6
f 22/45/6 12/46/6 23/47/6
f 22/50/4 15/49/4 10/48/4
f 15/49/4 22/50/4 24/51/4
f 15/49/4 24/51/4 14/52/4
f 14/52/4 24/51/4 19/53/4
f 18/54/4 10/48/4 15/49/4
f 10/48/4 18/54/4 9/55/4
f 9/55/4 18/54/4 19/53/4
f 9/55/4 19/53/4 24/51/4
f 23/58/1 24/57/1 22/56/1
f 24/57/1 23/58/1 25/59/1
f 25/59/1 23/58/1 26/60/1
f 13/63/7 25/62/7 26/61/7
f 25/62/7 13/63/7 11/64/7
f 24/67/5 11/66/5 9/65/5
f 11/66/5 24/67/5 25/68/5
f 12/71/2 20/70/2 17/69/2
f 20/70/2 12/71/2 13/72/2
f 20/70/2 13/72/2 21/73/2
f 21/73/2 13/72/2 26/74/2
f 23/75/2 17/69/2 26/74/2
f 17/69/2 23/75/2 12/71/2
f 26/74/2 17/69/2 16/76/2
f 26/74/2 16/76/2 21/73/2

