# Created by Kenney (www.kenney.nl)

mtllib object_053.mtl

g object_053

v -0.2206 0.03574785 0
v -0.2206 0.03574785 0.4648312
v -0.2335 0.03574785 0
v -0.2335 0.03574785 0.4648312
v -0.2464 0 0
v -0.2464 0 0.4648312
v -0.298 0.1389478 0
v -0.2206 0.1389478 0
v -0.298 0.232919 0
v -0.0387 0.3320745 0
v 0 0 0
v -0.129213 0.3320745 0
v -0.2206 0.1389478 0.4648312
v -0.298 0.1389478 0.4648312
v -0.0387 0.3320745 0.4648312
v 0 0 0.4648312
v -0.129213 0.3320745 0.4648312
v -0.298 0.232919 0.4648312
v -0.1506535 0.3194791 0.02357958
v -0.2765595 0.2455145 0.02357958
v -0.2765595 0.2455145 0.4412516
v -0.1506535 0.3194791 0.4412516
v -0.1740146 0.3057554 0.3223213
v -0.2531984 0.2592382 0.3223213
v -0.2531984 0.2592382 0.4141577
v -0.1740146 0.3057554 0.4141577

vn 0 1 0
vn -0.9406291 0.3394362 0
vn 0 0 -1
vn 0 -1 0
vn -1 0 0
vn 0.9932776 0.1157567 0
vn 0 0 1
vn -0.506523 0.8622264 0

vt 8.68504 0
vt 8.68504 18.30044
vt 9.192913 0
vt 9.192913 18.30044
vt 1.464958E-17 -3.292798
vt 1.388262E-17 -1.79657
vt 18.30044 -3.292798
vt 18.30044 -1.79657
vt 11.73228 5.470388
vt 8.68504 5.470388
vt 11.73228 9.170041
vt 1.523622 13.0738
vt 8.68504 1.407396
vt 0 0
vt 9.192913 1.407396
vt 9.700788 0
vt 5.087126 13.0738
vt -8.68504 18.30044
vt -8.68504 0
vt -11.73228 18.30044
vt -11.73228 0
vt 0 1.407396
vt 0 5.470388
vt 18.30044 1.407396
vt 18.30044 5.470388
vt 1.498988E-32 13.16228
vt -18.30044 13.16228
vt -18.30044 2.084147E-32
vt 1.523622 0
vt 1.523622 18.30044
vt 5.087126 0
vt 5.087126 18.30044
vt 0 18.30044
vt -9.700788 18.30044
vt -9.700788 0
vt -9.700788 -5.135623E-14
vt -8.68504 1.407396
vt 1.305751E-13 -5.135623E-14
vt -1.523622 13.0738
vt -8.68504 5.470388
vt -11.73228 5.470388
vt -11.73228 9.170041
vt -5.087126 13.0738
vt -9.192913 1.407396
vt 0 9.170041
vt 18.30044 9.170041
vt 18.30044 2.235925
vt 0.9283299 1.25693
vt -5.396469E-17 2.235925
vt -1.244571E-16 -5.471049
vt 0.9283299 -4.492054
vt 17.37211 -4.492054
vt 17.37211 1.25693
vt 18.30044 -5.471049
vt 12.68981 0.1902411
vt 12.68981 -3.425364
vt 16.30542 -3.425364
vt 16.30542 0.1902411

usemtl metalLight

f 3/3/1 2/2/1 1/1/1
f 2/2/1 3/3/1 4/4/1
f 6/7/2 3/6/2 5/5/2
f 3/6/2 6/7/2 4/8/2
f 9/11/3 8/10/3 7/9/3
f 10/12/3 8/10/3 9/11/3
f 10/12/3 1/13/3 8/10/3
f 11/14/3 1/13/3 10/12/3
f 11/14/3 3/15/3 1/13/3
f 3/15/3 11/14/3 5/16/3
f 10/12/3 9/11/3 12/17/3
f 14/20/4 8/19/4 13/18/4
f 8/19/4 14/20/4 7/21/4
f 2/24/5 8/23/5 1/22/5
f 8/23/5 2/24/5 13/25/5
f 15/27/6 11/14/6 10/26/6
f 11/14/6 15/27/6 16/28/6
f 12/31/1 15/30/1 10/29/1
f 15/30/1 12/31/1 17/32/1
f 6/34/4 11/14/4 16/33/4
f 11/14/4 6/34/4 5/35/4
f 16/38/7 2/37/7 6/36/7
f 2/37/7 16/38/7 15/39/7
f 2/37/7 15/39/7 13/40/7
f 13/40/7 15/39/7 14/41/7
f 14/41/7 15/39/7 18/42/7
f 18/42/7 15/39/7 17/43/7
f 4/44/7 6/36/7 2/37/7
f 14/25/5 9/45/5 7/23/5
f 9/45/5 14/25/5 18/46/5
f 12/49/8 19/48/8 17/47/8
f 19/48/8 12/49/8 9/50/8
f 19/48/8 9/50/8 20/51/8
f 20/51/8 9/50/8 21/52/8
f 22/53/8 17/47/8 19/48/8
f 17/47/8 22/53/8 18/54/8
f 18/54/8 22/53/8 21/52/8
f 18/54/8 21/52/8 9/50/8

usemtl metal

f 19/48/8 23/55/8 22/53/8
f 23/55/8 19/48/8 20/51/8
f 23/55/8 20/51/8 24/56/8
f 24/56/8 20/51/8 25/57/8
f 26/58/8 22/53/8 23/55/8
f 22/53/8 26/58/8 21/52/8
f 21/52/8 26/58/8 25/57/8
f 21/52/8 25/57/8 20/51/8

usemtl metalRed

f 24/56/8 26/58/8 23/55/8
f 26/58/8 24/56/8 25/57/8

