# Created by Kenney (www.kenney.nl)

mtllib object_073.mtl

g object_073

v -0.4375 0.0625 5.775291E-15
v -0.4375 0.125 5.775291E-15
v -0.4375 0.0625 1
v -0.4375 0.125 1
v 0 8.085408E-14 1
v -3.609557E-14 8.085408E-14 0
v -0.375 0 1
v -0.375 0 5.775291E-15
v -3.609557E-14 0.125 0
v -5.342144E-14 0.125 1

vn -1 0 0
vn 0 -1 0
vn 1 0 0
vn 0 1 0
vn 0 0 -1
vn 0 0 1
vn -0.7071068 -0.7071068 0

vt 4.530554E-13 2.46063
vt 4.530554E-13 4.92126
vt 39.37008 2.46063
vt 39.37008 4.92126
vt 6.863393E-25 39.37008
vt -1.421085E-12 -6.879142E-39
vt -14.76378 39.37008
vt -14.76378 2.273737E-13
vt 1.318315E-26 4.92126
vt 1.318315E-26 3.183231E-12
vt -39.37008 4.92126
vt -39.37008 3.183231E-12
vt 3.694822E-13 1.833355E-26
vt 1.051603E-12 39.37008
vt 17.22441 2.273737E-13
vt 17.22441 39.37008
vt 14.76378 -8.944812E-29
vt 1.421085E-12 3.183231E-12
vt 17.22441 2.46063
vt 1.421085E-12 4.92126
vt 17.22441 4.92126
vt -14.76378 -1.692083E-14
vt -17.22441 2.46063
vt 1.639435E-13 3.166311E-12
vt -1.939263E-12 4.92126
vt -17.22441 4.92126
vt 4.101138E-13 10.43957
vt 4.405705E-13 13.91943
vt 39.37008 10.43957
vt 39.37008 13.91943

usemtl metalLight

f 3/3/1 2/2/1 1/1/1
f 2/2/1 3/3/1 4/4/1
f 7/7/2 6/6/2 5/5/2
f 6/6/2 7/7/2 8/8/2
f 10/11/3 6/10/3 9/9/3
f 6/10/3 10/11/3 5/12/3
f 2/15/4 10/14/4 9/13/4
f 10/14/4 2/15/4 4/16/4
f 1/19/5 6/18/5 8/17/5
f 6/18/5 1/19/5 9/20/5
f 9/20/5 1/19/5 2/21/5
f 5/24/6 3/23/6 7/22/6
f 3/23/6 5/24/6 10/25/6
f 3/23/6 10/25/6 4/26/6
f 7/29/7 1/28/7 8/27/7
f 1/28/7 7/29/7 3/30/7

