# Created by Kenney (www.kenney.nl)

mtllib object_037.mtl

g object_037

v 0 0 1
v 0 0 0
v -1 0 1
v -1 0 0
v 0 0.0625 1
v -1 0.0625 1
v -1 0.0625 -2.292069E-13
v -1 0.0625 0.1252849
v -1 0.0425 0.1627564
v -1 0.0425 0.8372437
v -1 0.0625 0.8747151
v 0 0.0625 0
v -0.1627564 0.0425 -3.429079E-14
v -0.8372437 0.0425 -1.916675E-13
v -0.1252849 0.0625 -2.85155E-14
v -0.8747151 0.0625 -1.974428E-13
v -0.1627564 0.0625 0.8747151
v -0.1627564 0.0425 0.8372437
v -0.1252849 0.0625 0.8372437

vn 0 -1 0
vn 0 0 1
vn -1 0 0
vn 0 0 -1
vn 1 0 0
vn 0 0.8822044 -0.4708667
vn -0.4708667 0.8822044 0
vn 0 1 0
vn -0.4260032 0.7981493 -0.4260032
vn 0.4260032 0.7981493 0.4260032

vt 0 39.37008
vt 0 0
vt -39.37008 39.37008
vt -39.37008 0
vt 4.250855E-14 1.275936E-12
vt -39.37008 1.275936E-12
vt 4.250855E-14 2.46063
vt -39.37008 2.46063
vt -9.018981E-12 2.46063
vt 4.932475 2.46063
vt 4.911781E-15 -4.609497E-13
vt 6.407731 1.673228
vt 39.37008 -4.609497E-13
vt 32.96235 1.673228
vt 34.4376 2.46063
vt 39.37008 2.46063
vt 0 2.46063
vt 39.37008 -1.120254E-23
vt -39.37008 -1.536183E-24
vt 6.407731 31.53963
vt 39.37008 31.53963
vt 6.407731 29.8674
vt 39.37008 29.8674
vt -3.169154E-13 -3.192822
vt 32.96235 -3.192822
vt -3.032992E-13 -4.865061
vt 32.96235 -4.865061
vt -3.750928E-14 5.53189E-15
vt -3.750928E-14 39.37008
vt 4.932475 -1.117126E-12
vt 4.932475 32.96235
vt 6.407731 34.4376
vt 39.37008 39.37008
vt 39.37008 34.4376
vt 26.79569 17.30184
vt 28.88201 17.30184
vt 27.83885 15.99486
vt 39.37008 -9.023893E-12
vt 34.4376 -7.773338E-12
vt 39.37008 4.932475
vt -23.3079 19.61124
vt -32.3698 19.61124
vt -24.35106 20.91822
vt -31.32664 20.91822
vt 6.407731 -1.350031E-12
vt 6.407731 32.96235
vt 32.96235 -7.545964E-12
vt 39.37008 32.96235
vt 39.37008 6.407731

usemtl metal

f 3/3/1 2/2/1 1/1/1
f 2/2/1 3/3/1 4/4/1
f 5/7/2 3/6/2 1/5/2
f 3/6/2 5/7/2 6/8/2
f 4/11/3 8/10/3 7/9/3
f 8/10/3 4/11/3 9/12/3
f 9/12/3 4/11/3 3/13/3
f 9/12/3 3/13/3 10/14/3
f 10/14/3 3/13/3 11/15/3
f 11/15/3 3/13/3 6/16/3
f 2/2/4 13/12/4 12/17/4
f 13/12/4 2/2/4 14/14/4
f 12/17/4 13/12/4 15/10/4
f 4/18/4 14/14/4 2/2/4
f 14/14/4 4/18/4 7/16/4
f 14/14/4 7/16/4 16/15/4
f 5/8/5 2/2/5 12/17/5
f 2/2/5 5/8/5 1/19/5
f 18/22/6 11/21/6 17/20/6
f 11/21/6 18/22/6 10/23/6
f 13/26/7 19/25/7 15/24/7
f 19/25/7 13/26/7 18/27/7
f 15/30/8 5/29/8 12/28/8
f 5/29/8 15/30/8 19/31/8
f 5/29/8 19/31/8 17/32/8
f 5/29/8 17/32/8 6/33/8
f 6/33/8 17/32/8 11/34/8
f 18/37/9 17/36/9 19/35/9
f 8/40/8 16/39/8 7/38/8
f 16/43/10 9/42/10 14/41/10
f 9/42/10 16/43/10 8/44/10

usemtl metalLight

f 14/47/8 18/46/8 13/45/8
f 18/46/8 14/47/8 10/48/8
f 10/48/8 14/47/8 9/49/8

