# Created by Kenney (www.kenney.nl)

mtllib object_063.mtl

g object_063

v 0 0 1.043082E-08
v -0.585 0 1.713634E-09
v -5.662443E-09 0 0.38
v -0.585 0 0.38
v -0.7 0.115 0
v -0.7 0.23 0
v -0.7 0.115 0.38
v -0.7 0.23 0.38
v -5.662443E-09 0.23 0.38
v 0 0.23 1.043082E-08
v -0.04888728 0.12 0.04888729
v -0.04888728 0.28 0.04888729
v -0.04888728 0.12 0.3311127
v -0.04888728 0.28 0.3311127
v -0.6311128 0.28 0.04888728
v -0.6311128 0.12 0.04888728
v -0.6311128 0.28 0.3311127
v -0.6311128 0.12 0.3311127
v -5.662443E-09 0.28 0.38
v 0 0.28 1.043082E-08
v -0.68 0.28 2.980224E-10
v -0.68 0.28 0.38

vn 0 -1 0
vn -1 0 0
vn 0 0 1
vn 1 0 0
vn -0.7071068 -0.7071068 0
vn 0 0 -1
vn 0 1 0
vn -0.9284768 0.3713907 0

vt 0 4.106621E-07
vt -23.0315 6.746592E-08
vt -2.229309E-07 14.96063
vt -23.0315 14.96063
vt 4.106621E-07 4.527559
vt 4.106621E-07 9.055119
vt 14.96063 4.527559
vt 14.96063 9.055119
vt 7.313491E-15 0
vt -23.0315 0
vt 7.313491E-15 9.055119
vt -27.55906 4.527559
vt -27.55906 9.055119
vt -4.106621E-07 9.055119
vt -4.106621E-07 0
vt -14.96063 9.055119
vt -14.96063 0
vt 4.106621E-07 16.28573
vt 4.106621E-07 22.68866
vt 14.96063 16.28573
vt 14.96063 22.68866
vt 23.0315 -1.526273E-22
vt -6.119345E-15 -1.526273E-22
vt 27.55906 4.527559
vt -6.119345E-15 9.055119
vt 27.55906 9.055119
vt 1.924696 4.72441
vt 1.924696 11.02362
vt 13.03593 4.72441
vt 13.03593 11.02362
vt -1.924696 11.02362
vt -1.924696 4.72441
vt -13.03593 11.02362
vt -13.03593 4.72441
vt 1.924696 1.924696
vt 1.924696 13.03593
vt 24.84696 1.924696
vt 24.84696 13.03593
vt 24.84696 4.72441
vt 1.924696 4.72441
vt 24.84696 11.02362
vt 1.924696 11.02362
vt -1.924696 4.72441
vt -24.84696 4.72441
vt -1.924696 11.02362
vt -24.84696 11.02362
vt 2.229309E-07 14.96063
vt 26.77165 1.173316E-08
vt 26.77165 14.96063
vt 4.106621E-07 -1.82771
vt 4.106621E-07 0.2924336
vt 14.96063 -1.82771
vt 14.96063 0.2924336
vt -4.106621E-07 11.02362
vt -14.96063 11.02362
vt 7.313491E-15 11.02362
vt -26.77165 11.02362
vt 26.77165 11.02362
vt -6.119345E-15 11.02362

usemtl metalLight

f 3/3/1 2/2/1 1/1/1
f 2/2/1 3/3/1 4/4/1
f 7/7/2 6/6/2 5/5/2
f 6/6/2 7/7/2 8/8/2
f 9/11/3 4/10/3 3/9/3
f 4/10/3 9/11/3 7/12/3
f 7/12/3 9/11/3 8/13/3
f 9/16/4 1/15/4 10/14/4
f 1/15/4 9/16/4 3/17/4
f 4/20/5 5/19/5 2/18/5
f 5/19/5 4/20/5 7/21/5
f 5/24/6 1/23/6 2/22/6
f 1/23/6 5/24/6 10/25/6
f 10/25/6 5/24/6 6/26/6
f 13/29/2 12/28/2 11/27/2
f 12/28/2 13/29/2 14/30/2
f 17/33/4 16/32/4 15/31/4
f 16/32/4 17/33/4 18/34/4
f 16/37/7 13/36/7 11/35/7
f 13/36/7 16/37/7 18/38/7
f 17/41/6 13/40/6 18/39/6
f 13/40/6 17/41/6 14/42/6
f 12/45/3 16/44/3 11/43/3
f 16/44/3 12/45/3 15/46/3

usemtl metalRed

f 20/1/7 12/35/7 19/47/7
f 12/35/7 20/1/7 21/48/7
f 12/35/7 21/48/7 15/37/7
f 15/37/7 21/48/7 17/38/7
f 14/36/7 19/47/7 12/35/7
f 19/47/7 14/36/7 22/49/7
f 22/49/7 14/36/7 17/38/7
f 22/49/7 17/38/7 21/48/7
f 8/52/8 21/51/8 6/50/8
f 21/51/8 8/52/8 22/53/8
f 19/55/4 10/14/4 20/54/4
f 10/14/4 19/55/4 9/16/4
f 19/56/3 8/13/3 9/11/3
f 8/13/3 19/56/3 22/57/3
f 21/58/6 10/25/6 6/26/6
f 10/25/6 21/58/6 20/59/6

