# Created by Kenney (www.kenney.nl)

mtllib object_050.mtl

g object_050

v -0.129213 0.3320745 0.129213
v -0.129213 0.3320745 0.298
v -0.298 0.232919 0.298
v -0.298 0.3320745 0.129213
v -0.298 0.3320745 0.0387
v -0.298 0.03574785 0.2206
v -0.298 0 0
v -0.298 0 0.2464
v -0.298 0.03574785 0.2335
v -0.298 0.1389478 0.2206
v -0.298 0.1389478 0.298
v 0 0 0.298
v 0 0 0
v -0.2464 0 0.298
v -0.2464 0 0.2464
v -0.2206 0.03574785 0.2206
v -0.2206 0.1389478 0.2206
v -0.2206 0.03574785 0.298
v -0.2206 0.1389478 0.298
v -0.2335 0.03574785 0.2335
v -0.2335 0.03574785 0.298
v -0.0387 0.3320745 0.298
v -0.0387 0.3320745 0.0387

vn -0.506523 0.8622264 0
vn 0 0.8622264 0.506523
vn -1 0 0
vn 0 -1 0
vn 0 1 0
vn -0.9406291 0.3394362 0
vn 0 0.3394362 0.9406291
vn 0 0 1
vn 0.9932776 0.1157567 0
vn 0 0.1157567 -0.9932776

vt 5.087126 2.235925
vt 11.73228 2.235925
vt 11.73228 -5.471049
vt -11.73228 2.235925
vt -5.087126 2.235925
vt -11.73228 -5.471049
vt 1.523622 13.0738
vt 8.68504 1.407396
vt 1.456159E-13 4.034997E-14
vt 9.700788 4.034997E-14
vt 5.087126 13.0738
vt 9.192913 1.407396
vt 8.68504 5.470388
vt 11.73228 9.170041
vt 11.73228 5.470388
vt 0 11.73228
vt 0 0
vt -9.700788 11.73228
vt -9.700788 9.700788
vt -11.73228 0
vt -11.73228 9.700788
vt 11.73228 1.407396
vt 8.68504 11.73228
vt 9.192913 9.192913
vt 8.68504 8.68504
vt 11.73228 8.68504
vt 11.73228 9.192913
vt 9.192913 11.73228
vt 1.523622 11.73228
vt 5.087126 5.087126
vt 1.523622 1.523622
vt 11.73228 1.523622
vt 11.73228 5.087126
vt 5.087126 11.73228
vt 9.192913 -1.79657
vt 11.73228 -1.79657
vt 9.700788 -3.292798
vt 11.73228 -3.292798
vt -9.700788 -3.292798
vt -11.73228 -3.292798
vt -9.192913 -1.79657
vt -11.73228 -1.79657
vt -9.700788 0
vt -8.68504 1.407396
vt -1.523622 13.0738
vt -8.68504 5.470388
vt -11.73228 5.470388
vt -11.73228 9.170041
vt -5.087126 13.0738
vt -9.192913 1.407396
vt -8.68504 11.73228
vt -8.68504 8.68504
vt -11.73228 11.73228
vt -11.73228 8.68504
vt -11.73228 1.407396
vt -11.73228 7.469563E-18
vt -1.523622 13.16228
vt -11.73228 13.16228
vt 11.73228 5.638479E-18
vt 11.73228 13.16228
vt 1.523622 13.16228

usemtl metalLight

f 3/3/1 2/2/1 1/1/1
f 3/6/2 1/5/2 4/4/2
f 7/9/3 6/8/3 5/7/3
f 6/8/3 7/9/3 8/10/3
f 5/7/3 6/8/3 4/11/3
f 6/8/3 8/10/3 9/12/3
f 10/13/3 4/11/3 6/8/3
f 4/11/3 10/13/3 3/14/3
f 3/14/3 10/13/3 11/15/3
f 14/18/4 13/17/4 12/16/4
f 13/17/4 14/18/4 15/19/4
f 13/17/4 15/19/4 7/20/4
f 7/20/4 15/19/4 8/21/4
f 18/22/3 17/13/3 16/8/3
f 17/13/3 18/22/3 19/15/3
f 16/25/5 20/24/5 18/23/5
f 20/24/5 16/25/5 6/26/5
f 20/24/5 6/26/5 9/27/5
f 21/28/5 18/23/5 20/24/5
f 23/31/5 1/30/5 22/29/5
f 1/30/5 23/31/5 5/32/5
f 1/30/5 5/32/5 4/33/5
f 2/34/5 22/29/5 1/30/5
f 15/37/6 21/36/6 20/35/6
f 21/36/6 15/37/6 14/38/6
f 20/41/7 8/40/7 15/39/7
f 8/40/7 20/41/7 9/42/7
f 12/17/8 18/44/8 14/43/8
f 18/44/8 12/17/8 22/45/8
f 18/44/8 22/45/8 19/46/8
f 19/46/8 22/45/8 11/47/8
f 11/47/8 22/45/8 3/48/8
f 3/48/8 22/45/8 2/49/8
f 21/50/8 14/43/8 18/44/8
f 11/53/4 17/52/4 19/51/4
f 17/52/4 11/53/4 10/54/4
f 17/46/8 6/55/8 16/44/8
f 6/55/8 17/46/8 10/47/8
f 23/57/9 12/56/9 13/17/9
f 12/56/9 23/57/9 22/58/9
f 5/60/10 13/17/10 7/59/10
f 13/17/10 5/60/10 23/61/10

