# Created by Kenney (www.kenney.nl)

mtllib object_076.mtl

g object_076

v -0.3245103 0 0.02150926
v -0.3245103 0.25 0.02150926
v -0.3245103 0 0.06452779
v -0.3245103 0.25 0.06452779
v -0.2872551 2.346212E-15 0.08603705
v -0.2872551 0.25 0.08603705
v -0.25 4.782663E-15 0.06452779
v -0.25 0.25 0.06452779
v -0.25 0.25 0.02150926
v -0.2872551 0.25 0
v -0.25 0.2872551 0.08603705
v 0 0.25 0.02150926
v -0.25 0.2872551 0
v -4.331469E-15 0.2872551 0
v -0.25 0.3245103 0.06452779
v -4.331469E-15 0.2872551 0.08603705
v -5.775291E-15 0.3245103 0.06452779
v -0.2872551 2.346212E-15 0
v -0.25 4.782663E-15 0.02150926
v 0 0.25 0.06452779
v -5.775291E-15 0.3245103 0.02150926
v -0.25 0.3245103 0.02150926

vn -1 0 0
vn 0.5 0 0.8660254
vn 0 1 0
vn 0.4472136 -0.4472136 0.7745967
vn 0 -0.5 -0.8660254
vn 0 0.5 0.8660254
vn -0.5 0 -0.8660254
vn -0.5 0 0.8660254
vn 1 0 0
vn 0 -1 0
vn 0 0.5 -0.8660254
vn -0.4472136 0.4472136 0.7745967
vn 0.5 0 -0.8660254
vn 0 -0.5 0.8660254
vn -0.7071068 0.7071068 0
vn 0.4472136 -0.4472136 -0.7745967
vn -0.4472136 0.4472136 -0.7745967

vt 0.8468214 6.531446E-13
vt 0.8468214 9.84252
vt 2.540464 6.531446E-13
vt 2.540464 9.84252
vt -11.48775 1.61927E-13
vt -11.48775 9.84252
vt -9.794105 2.578503E-13
vt -9.794105 9.84252
vt 9.84252 0.8468214
vt 9.84252 2.540464
vt 11.30926 -9.67378E-31
vt 11.30926 3.387286
vt 12.776 0.8468214
vt 12.776 2.540464
vt -9.794105 7.586481
vt -11.48775 7.586481
vt -10.21751 9.226343
vt 9.84252 8.100461
vt -3.131199E-14 8.100461
vt 9.84252 9.794105
vt 1.705303E-13 9.794105
vt -9.84252 8.100461
vt -9.84252 9.794105
vt -4.52823E-14 8.100461
vt -1.334377E-13 9.794105
vt 11.48775 1.445402E-13
vt 9.794105 2.369108E-13
vt 11.48775 9.84252
vt 9.794105 9.84252
vt -9.794105 2.195239E-13
vt -8.100461 3.118945E-13
vt -8.100461 9.84252
vt -0.8468214 9.84252
vt -0.8468214 8.478185E-13
vt -2.540464 9.84252
vt -2.540464 8.478185E-13
vt 6.303558E-13 2.540464
vt 6.303558E-13 0.8468214
vt -9.84252 2.540464
vt -9.84252 0.8468214
vt 0 11.30926
vt -0.8468214 12.776
vt -2.540464 12.776
vt -3.387286 11.30926
vt 9.84252 11.48775
vt 2.586857E-13 11.48775
vt -5.908541E-13 0.8468214
vt -5.908541E-13 2.540464
vt -9.794105 4.9627
vt -7.25364 8.242426
vt -8.100461 4.9627
vt -6.830229 6.602563
vt 8.100461 3.32834E-13
vt 8.100461 9.84252
vt -9.84252 11.48775
vt -9.393597E-14 9.794105
vt -2.957782E-13 11.48775
vt 0.8468214 -2.07428
vt 0.8468214 2.07428
vt 2.540464 -2.07428
vt 2.540464 2.07428
vt -11.30926 3.387286
vt -11.30926 2.638645E-42
vt -12.776 2.540464
vt -12.776 0.8468214
vt 9.794105 6.27459
vt 8.100461 6.27459
vt 8.523872 7.914453
vt 11.48775 6.27459
vt 8.947283 9.554316

usemtl metalLight

f 3/3/1 2/2/1 1/1/1
f 2/2/1 3/3/1 4/4/1
f 7/7/2 6/6/2 5/5/2
f 6/6/2 7/7/2 8/8/2
f 10/11/3 8/10/3 9/9/3
f 8/10/3 10/11/3 6/12/3
f 6/12/3 10/11/3 2/13/3
f 6/12/3 2/13/3 4/14/3
f 11/17/4 6/16/4 8/15/4
f 13/20/5 12/19/5 9/18/5
f 12/19/5 13/20/5 14/21/5
f 16/24/6 15/23/6 11/22/6
f 15/23/6 16/24/6 17/25/6
f 2/28/7 18/27/7 1/26/7
f 18/27/7 2/28/7 10/29/7
f 5/31/8 4/8/8 3/30/8
f 4/8/8 5/31/8 6/32/8
f 8/35/9 19/34/9 9/33/9
f 19/34/9 8/35/9 7/36/9
f 8/39/10 12/38/10 20/37/10
f 12/38/10 8/39/10 9/40/10
f 21/42/9 12/33/9 14/41/9
f 12/33/9 21/42/9 17/43/9
f 12/33/9 17/43/9 20/35/9
f 20/35/9 17/43/9 16/44/9
f 22/45/11 14/21/11 13/20/11
f 14/21/11 22/45/11 21/46/11
f 22/9/3 17/48/3 21/47/3
f 17/48/3 22/9/3 15/10/3
f 6/51/12 15/50/12 4/49/12
f 15/50/12 6/51/12 11/52/12
f 10/29/13 19/53/13 18/27/13
f 19/53/13 10/29/13 9/54/13
f 20/56/14 11/55/14 8/23/14
f 11/55/14 20/56/14 16/57/14
f 4/60/15 22/59/15 2/58/15
f 22/59/15 4/60/15 15/61/15
f 5/62/10 19/40/10 7/39/10
f 19/40/10 5/62/10 18/63/10
f 18/63/10 5/62/10 3/64/10
f 18/63/10 3/64/10 1/65/10
f 13/68/16 9/67/16 10/66/16
f 22/70/17 10/66/17 2/69/17
f 10/66/17 22/70/17 13/68/17

