# Created by Kenney (www.kenney.nl)

mtllib object_075.mtl

g object_075

v 0 8.085408E-14 0.4375
v 0 8.085408E-14 2.887646E-15
v -0.4375 8.085408E-14 0.4375
v -0.375 0 0
v -0.4375 0 0.0625
v -0.4375 0.0625 2.021352E-14
v -5.342144E-14 0.125 2.887646E-15
v 0 0.125 0.4375
v -0.4375 0.125 0.4375
v -0.4375 0.125 1.443823E-15

vn 0 -1 0
vn -0.5773503 -0.5773503 -0.5773503
vn 1 0 0
vn 0 0 1
vn -1 0 0
vn 0 0 -1
vn 0 1 0

vt 3.550031E-25 17.22441
vt 3.550031E-25 1.136868E-13
vt -17.22441 17.22441
vt -14.76378 1.836223E-25
vt -17.22441 2.46063
vt 13.91943 6.027288
vt 10.43957 6.027288
vt 12.1795 9.040932
vt -1.136868E-13 4.92126
vt -1.136868E-13 3.183231E-12
vt -17.22441 4.92126
vt -17.22441 3.183231E-12
vt 0 3.183231E-12
vt 0 4.92126
vt -4.891178E-13 4.92126
vt 17.22441 4.92126
vt 2.498467E-13 2.46063
vt 2.46063 -3.701432E-14
vt 17.22441 3.146217E-12
vt 14.76378 -4.90034E-28
vt 1.404764E-27 3.183231E-12
vt 17.22441 2.46063
vt 2.103206E-12 4.92126
vt 4.818454E-26 17.22441
vt 17.22441 17.22441
vt 2.103206E-12 1.136868E-13
vt 17.22441 5.684342E-14

usemtl metalLight

f 3/3/1 2/2/1 1/1/1
f 2/2/1 3/3/1 4/4/1
f 4/4/1 3/3/1 5/5/1
f 6/8/2 4/7/2 5/6/2
f 8/11/3 2/10/3 7/9/3
f 2/10/3 8/11/3 1/12/3
f 8/14/4 3/12/4 1/13/4
f 3/12/4 8/14/4 9/11/4
f 6/17/5 9/16/5 10/15/5
f 9/16/5 6/17/5 5/18/5
f 9/16/5 5/18/5 3/19/5
f 6/22/6 2/21/6 4/20/6
f 2/21/6 6/22/6 7/23/6
f 7/23/6 6/22/6 10/16/6
f 7/26/7 9/25/7 8/24/7
f 9/25/7 7/26/7 10/27/7

