# Created by Kenney (www.kenney.nl)

mtllib object_024.mtl

g object_024

v 0 0 0.1875
v 0 0 0
v -0.1875 0 0.1875
v -0.1875 0 0
v -0.1875 0.125 0
v -0.125 0.125 0
v -0.1875 0.125 0.0625
v 0 1 0
v 0 1 0.1875
v -0.1875 1 0.1875
v -0.1875 0.75 0.0625
v -0.1875 1 -1.443823E-15
v -0.1875 0.8125 -1.443823E-15
v -0.125 0.75 0

vn 0 -1 0
vn 0 1 0
vn 1 0 0
vn 0 0 1
vn -1 0 0
vn 0 0 -1
vn -0.5773503 -0.5773503 -0.5773503
vn -0.7071068 0 -0.7071068

vt 0 7.38189
vt 0 0
vt -7.38189 7.38189
vt -7.38189 0
vt 7.38189 0
vt 4.92126 0
vt 7.38189 2.46063
vt 0 39.37008
vt -7.38189 39.37008
vt 1.447971E-14 -3.2263E-15
vt 1.447971E-14 4.92126
vt 7.38189 -3.2263E-15
vt 2.46063 4.92126
vt 2.46063 29.52756
vt 7.38189 39.37008
vt -4.236371E-14 39.37008
vt -4.236371E-14 31.98819
vt 7.38189 -2.531379E-29
vt 7.38189 4.92126
vt 4.92126 4.92126
vt 4.92126 29.52756
vt 7.38189 31.98819
vt 6.959713 26.11825
vt 3.479856 26.11825
vt 5.219784 29.13189
vt 7.38189 -5.684342E-14
vt 7.38189 7.38189
vt 6.959713 4.92126
vt 3.479856 4.92126
vt 6.959713 29.52756
vt 3.479856 29.52756

usemtl metalLight

f 3/3/1 2/2/1 1/1/1
f 2/2/1 3/3/1 4/4/1
f 7/7/2 6/6/2 5/5/2
f 9/9/3 2/2/3 8/8/3
f 2/2/3 9/9/3 1/4/3
f 9/8/4 3/4/4 1/2/4
f 3/4/4 9/8/4 10/9/4
f 3/12/5 5/11/5 4/10/5
f 5/11/5 3/12/5 7/13/5
f 7/13/5 3/12/5 11/14/5
f 10/15/5 11/14/5 3/12/5
f 12/16/5 11/14/5 10/15/5
f 11/14/5 12/16/5 13/17/5
f 5/19/6 2/2/6 4/18/6
f 2/2/6 5/19/6 6/20/6
f 2/2/6 6/20/6 8/8/6
f 8/8/6 6/20/6 14/21/6
f 8/8/6 14/21/6 13/22/6
f 8/8/6 13/22/6 12/15/6
f 13/25/7 14/24/7 11/23/7
f 12/26/2 9/1/2 8/2/2
f 9/1/2 12/26/2 10/27/2

usemtl metal

f 11/30/8 6/29/8 7/28/8
f 6/29/8 11/30/8 14/31/8

