# Created by Kenney (www.kenney.nl)

mtllib object_043.mtl

g object_043

v -1.299441E-14 0.6175779 0
v -1.299441E-14 0.6175779 0.7351558
v -0.0625 0.6175779 0
v -0.0625 0.6175779 0.7351558
v -0.046875 0.5950685 0
v -0.046875 0.5950685 0.7351558
v -0.0625 0.5725591 0
v -0.0625 0.5725591 0.7351558
v -0.046875 0.1010062 0
v 0 0 0
v -0.0625 4.906742E-16 0
v -0.0625 0.07849682 0
v -0.046875 0.2245218 0
v -0.0625 0.1235156 0
v -0.0625 0.2020124 0
v -0.0625 0.2470312 0
v -0.046875 0.3480374 0
v -0.0625 0.325528 0
v -0.0625 0.3705467 0
v -0.046875 0.4715529 0
v -0.0625 0.4490436 0
v -0.0625 0.4940623 0
v 0 0 0.7351558
v -0.0625 2.650768E-16 0.7351558
v -0.046875 0.1010062 0.7351558
v -0.0625 0.07849682 0.7351558
v -0.046875 0.2245218 0.7351558
v -0.0625 0.1235156 0.7351558
v -0.0625 0.2020124 0.7351558
v -0.0625 0.2470312 0.7351558
v -0.046875 0.3480374 0.7351558
v -0.0625 0.325528 0.7351558
v -0.0625 0.3705467 0.7351558
v -0.046875 0.4715529 0.7351558
v -0.0625 0.4490436 0.7351558
v -0.0625 0.4940623 0.7351558

vn 0 1 0
vn -0.8214813 -0.5702356 0
vn -0.8214813 0.5702356 0
vn 0 0 -1
vn 1 0 0
vn 0 0 1
vn -1 0 0
vn 0 -1 0

vt 6.584977E-13 -2.497888E-15
vt 6.584977E-13 28.94314
vt 2.46063 -2.497888E-15
vt 2.46063 28.94314
vt 1.323486E-16 20.29793
vt 1.764648E-16 21.37671
vt 28.94314 20.29793
vt 28.94314 21.37671
vt 2.608887E-18 17.11444
vt 1.956665E-18 18.19322
vt 28.94314 17.11444
vt 28.94314 18.19322
vt 5.115908E-13 24.31409
vt 1.845472 3.976622
vt 0 0
vt 2.46063 1.931788E-14
vt 2.46063 3.090426
vt 1.845472 8.83944
vt 2.46063 4.862818
vt 2.46063 7.953244
vt 2.46063 9.725636
vt 1.845472 13.70226
vt 2.46063 12.81606
vt 2.46063 14.58845
vt 1.845472 18.56508
vt 2.46063 17.67888
vt 2.46063 19.45127
vt 2.46063 22.5417
vt 1.845472 23.42789
vt 2.46063 24.31409
vt -2.424246E-43 24.31409
vt -28.94314 24.31409
vt -28.94314 -2.858649E-43
vt -2.46063 3.991944E-15
vt -1.845472 3.976622
vt 3.474577E-13 -6.444153E-15
vt -1.641331E-13 24.31409
vt -2.46063 3.090426
vt -1.845472 8.83944
vt -2.46063 4.862818
vt -2.46063 7.953244
vt -2.46063 9.725636
vt -1.845472 13.70226
vt -2.46063 12.81606
vt -2.46063 14.58845
vt -1.845472 18.56508
vt -2.46063 17.67888
vt -2.46063 19.45127
vt -2.46063 22.5417
vt -1.845472 23.42789
vt -2.46063 24.31409
vt 6.963113E-30 9.725636
vt 6.963113E-30 12.81606
vt 28.94314 9.725636
vt 28.94314 12.81606
vt 5.427553E-30 19.45127
vt 5.427553E-30 22.5417
vt 28.94314 19.45127
vt 28.94314 22.5417
vt 6.963113E-30 4.862818
vt 6.963113E-30 7.953244
vt 28.94314 4.862818
vt 28.94314 7.953244
vt 4.275882E-30 14.58845
vt 4.275882E-30 17.67888
vt 28.94314 14.58845
vt 28.94314 17.67888
vt 1.192688E-16 12.3085
vt 1.590251E-16 13.38728
vt 28.94314 12.3085
vt 28.94314 13.38728
vt 2.608887E-18 9.125017
vt 1.956665E-18 10.20379
vt 28.94314 9.125017
vt 28.94314 10.20379
vt 1.192129E-29 9.823419E-14
vt 1.192129E-29 3.090426
vt 28.94314 8.93524E-14
vt 28.94314 3.090426
vt 1.586575E-16 16.30322
vt 2.115433E-16 17.38199
vt 28.94314 16.30322
vt 28.94314 17.38199
vt 2.608887E-18 5.130303
vt 1.956665E-18 6.209081
vt 28.94314 5.130303
vt 28.94314 6.209081
vt 0 28.94314
vt -2.46063 28.94314
vt -2.46063 -6.632799E-31
vt 1.966879E-16 4.319075
vt 2.622505E-16 5.397852
vt 28.94314 4.319075
vt 28.94314 5.397852
vt 2.608887E-18 1.135589
vt 1.956665E-18 2.214367
vt 28.94314 1.135589
vt 28.94314 2.214367
vt 1.966879E-16 8.313788
vt 2.622505E-16 9.392567
vt 28.94314 8.313788
vt 28.94314 9.392567
vt 2.608887E-18 13.11973
vt 1.956665E-18 14.19851
vt 28.94314 13.11973
vt 28.94314 14.19851

usemtl metalLight

f 3/3/1 2/2/1 1/1/1
f 2/2/1 3/3/1 4/4/1
f 6/7/2 3/6/2 5/5/2
f 3/6/2 6/7/2 4/8/2
f 8/11/3 5/10/3 7/9/3
f 5/10/3 8/11/3 6/12/3
f 10/15/4 9/14/4 1/13/4
f 9/14/4 10/15/4 11/16/4
f 9/14/4 11/16/4 12/17/4
f 1/13/4 9/14/4 13/18/4
f 13/18/4 9/14/4 14/19/4
f 13/18/4 14/19/4 15/20/4
f 1/13/4 13/18/4 16/21/4
f 1/13/4 16/21/4 17/22/4
f 17/22/4 16/21/4 18/23/4
f 1/13/4 17/22/4 19/24/4
f 1/13/4 19/24/4 20/25/4
f 20/25/4 19/24/4 21/26/4
f 1/13/4 20/25/4 22/27/4
f 1/13/4 22/27/4 7/28/4
f 1/13/4 7/28/4 5/29/4
f 1/13/4 5/29/4 3/30/4
f 2/32/5 10/15/5 1/31/5
f 10/15/5 2/32/5 23/33/5
f 23/36/6 25/35/6 24/34/6
f 25/35/6 23/36/6 2/37/6
f 24/34/6 25/35/6 26/38/6
f 25/35/6 2/37/6 27/39/6
f 25/35/6 27/39/6 28/40/6
f 28/40/6 27/39/6 29/41/6
f 27/39/6 2/37/6 30/42/6
f 30/42/6 2/37/6 31/43/6
f 30/42/6 31/43/6 32/44/6
f 31/43/6 2/37/6 33/45/6
f 33/45/6 2/37/6 34/46/6
f 33/45/6 34/46/6 35/47/6
f 34/46/6 2/37/6 36/48/6
f 36/48/6 2/37/6 8/49/6
f 8/49/6 2/37/6 6/50/6
f 6/50/6 2/37/6 4/51/6
f 30/54/7 18/53/7 16/52/7
f 18/53/7 30/54/7 32/55/7
f 36/58/7 7/57/7 22/56/7
f 7/57/7 36/58/7 8/59/7
f 28/62/7 15/61/7 14/60/7
f 15/61/7 28/62/7 29/63/7
f 33/66/7 21/65/7 19/64/7
f 21/65/7 33/66/7 35/67/7
f 31/70/2 19/69/2 17/68/2
f 19/69/2 31/70/2 33/71/2
f 32/74/3 17/73/3 18/72/3
f 17/73/3 32/74/3 31/75/3
f 24/78/7 12/77/7 11/76/7
f 12/77/7 24/78/7 26/79/7
f 34/82/2 22/81/2 20/80/2
f 22/81/2 34/82/2 36/83/2
f 29/86/3 13/85/3 15/84/3
f 13/85/3 29/86/3 27/87/3
f 24/89/8 10/15/8 23/88/8
f 10/15/8 24/89/8 11/90/8
f 25/93/2 14/92/2 9/91/2
f 14/92/2 25/93/2 28/94/2
f 26/97/3 9/96/3 12/95/3
f 9/96/3 26/97/3 25/98/3
f 27/101/2 16/100/2 13/99/2
f 16/100/2 27/101/2 30/102/2
f 35/105/3 20/104/3 21/103/3
f 20/104/3 35/105/3 34/106/3

