# Created by Kenney (www.kenney.nl)

mtllib object_051.mtl

g object_051

v 1 0 -1.192093E-07
v 0 0 0
v 1 1.443823E-16 0.9999999
v 5.960464E-08 0 0.5000001
v 1.192093E-07 1.443823E-16 1
v 0.25 0.0625 -2.980232E-08
v 0.25 0.03125 -2.980232E-08
v 0.3125 0.0625 -2.980232E-08
v 0.06250001 0.03125 -7.450581E-09
v 2.117582E-22 0.03125 1.443823E-15
v 0.5000001 0.0625 -5.960464E-08
v 0.5625001 0.09375 -5.960464E-08
v 0.5000001 0.09375 -5.960464E-08
v 0.7500001 0.09375 -1.192093E-07
v 0.8125001 0.125 -1.192093E-07
v 0.7500001 0.125 -1.192093E-07
v 1 0.125 -1.192093E-07
v 0.8125002 0.125 0.4999999
v 1 0.125 0.4999999
v 1 0.125 0.9999999
v 0.7500002 0.09375 0.4999999
v 0.7500002 0.125 0.4999999
v 0.5000001 0.0625 0.4999999
v 0.5000001 0.09375 0.4999999
v 0.5625001 0.09375 0.4999999
v 0.2500001 0.03125 0.5
v 0.2500001 0.0625 0.5
v 0.3125001 0.0625 0.5
v 5.960464E-08 0.03125 0.5000001
v 0.06250007 0.03125 0.5000001

vn 0 -2 0
vn -1.192093E-07 0 -1
vn 0 2 0
vn 1 0 -1.192093E-07
vn 1.192093E-07 0 1
vn -0.06237829 1.996105 7.450581E-09
vn -1 0 1.192093E-07

vt 0 39.37008
vt 0 0
vt -39.37008 39.37008
vt -19.68504 2.842171E-14
vt -39.37008 5.684342E-14
vt -9.84252 1.230315
vt -9.84252 0.6151575
vt -12.30315 1.230315
vt -39.37008 8.404155E-30
vt -2.46063 0.6151575
vt 6.565746E-30 0.6151575
vt -19.68504 1.230315
vt -22.14567 1.845472
vt -19.68504 1.845472
vt -29.52756 1.845472
vt -31.98819 2.46063
vt -29.52756 2.46063
vt -39.37008 2.46063
vt -2.614797E-12 31.98819
vt 19.68504 31.98819
vt 19.68504 39.37008
vt -39.37008 2.842171E-15
vt 0 2.46063
vt -19.68504 2.46063
vt 29.52756 1.845472
vt 29.52756 2.46063
vt 39.37008 2.46063
vt 31.98819 2.46063
vt 19.68504 1.230315
vt 19.68504 1.845472
vt 22.14567 1.845472
vt 9.84252 0.6151575
vt 9.84252 1.230315
vt 12.30315 1.230315
vt 2.924634E-14 -3.189158E-14
vt 2.924634E-14 0.6151575
vt 2.46063 0.6151575
vt 3.907985E-14 9.84252
vt 19.68504 9.84252
vt 5.684342E-14 2.46063
vt 19.68504 2.46063
vt 5.684342E-14 12.30315
vt 5.684342E-14 19.68504
vt 19.68504 12.30315
vt 19.68504 19.68504
vt 3.907985E-14 22.14567
vt 5.684342E-14 29.52756
vt 19.68504 22.14567
vt 19.68504 29.52756
vt 39.37008 -1.98952E-14
vt 5.95356E-14 -1.98952E-14
vt 19.68504 7.112467E-14
vt 19.68504 9.861725
vt 39.37008 1.424266E-13
vt 19.68504 39.4469
vt 39.37008 39.4469
vt 19.68504 29.58517
vt 19.68504 19.72345
vt 19.68504 0
vt 19.68504 0.6151575
vt 5.684342E-14 0.6151575
vt 9.212778E-14 1.845472
vt 9.212778E-14 2.46063
vt 5.08413E-14 0.6151575
vt 5.08413E-14 1.230315
vt 8.036632E-14 1.230315
vt 8.036632E-14 1.845472
vt 5.684342E-14 0
vt 19.68504 2.842171E-14

usemtl metal

f 3/3/1 2/2/1 1/1/1
f 2/2/1 3/3/1 4/4/1
f 4/4/1 3/3/1 5/5/1
f 8/8/2 7/7/2 6/6/2
f 1/9/2 7/7/2 8/8/2
f 1/9/2 9/10/2 7/7/2
f 2/2/2 9/10/2 1/9/2
f 9/10/2 2/2/2 10/11/2
f 1/9/2 8/8/2 11/12/2
f 1/9/2 11/12/2 12/13/2
f 12/13/2 11/12/2 13/14/2
f 1/9/2 12/13/2 14/15/2
f 1/9/2 14/15/2 15/16/2
f 15/16/2 14/15/2 16/17/2
f 1/9/2 15/16/2 17/18/2
f 18/20/3 17/1/3 15/19/3
f 17/1/3 18/20/3 19/21/3
f 17/23/4 3/22/4 1/2/4
f 3/22/4 17/23/4 19/24/4
f 3/22/4 19/24/4 20/18/4
f 19/27/5 22/26/5 21/25/5
f 22/26/5 19/27/5 18/28/5
f 21/25/5 24/30/5 23/29/5
f 24/30/5 21/25/5 25/31/5
f 23/29/5 27/33/5 26/32/5
f 27/33/5 23/29/5 28/34/5
f 26/32/5 29/36/5 4/35/5
f 29/36/5 26/32/5 30/37/5
f 9/40/3 26/39/3 7/38/3
f 26/39/3 9/40/3 30/41/3
f 28/44/3 11/43/3 8/42/3
f 11/43/3 28/44/3 23/45/3
f 25/48/3 14/47/3 12/46/3
f 14/47/3 25/48/3 21/49/3
f 20/27/5 5/51/5 3/50/5
f 5/54/6 26/53/6 4/52/6
f 26/53/6 5/54/6 19/55/6
f 19/55/6 5/54/6 20/56/6
f 21/57/6 26/53/6 19/55/6
f 26/53/6 21/57/6 23/58/6

usemtl metalLight

f 29/60/7 2/2/7 4/59/7
f 2/2/7 29/60/7 10/61/7
f 22/41/7 14/62/7 21/30/7
f 14/62/7 22/41/7 16/63/7
f 27/29/7 7/64/7 26/60/7
f 7/64/7 27/29/7 6/65/7
f 24/30/7 11/66/7 23/29/7
f 11/66/7 24/30/7 13/67/7
f 29/69/3 9/40/3 10/68/3
f 9/40/3 29/69/3 30/41/3
f 13/43/3 25/48/3 12/46/3
f 25/48/3 13/43/3 24/45/3
f 16/47/3 18/20/3 15/19/3
f 18/20/3 16/47/3 22/49/3
f 27/39/3 8/42/3 6/38/3
f 8/42/3 27/39/3 28/44/3

